<svg width="1361" height="408" viewBox="0 0 1361 408" fill="none" xmlns="http://www.w3.org/2000/svg">
<mask id="mask0" mask-type="alpha" maskUnits="userSpaceOnUse" x="0" y="0" width="1361" height="408">
<path d="M1361 0H0V408H1361V0Z" fill="#E5E5E5"/>
</mask>
<g mask="url(#mask0)">
<path d="M1361 0H0V408H1361V0Z" fill="#E5E5E5"/>
<path d="M192 186.714L223.797 183.113L228.392 214.797L196.595 218.398L192 186.714Z" fill="#162929"/>
<path fill-rule="evenodd" clip-rule="evenodd" d="M153.975 376.394C179.259 369.035 201.756 349.277 220.706 316.498L204.29 307.007C186.848 337.176 167.739 352.639 148.675 358.188C129.659 363.723 108.762 359.952 86.5282 347.608L77.3238 364.187C102.451 378.137 128.644 383.768 153.975 376.394Z" fill="#162929"/>
<path fill-rule="evenodd" clip-rule="evenodd" d="M826.452 128H813.952L813.45 141.044L800.891 140.67L800 153.17L812.969 153.555L812.452 167H824.952L825.455 153.926L839.012 154.33L839.903 141.83L825.936 141.415L826.452 128Z" fill="#162929"/>
<path fill-rule="evenodd" clip-rule="evenodd" d="M1348.78 357.879L1256.99 278L1240 297.525L1331.79 377.404L1348.78 357.879ZM1368.01 422.739L1276.59 345.553L1263.59 360.943L1355.02 438.13L1368.01 422.739Z" fill="#162929"/>
<path fill-rule="evenodd" clip-rule="evenodd" d="M103.824 61.8328L21.2795 -10L6 7.55792L88.5442 79.3908L103.824 61.8328ZM121.116 120.16L38.9031 50.7481L27.2178 64.5886L109.431 134L121.116 120.16Z" fill="#162929"/>
<path fill-rule="evenodd" clip-rule="evenodd" d="M1091.16 90.0399L1026.28 71L1022.05 84.7515L1075.92 99.213L1064.01 169.023L1078.03 171.138L1091.16 90.0399ZM936.983 100.975L1029.37 120.023L1006.53 209.575L993.488 206.049L1012.53 130.24L933.899 115.431L936.983 100.975ZM897.584 143.642L985.383 163.035L963.52 245.191L936.017 238.139L951.534 183.133L893 171.85L897.584 143.642Z" fill="#162929"/>
<path d="M392.663 73.8748L407.95 85.9997L361.048 137.587L407.805 142.054L329.115 252.962L312.54 241.979L372.215 157.969L320.979 153.203L392.663 73.8748Z" fill="#162929"/>
<path fill-rule="evenodd" clip-rule="evenodd" d="M-53 156H135.681V293.37H-53V156ZM-46.8787 162.121V287.248H129.559V162.121H-46.8787Z" fill="#162929"/>
<rect x="-42.918" y="165.363" width="167.616" height="118.285" fill="white"/>
<circle cx="16.2259" cy="223.785" r="41.679" fill="#7879FF"/>
<circle cx="99.4729" cy="271.586" r="6.12132" fill="#E5E5E5"/>
<rect x="-28.6465" y="203.672" width="87.1388" height="7.56163" transform="rotate(-2.78598 -28.6465 203.672)" fill="#162929"/>
<rect x="-28.0625" y="235.758" width="87.1388" height="7.56163" transform="rotate(2.05895 -28.0625 235.758)" fill="#162929"/>
<path fill-rule="evenodd" clip-rule="evenodd" d="M-43.0078 283.585L-43.0078 165.299H-41.3875L-41.3875 283.585H-43.0078ZM-9.52148 283.585L-9.52148 165.299H-7.90113L-7.90113 283.585H-9.52148ZM23.9668 165.299L23.9668 283.585H25.5871L25.5872 165.299H23.9668ZM57.4531 283.585L57.4531 165.299H59.0735L59.0735 283.585H57.4531ZM-26.2656 165.299L-26.2656 283.585H-24.6453L-24.6453 165.299H-26.2656ZM7.22266 283.585L7.22266 165.299H8.84301L8.84301 283.585H7.22266ZM40.709 165.299L40.709 283.585H42.3293L42.3293 165.299H40.709ZM74.1973 283.585L74.1973 165.299H75.8176L75.8176 283.585H74.1973ZM112.725 165.299L112.725 283.585H114.345V165.299H112.725ZM-37.4277 283.585L-37.4277 165.299H-35.8074L-35.8074 283.585H-37.4277ZM-3.93945 165.299L-3.93945 283.585H-2.3191L-2.3191 165.299H-3.93945ZM29.5469 283.585L29.5469 165.299H31.1672L31.1672 283.585H29.5469ZM63.0352 165.299L63.0352 283.585H64.6555L64.6555 165.299H63.0352ZM-20.6836 283.585L-20.6836 165.299H-19.0632L-19.0632 283.585H-20.6836ZM12.8027 165.299L12.8027 283.585H14.4231L14.4231 165.299H12.8027ZM46.291 283.585L46.291 165.299H47.9114L47.9114 283.585H46.291ZM79.7774 165.299L79.7773 283.585H81.3977L81.3977 165.299H79.7774ZM118.307 283.585L118.307 165.299H119.927V283.585H118.307ZM-31.8461 165.3L-31.8461 283.586H-30.2258L-30.2258 165.3L-31.8461 165.3ZM1.64107 283.586L1.64107 165.3L3.26142 165.3L3.26142 283.586H1.64107ZM35.1283 165.3L35.1283 283.586H36.7486L36.7486 165.3L35.1283 165.3ZM68.6155 283.586L68.6155 165.3L70.2358 165.3L70.2358 283.586H68.6155ZM-15.1025 165.3L-15.1025 283.586H-13.4822L-13.4822 165.3L-15.1025 165.3ZM18.3847 283.586L18.3847 165.3L20.005 165.3L20.005 283.586H18.3847ZM51.8719 165.3L51.8719 283.586H53.4922L53.4922 165.3L51.8719 165.3ZM85.3591 283.586L85.3591 165.3L86.9795 165.3V283.586H85.3591ZM123.887 165.3L123.887 283.586H125.508V165.3L123.887 165.3Z" fill="#A6A6C7"/>
<path d="M98.7734 291.389L106.515 289.769L111.106 304.172L104.535 306.153L98.7734 291.389Z" fill="#7879FF"/>
<path fill-rule="evenodd" clip-rule="evenodd" d="M1224 105H1412.68V242.37H1224V105ZM1230.12 111.121V236.248H1406.56V111.121H1230.12Z" fill="#162929"/>
<rect x="1234.08" y="114.363" width="167.616" height="118.285" fill="white"/>
<circle cx="1293.23" cy="172.785" r="41.679" fill="#7879FF"/>
<rect x="1248.35" y="152.672" width="87.1388" height="7.56163" transform="rotate(-2.78598 1248.35 152.672)" fill="#162929"/>
<rect x="1248.94" y="184.758" width="87.1388" height="7.56163" transform="rotate(2.05895 1248.94 184.758)" fill="#162929"/>
<path fill-rule="evenodd" clip-rule="evenodd" d="M1233.99 232.585L1233.99 114.299H1235.61L1235.61 232.585H1233.99ZM1267.48 232.585L1267.48 114.299H1269.1L1269.1 232.585H1267.48ZM1300.97 114.299L1300.97 232.585H1302.59L1302.59 114.299H1300.97ZM1334.45 232.585L1334.45 114.299H1336.07L1336.07 232.585H1334.45ZM1250.73 114.299L1250.73 232.585H1252.35L1252.35 114.299H1250.73ZM1284.22 232.585L1284.22 114.299H1285.84L1285.84 232.585H1284.22ZM1317.71 114.299L1317.71 232.585H1319.33L1319.33 114.299H1317.71ZM1351.2 232.585L1351.2 114.299H1352.82L1352.82 232.585H1351.2ZM1389.72 114.299L1389.72 232.585H1391.34V114.299H1389.72ZM1239.57 232.585L1239.57 114.299H1241.19L1241.19 232.585H1239.57ZM1273.06 114.299L1273.06 232.585H1274.68L1274.68 114.299H1273.06ZM1306.55 232.585L1306.55 114.299H1308.17L1308.17 232.585H1306.55ZM1340.04 114.299L1340.04 232.585H1341.66L1341.66 114.299H1340.04ZM1256.32 232.585L1256.32 114.299H1257.94L1257.94 232.585H1256.32ZM1289.8 114.299L1289.8 232.585H1291.42L1291.42 114.299H1289.8ZM1323.29 232.585L1323.29 114.299H1324.91L1324.91 232.585H1323.29ZM1356.78 114.299L1356.78 232.585H1358.4L1358.4 114.299H1356.78ZM1395.31 232.585L1395.31 114.299H1396.93V232.585H1395.31ZM1245.15 114.3L1245.15 232.586H1246.77L1246.77 114.3L1245.15 114.3ZM1278.64 232.586L1278.64 114.3L1280.26 114.3L1280.26 232.586H1278.64ZM1312.13 114.3L1312.13 232.586H1313.75L1313.75 114.3L1312.13 114.3ZM1345.62 232.586L1345.62 114.3L1347.24 114.3L1347.24 232.586H1345.62ZM1261.9 114.3L1261.9 232.586H1263.52L1263.52 114.3L1261.9 114.3ZM1295.38 232.586L1295.38 114.3L1297.01 114.3L1297.01 232.586H1295.38ZM1328.87 114.3L1328.87 232.586H1330.49L1330.49 114.3L1328.87 114.3ZM1362.36 232.586L1362.36 114.3L1363.98 114.3V232.586H1362.36ZM1400.89 114.3L1400.89 232.586H1402.51V114.3L1400.89 114.3Z" fill="#A6A6C7"/>
<path d="M1251.46 238.769L1260.55 240.389L1254.25 255.153L1248.3 253.712L1251.46 238.769Z" fill="#7879FF"/>
<path fill-rule="evenodd" clip-rule="evenodd" d="M981 331H1169.68V468.37H981V331ZM987.121 337.121V462.248H1163.56V337.121H987.121Z" fill="#162929"/>
<rect x="991.082" y="340.363" width="167.616" height="118.285" fill="white"/>
<circle cx="1050.23" cy="398.785" r="41.679" fill="#162929"/>
<path fill-rule="evenodd" clip-rule="evenodd" d="M1092.39 374.437L1005.35 378.672L1005.72 386.225L1092.76 381.989L1092.39 374.437ZM1093.02 413.889L1005.94 410.758L1005.67 418.315L1092.75 421.445L1093.02 413.889Z" fill="#7879FF"/>
<path fill-rule="evenodd" clip-rule="evenodd" d="M990.992 458.585L990.992 340.299H992.613L992.613 458.585H990.992ZM1024.48 458.585L1024.48 340.299H1026.1L1026.1 458.585H1024.48ZM1057.97 340.299L1057.97 458.585H1059.59L1059.59 340.299H1057.97ZM1091.45 458.585L1091.45 340.299H1093.07L1093.07 458.585H1091.45ZM1007.73 340.299L1007.73 458.585H1009.35L1009.35 340.299H1007.73ZM1041.22 458.585L1041.22 340.299H1042.84L1042.84 458.585H1041.22ZM1074.71 340.299L1074.71 458.585H1076.33L1076.33 340.299H1074.71ZM1108.2 458.585L1108.2 340.299H1109.82L1109.82 458.585H1108.2ZM1146.72 340.299L1146.72 458.585H1148.34V340.299H1146.72ZM996.572 458.585L996.572 340.299H998.193L998.193 458.585H996.572ZM1030.06 340.299L1030.06 458.585H1031.68L1031.68 340.299H1030.06ZM1063.55 458.585L1063.55 340.299H1065.17L1065.17 458.585H1063.55ZM1097.04 340.299L1097.04 458.585H1098.66L1098.66 340.299H1097.04ZM1013.32 458.585L1013.32 340.299H1014.94L1014.94 458.585H1013.32ZM1046.8 340.299L1046.8 458.585H1048.42L1048.42 340.299H1046.8ZM1080.29 458.585L1080.29 340.299H1081.91L1081.91 458.585H1080.29ZM1113.78 340.299L1113.78 458.585H1115.4L1115.4 340.299H1113.78ZM1152.31 458.585L1152.31 340.299H1153.93V458.585H1152.31ZM1002.15 340.3L1002.15 458.586H1003.77L1003.77 340.3L1002.15 340.3ZM1035.64 458.586L1035.64 340.3L1037.26 340.3L1037.26 458.586H1035.64ZM1069.13 340.3L1069.13 458.586H1070.75L1070.75 340.3L1069.13 340.3ZM1102.62 458.586L1102.62 340.3L1104.24 340.3L1104.24 458.586H1102.62ZM1018.9 340.3L1018.9 458.586H1020.52L1020.52 340.3L1018.9 340.3ZM1052.38 458.586L1052.38 340.3L1054.01 340.3L1054.01 458.586H1052.38ZM1085.87 340.3L1085.87 458.586H1087.49L1087.49 340.3L1085.87 340.3ZM1119.36 458.586L1119.36 340.3L1120.98 340.3V458.586H1119.36ZM1157.89 340.3L1157.89 458.586H1159.51V340.3L1157.89 340.3Z" fill="#A6A6C7"/>
<path fill-rule="evenodd" clip-rule="evenodd" d="M-53 156H135.681V293.37H-53V156ZM-46.8787 162.121V287.248H129.559V162.121H-46.8787Z" fill="#162929"/>
<rect x="-42.918" y="165.363" width="167.616" height="118.285" fill="white"/>
<circle cx="16.2259" cy="223.785" r="41.679" fill="#162929"/>
<circle cx="99.4729" cy="271.586" r="6.12132" fill="#E5E5E5"/>
<path fill-rule="evenodd" clip-rule="evenodd" d="M58.3893 199.437L-28.6465 203.672L-28.2789 211.225L58.7568 206.989L58.3893 199.437ZM59.02 238.889L-28.0625 235.758L-28.3342 243.315L58.7483 246.445L59.02 238.889Z" fill="#7879FF"/>
<path fill-rule="evenodd" clip-rule="evenodd" d="M-43.0078 283.585L-43.0078 165.299H-41.3875L-41.3875 283.585H-43.0078ZM-9.52148 283.585L-9.52148 165.299H-7.90113L-7.90113 283.585H-9.52148ZM23.9668 165.299L23.9668 283.585H25.5871L25.5872 165.299H23.9668ZM57.4531 283.585L57.4531 165.299H59.0735L59.0735 283.585H57.4531ZM-26.2656 165.299L-26.2656 283.585H-24.6453L-24.6453 165.299H-26.2656ZM7.22266 283.585L7.22266 165.299H8.84301L8.84301 283.585H7.22266ZM40.709 165.299L40.709 283.585H42.3293L42.3293 165.299H40.709ZM74.1973 283.585L74.1973 165.299H75.8176L75.8176 283.585H74.1973ZM112.725 165.299L112.725 283.585H114.345V165.299H112.725ZM-37.4277 283.585L-37.4277 165.299H-35.8074L-35.8074 283.585H-37.4277ZM-3.93945 165.299L-3.93945 283.585H-2.3191L-2.3191 165.299H-3.93945ZM29.5469 283.585L29.5469 165.299H31.1672L31.1672 283.585H29.5469ZM63.0352 165.299L63.0352 283.585H64.6555L64.6555 165.299H63.0352ZM-20.6836 283.585L-20.6836 165.299H-19.0632L-19.0632 283.585H-20.6836ZM12.8027 165.299L12.8027 283.585H14.4231L14.4231 165.299H12.8027ZM46.291 283.585L46.291 165.299H47.9114L47.9114 283.585H46.291ZM79.7774 165.299L79.7773 283.585H81.3977L81.3977 165.299H79.7774ZM118.307 283.585L118.307 165.299H119.927V283.585H118.307ZM-31.8461 165.3L-31.8461 283.586H-30.2258L-30.2258 165.3L-31.8461 165.3ZM1.64107 283.586L1.64107 165.3L3.26142 165.3L3.26142 283.586H1.64107ZM35.1283 165.3L35.1283 283.586H36.7486L36.7486 165.3L35.1283 165.3ZM68.6155 283.586L68.6155 165.3L70.2358 165.3L70.2358 283.586H68.6155ZM-15.1025 165.3L-15.1025 283.586H-13.4822L-13.4822 165.3L-15.1025 165.3ZM18.3847 283.586L18.3847 165.3L20.005 165.3L20.005 283.586H18.3847ZM51.8719 165.3L51.8719 283.586H53.4922L53.4922 165.3L51.8719 165.3ZM85.3591 283.586L85.3591 165.3L86.9795 165.3V283.586H85.3591ZM123.887 165.3L123.887 283.586H125.508V165.3L123.887 165.3Z" fill="#A6A6C7"/>
<path d="M98.7734 291.389L106.515 289.769L111.106 304.172L104.535 306.153L98.7734 291.389Z" fill="#7879FF"/>
<path fill-rule="evenodd" clip-rule="evenodd" d="M1224 105H1412.68V242.37H1224V105ZM1230.12 111.121V236.248H1406.56V111.121H1230.12Z" fill="#162929"/>
<rect x="1234.08" y="114.363" width="167.616" height="118.285" fill="white"/>
<circle cx="1293.23" cy="172.785" r="41.679" fill="#162929"/>
<path fill-rule="evenodd" clip-rule="evenodd" d="M1335.39 148.437L1248.35 152.672L1248.72 160.225L1335.76 155.989L1335.39 148.437ZM1336.02 187.889L1248.94 184.758L1248.67 192.315L1335.75 195.445L1336.02 187.889Z" fill="#7879FF"/>
<path fill-rule="evenodd" clip-rule="evenodd" d="M1233.99 232.585L1233.99 114.299H1235.61L1235.61 232.585H1233.99ZM1267.48 232.585L1267.48 114.299H1269.1L1269.1 232.585H1267.48ZM1300.97 114.299L1300.97 232.585H1302.59L1302.59 114.299H1300.97ZM1334.45 232.585L1334.45 114.299H1336.07L1336.07 232.585H1334.45ZM1250.73 114.299L1250.73 232.585H1252.35L1252.35 114.299H1250.73ZM1284.22 232.585L1284.22 114.299H1285.84L1285.84 232.585H1284.22ZM1317.71 114.299L1317.71 232.585H1319.33L1319.33 114.299H1317.71ZM1351.2 232.585L1351.2 114.299H1352.82L1352.82 232.585H1351.2ZM1389.72 114.299L1389.72 232.585H1391.34V114.299H1389.72ZM1239.57 232.585L1239.57 114.299H1241.19L1241.19 232.585H1239.57ZM1273.06 114.299L1273.06 232.585H1274.68L1274.68 114.299H1273.06ZM1306.55 232.585L1306.55 114.299H1308.17L1308.17 232.585H1306.55ZM1340.04 114.299L1340.04 232.585H1341.66L1341.66 114.299H1340.04ZM1256.32 232.585L1256.32 114.299H1257.94L1257.94 232.585H1256.32ZM1289.8 114.299L1289.8 232.585H1291.42L1291.42 114.299H1289.8ZM1323.29 232.585L1323.29 114.299H1324.91L1324.91 232.585H1323.29ZM1356.78 114.299L1356.78 232.585H1358.4L1358.4 114.299H1356.78ZM1395.31 232.585L1395.31 114.299H1396.93V232.585H1395.31ZM1245.15 114.3L1245.15 232.586H1246.77L1246.77 114.3L1245.15 114.3ZM1278.64 232.586L1278.64 114.3L1280.26 114.3L1280.26 232.586H1278.64ZM1312.13 114.3L1312.13 232.586H1313.75L1313.75 114.3L1312.13 114.3ZM1345.62 232.586L1345.62 114.3L1347.24 114.3L1347.24 232.586H1345.62ZM1261.9 114.3L1261.9 232.586H1263.52L1263.52 114.3L1261.9 114.3ZM1295.38 232.586L1295.38 114.3L1297.01 114.3L1297.01 232.586H1295.38ZM1328.87 114.3L1328.87 232.586H1330.49L1330.49 114.3L1328.87 114.3ZM1362.36 232.586L1362.36 114.3L1363.98 114.3V232.586H1362.36ZM1400.89 114.3L1400.89 232.586H1402.51V114.3L1400.89 114.3Z" fill="#A6A6C7"/>
<path d="M1251.46 238.769L1260.55 240.389L1254.25 255.153L1248.3 253.712L1251.46 238.769Z" fill="#7879FF"/>
<circle cx="584.226" cy="76.7844" r="41.679" fill="#162929"/>
<path fill-rule="evenodd" clip-rule="evenodd" d="M626.389 52.4365L539.354 56.6719L539.721 64.2246L626.757 59.9892L626.389 52.4365ZM627.02 91.8886L539.938 88.7579L539.666 96.3146L626.748 99.4453L627.02 91.8886Z" fill="#7879FF"/>
<path fill-rule="evenodd" clip-rule="evenodd" d="M515 9H703.681V146.37H515V9ZM521.121 15.1213V140.248H697.559V15.1213H521.121Z" fill="#162929"/>
<circle cx="667.473" cy="124.586" r="6.12132" fill="#E5E5E5"/>
<path fill-rule="evenodd" clip-rule="evenodd" d="M515 9H703.681V146.37H515V9ZM521.121 15.1213V140.248H697.559V15.1213H521.121Z" fill="#162929"/>
<rect x="525.082" y="18.3633" width="167.616" height="118.285" fill="white"/>
<circle cx="584.226" cy="76.7847" r="41.679" fill="#7879FF"/>
<circle cx="667.473" cy="124.586" r="6.12132" fill="#E5E5E5"/>
<rect x="539.354" y="56.6719" width="87.1388" height="7.56163" transform="rotate(-2.78598 539.354 56.6719)" fill="#162929"/>
<rect x="539.938" y="88.7576" width="87.1388" height="7.56163" transform="rotate(2.05895 539.938 88.7576)" fill="#162929"/>
<path fill-rule="evenodd" clip-rule="evenodd" d="M524.992 136.585L524.992 18.2993H526.613L526.613 136.585H524.992ZM558.479 136.585L558.479 18.2993H560.099L560.099 136.585H558.479ZM591.967 18.2993L591.967 136.585H593.587L593.587 18.2993H591.967ZM625.453 136.585L625.453 18.2993H627.073L627.073 136.585H625.453ZM541.734 18.2993L541.734 136.585H543.355L543.355 18.2993H541.734ZM575.223 136.585L575.223 18.2993H576.843L576.843 136.585H575.223ZM608.709 18.2993L608.709 136.585H610.329L610.329 18.2993H608.709ZM642.197 136.585L642.197 18.2993H643.818L643.818 136.585H642.197ZM680.725 18.2993L680.725 136.585H682.345V18.2993H680.725ZM530.572 136.585L530.572 18.2993H532.193L532.193 136.585H530.572ZM564.061 18.2993L564.061 136.585H565.681L565.681 18.2993H564.061ZM597.547 136.585L597.547 18.2993H599.167L599.167 136.585H597.547ZM631.035 18.2993L631.035 136.585H632.656L632.656 18.2993H631.035ZM547.316 136.585L547.316 18.2993H548.937L548.937 136.585H547.316ZM580.803 18.2993L580.803 136.585H582.423L582.423 18.2993H580.803ZM614.291 136.585L614.291 18.2993H615.911L615.911 136.585H614.291ZM647.777 18.2993L647.777 136.585H649.398L649.398 18.2993H647.777ZM686.307 136.585L686.307 18.2993H687.927V136.585H686.307ZM536.154 18.3001L536.154 136.586H537.774L537.774 18.3001L536.154 18.3001ZM569.641 136.586L569.641 18.3001L571.261 18.3001L571.261 136.586H569.641ZM603.128 18.3001L603.128 136.586H604.749L604.749 18.3001L603.128 18.3001ZM636.615 136.586L636.616 18.3001L638.236 18.3001L638.236 136.586H636.615ZM552.897 18.3001L552.897 136.586H554.518L554.518 18.3001L552.897 18.3001ZM586.385 136.586L586.385 18.3001L588.005 18.3001L588.005 136.586H586.385ZM619.872 18.3001L619.872 136.586H621.492L621.492 18.3001L619.872 18.3001ZM653.359 136.586L653.359 18.3001L654.979 18.3001V136.586H653.359ZM691.887 18.3001L691.887 136.586H693.508V18.3001L691.887 18.3001Z" fill="#A6A6C7"/>
<path d="M542.455 142.769L551.547 144.389L545.246 159.153L539.305 157.712L542.455 142.769Z" fill="#7879FF"/>
<path d="M666.773 144.389L674.515 142.769L679.106 157.172L672.535 159.153L666.773 144.389Z" fill="#7879FF"/>
<path d="M542.455 142.769L551.547 144.389L545.246 159.153L539.305 157.712L542.455 142.769Z" fill="#7879FF"/>
<path d="M666.773 144.389L674.515 142.769L679.106 157.172L672.535 159.153L666.773 144.389Z" fill="#7879FF"/>
</g>
</svg>
