<svg width="1360" height="345" viewBox="0 0 1360 345" fill="none" xmlns="http://www.w3.org/2000/svg">
<mask id="mask0" mask-type="alpha" maskUnits="userSpaceOnUse" x="0" y="0" width="1360" height="345">
<rect width="1360" height="345" fill="#C4C4C4"/>
</mask>
<g mask="url(#mask0)">
<mask id="mask1" mask-type="alpha" maskUnits="userSpaceOnUse" x="0" y="-65" width="1360" height="410">
<path d="M1360 -64.1865H0V345H1360V-64.1865Z" fill="#E5E5E5"/>
</mask>
<g mask="url(#mask1)">
<path d="M1360 -64.1865H0V345H1360V-64.1865Z" fill="#E5E5E5"/>
<path d="M1333.15 276.872C1343.1 225.389 1304.36 201.097 1276.59 192.251" stroke="#162929" stroke-width="14"/>
<path d="M72.0571 348.401C68.4359 397.662 106.999 418.428 133.719 425.209" stroke="#162929" stroke-width="12"/>
<path d="M681.503 191.523C741.821 295.562 843.358 302.132 908.757 285.041" stroke="#162929" stroke-width="19"/>
<path d="M759.606 199.436C831.475 273.907 917.746 242.331 965.644 209.833" stroke="#162929" stroke-width="14"/>
<path d="M321 76.9365L352.797 73.3246L357.392 105.101L325.595 108.713L321 76.9365Z" fill="#162929"/>
<path fill-rule="evenodd" clip-rule="evenodd" d="M312.865 291.403C331.661 309.9 359.902 319.872 397.762 320.349L398.001 301.333C363.156 300.894 340.317 291.775 326.146 277.829C312.009 263.917 305.066 243.791 304.944 218.287L285.982 218.378C286.12 247.201 294.034 272.872 312.865 291.403Z" fill="#162929"/>
<path fill-rule="evenodd" clip-rule="evenodd" d="M961.452 64.1855H948.952L948.45 77.267L935.891 76.8925L935 89.4283L947.969 89.8151L947.452 103.299H959.952L960.455 90.1874L974.012 90.5916L974.903 78.0558L960.936 77.6393L961.452 64.1855Z" fill="#162929"/>
<path fill-rule="evenodd" clip-rule="evenodd" d="M191.819 6.85221L109.275 -65.1895L93.9951 -47.5805L176.539 24.4612L191.819 6.85221ZM196.117 55.3193L113.904 -14.2939L102.218 -0.413177L184.431 69.2L196.117 55.3193Z" fill="#162929"/>
<path fill-rule="evenodd" clip-rule="evenodd" d="M1236.16 26.1148L1171.28 7.01953L1167.05 20.811L1220.92 35.3146L1209.01 105.327L1223.03 107.449L1236.16 26.1148ZM1081.98 37.0814L1174.37 56.1849L1151.53 145.998L1138.49 142.461L1157.53 66.4319L1078.9 51.5797L1081.98 37.0814ZM1042.58 79.8729L1130.38 99.3221L1108.52 181.717L1081.02 174.645L1096.53 119.479L1038 108.163L1042.58 79.8729Z" fill="#162929"/>
<path d="M467.663 9.90344L482.95 22.0635L436.048 73.8006L482.805 78.2808L404.115 189.511L387.54 178.496L447.215 94.2424L395.979 89.4621L467.663 9.90344Z" fill="#162929"/>
<path fill-rule="evenodd" clip-rule="evenodd" d="M1096 267.775H1284.68V405.544H1096V267.775ZM1102.12 273.915V399.405H1278.56V273.915H1102.12Z" fill="#162929"/>
<rect x="1106.08" y="277.166" width="167.616" height="118.629" fill="white"/>
<ellipse cx="1165.22" cy="335.757" rx="41.679" ry="41.8001" fill="#162929"/>
<path fill-rule="evenodd" clip-rule="evenodd" d="M1207.39 311.338L1120.35 315.586L1120.72 323.16L1207.76 318.913L1207.39 311.338ZM1208.02 350.905L1120.94 347.765L1120.67 355.344L1207.75 358.483L1208.02 350.905Z" fill="#7879FF"/>
<path fill-rule="evenodd" clip-rule="evenodd" d="M1105.99 395.731L1105.99 277.102H1107.61L1107.61 395.731H1105.99ZM1139.48 395.731L1139.48 277.102H1141.1L1141.1 395.731H1139.48ZM1172.97 277.102L1172.97 395.731H1174.59L1174.59 277.102H1172.97ZM1206.45 395.731L1206.45 277.102H1208.07L1208.07 395.731H1206.45ZM1122.74 277.102L1122.74 395.731H1124.36L1124.36 277.102H1122.74ZM1156.22 395.731L1156.22 277.102H1157.84L1157.84 395.731H1156.22ZM1189.71 277.102L1189.71 395.731H1191.33L1191.33 277.102H1189.71ZM1223.2 395.731L1223.2 277.102H1224.82L1224.82 395.731H1223.2ZM1261.73 277.102V395.731H1263.35V277.102H1261.73ZM1111.57 395.731L1111.57 277.102H1113.19L1113.19 395.731H1111.57ZM1145.06 277.102L1145.06 395.731H1146.68L1146.68 277.102H1145.06ZM1178.55 395.731L1178.55 277.102H1180.17L1180.17 395.731H1178.55ZM1212.04 277.102L1212.04 395.731H1213.66L1213.66 277.102H1212.04ZM1128.32 395.731L1128.32 277.102H1129.94L1129.94 395.731H1128.32ZM1161.8 277.102L1161.8 395.731H1163.42L1163.42 277.102H1161.8ZM1195.29 395.731L1195.29 277.102H1196.91L1196.91 395.731H1195.29ZM1228.78 277.102L1228.78 395.731H1230.4L1230.4 277.102H1228.78ZM1267.31 395.731V277.102H1268.93V395.731H1267.31ZM1117.15 277.102L1117.15 395.732H1118.78L1118.78 277.102L1117.15 277.102ZM1150.64 395.732L1150.64 277.102L1152.26 277.102L1152.26 395.732H1150.64ZM1184.13 277.102L1184.13 395.732H1185.75L1185.75 277.102L1184.13 277.102ZM1217.62 395.732L1217.62 277.102L1219.24 277.102L1219.24 395.732H1217.62ZM1133.9 277.102L1133.9 395.732H1135.52L1135.52 277.102L1133.9 277.102ZM1167.39 395.732L1167.39 277.102L1169.01 277.102L1169.01 395.732H1167.39ZM1200.87 277.102L1200.87 395.732H1202.49L1202.49 277.102L1200.87 277.102ZM1234.36 395.732V277.102L1235.98 277.102V395.732H1234.36ZM1272.89 277.102V395.732H1274.51V277.102L1272.89 277.102Z" fill="#A6A6C7"/>
<path fill-rule="evenodd" clip-rule="evenodd" d="M16 92.2666H204.681V230.035H16V92.2666ZM22.1213 98.4057V223.896H198.559V98.4057H22.1213Z" fill="#162929"/>
<rect x="26.082" y="101.657" width="167.616" height="118.629" fill="white"/>
<ellipse cx="85.2249" cy="160.248" rx="41.679" ry="41.8001" fill="#162929"/>
<ellipse cx="168.473" cy="208.189" rx="6.12132" ry="6.13911" fill="#E5E5E5"/>
<path fill-rule="evenodd" clip-rule="evenodd" d="M127.389 135.829L40.3535 140.077L40.7211 147.651L127.757 143.404L127.389 135.829ZM128.02 175.396L40.9375 172.256L40.6658 179.835L127.748 182.975L128.02 175.396Z" fill="#7879FF"/>
<path fill-rule="evenodd" clip-rule="evenodd" d="M25.9932 220.222L25.9932 101.593H27.6135L27.6135 220.222H25.9932ZM59.4795 220.222L59.4795 101.593H61.0998L61.0998 220.222H59.4795ZM92.9678 101.593L92.9678 220.222H94.5881L94.5881 101.593H92.9678ZM126.454 220.222L126.454 101.593H128.074L128.074 220.222H126.454ZM42.7354 101.593L42.7354 220.222H44.3557L44.3557 101.593H42.7354ZM76.2236 220.222L76.2236 101.593H77.844L77.844 220.222H76.2236ZM109.71 101.593L109.71 220.222H111.33L111.33 101.593H109.71ZM143.198 220.222L143.198 101.593H144.819L144.819 220.222H143.198ZM181.726 101.593V220.222H183.346V101.593H181.726ZM31.5732 220.222L31.5732 101.593H33.1936L33.1936 220.222H31.5732ZM65.0615 101.593L65.0615 220.222H66.6819L66.6819 101.593H65.0615ZM98.5479 220.222L98.5479 101.593H100.168L100.168 220.222H98.5479ZM132.036 101.593L132.036 220.222H133.656L133.656 101.593H132.036ZM48.3174 220.222L48.3174 101.593H49.9377L49.9377 220.222H48.3174ZM81.8037 101.593L81.8037 220.222H83.4241L83.4241 101.593H81.8037ZM115.292 220.222L115.292 101.593H116.912L116.912 220.222H115.292ZM148.778 101.593L148.778 220.222H150.399L150.399 101.593H148.778ZM187.308 220.222V101.593H188.928V220.222H187.308ZM37.1548 101.594L37.1548 220.223H38.7752L38.7752 101.594L37.1548 101.594ZM70.642 220.223L70.642 101.594L72.2624 101.594L72.2624 220.223H70.642ZM104.129 101.594L104.129 220.223H105.75L105.75 101.594L104.129 101.594ZM137.616 220.223L137.616 101.594L139.237 101.594L139.237 220.223H137.616ZM53.8984 101.594L53.8984 220.223H55.5188L55.5188 101.594L53.8984 101.594ZM87.3857 220.223L87.3857 101.594L89.006 101.594L89.006 220.223H87.3857ZM120.873 101.594L120.873 220.223H122.493L122.493 101.594L120.873 101.594ZM154.36 220.223V101.594L155.98 101.594V220.223H154.36ZM192.888 101.594V220.223H194.509V101.594L192.888 101.594Z" fill="#A6A6C7"/>
<path d="M43.4563 226.425L52.5483 228.05L46.2469 242.856L40.3057 241.411L43.4563 226.425Z" fill="#7879FF"/>
<path d="M167.772 228.05L175.514 226.425L180.105 240.87L173.534 242.856L167.772 228.05Z" fill="#7879FF"/>
<ellipse cx="689.226" cy="12.8216" rx="41.679" ry="41.8001" fill="#162929"/>
<path fill-rule="evenodd" clip-rule="evenodd" d="M731.389 -11.5977L644.354 -7.34993L644.721 0.224715L731.757 -4.02301L731.389 -11.5977ZM732.02 27.9691L644.938 24.8293L644.666 32.408L731.748 35.5478L732.02 27.9691Z" fill="#7879FF"/>
<path fill-rule="evenodd" clip-rule="evenodd" d="M620 -55.1602H808.681V82.6088H620V-55.1602ZM626.121 -49.021V76.4697H802.559V-49.021H626.121Z" fill="#162929"/>
<ellipse cx="772.473" cy="60.7622" rx="6.12131" ry="6.13911" fill="#E5E5E5"/>
<path fill-rule="evenodd" clip-rule="evenodd" d="M620 -55.1602H808.681V82.6088H620V-55.1602ZM626.121 -49.021V76.4697H802.559V-49.021H626.121Z" fill="#162929"/>
<rect x="630.082" y="-45.7695" width="167.616" height="118.629" fill="white"/>
<ellipse cx="689.225" cy="12.8216" rx="41.679" ry="41.8001" fill="#7879FF"/>
<ellipse cx="772.473" cy="60.7622" rx="6.12131" ry="6.13911" fill="#E5E5E5"/>
<rect width="87.1394" height="7.58356" transform="matrix(0.998811 -0.0487463 0.0484648 0.998825 644.354 -7.34961)" fill="#162929"/>
<rect width="87.1391" height="7.58358" transform="matrix(0.999351 0.036032 -0.0358237 0.999358 644.938 24.8291)" fill="#162929"/>
<path fill-rule="evenodd" clip-rule="evenodd" d="M629.993 72.7953L629.993 -45.834H631.614L631.614 72.7953H629.993ZM663.479 72.7953L663.479 -45.834H665.1L665.1 72.7953H663.479ZM696.968 -45.834L696.968 72.7953H698.588L698.588 -45.834H696.968ZM730.454 72.7953L730.454 -45.834H732.074L732.074 72.7953H730.454ZM646.735 -45.834L646.735 72.7953H648.356L648.356 -45.834H646.735ZM680.224 72.7953L680.224 -45.834H681.844L681.844 72.7953H680.224ZM713.71 -45.834L713.71 72.7953H715.33L715.33 -45.834H713.71ZM747.198 72.7953L747.198 -45.834H748.819L748.819 72.7953H747.198ZM785.726 -45.834V72.7953H787.346V-45.834H785.726ZM635.573 72.7953L635.573 -45.834H637.194L637.194 72.7953H635.573ZM669.062 -45.834L669.062 72.7953H670.682L670.682 -45.834H669.062ZM702.548 72.7953L702.548 -45.834H704.168L704.168 72.7953H702.548ZM736.036 -45.834L736.036 72.7953H737.656L737.656 -45.834H736.036ZM652.317 72.7953L652.317 -45.834H653.938L653.938 72.7953H652.317ZM685.804 -45.834L685.804 72.7953H687.424L687.424 -45.834H685.804ZM719.292 72.7953L719.292 -45.834H720.912L720.912 72.7953H719.292ZM752.778 -45.834L752.778 72.7953H754.399L754.399 -45.834H752.778ZM791.308 72.7953V-45.834H792.928V72.7953H791.308ZM641.155 -45.8332L641.155 72.7961H642.775L642.775 -45.8332L641.155 -45.8332ZM674.642 72.7961L674.642 -45.8332L676.262 -45.8332L676.262 72.7961H674.642ZM708.129 -45.8332L708.129 72.7961H709.75L709.75 -45.8332L708.129 -45.8332ZM741.616 72.7961L741.616 -45.8332L743.237 -45.8332L743.237 72.7961H741.616ZM657.898 -45.8332L657.898 72.7961H659.519L659.519 -45.8332L657.898 -45.8332ZM691.386 72.7961L691.386 -45.8332L693.006 -45.8332L693.006 72.7961H691.386ZM724.873 -45.8332L724.873 72.7961H726.493L726.493 -45.8332L724.873 -45.8332ZM758.36 72.7961V-45.8332L759.98 -45.8332V72.7961H758.36ZM796.888 -45.8332V72.7961H798.509V-45.8332L796.888 -45.8332Z" fill="#A6A6C7"/>
<path d="M647.456 78.998L656.548 80.6231L650.247 95.4292L644.306 93.9847L647.456 78.998Z" fill="#7879FF"/>
<path d="M771.772 80.6231L779.514 78.998L784.105 93.443L777.534 95.4292L771.772 80.6231Z" fill="#7879FF"/>
<path d="M647.456 78.998L656.548 80.6231L650.247 95.4292L644.306 93.9847L647.456 78.998Z" fill="#7879FF"/>
<path d="M771.772 80.6231L779.514 78.998L784.105 93.443L777.534 95.4292L771.772 80.6231Z" fill="#7879FF"/>
<ellipse cx="532.226" cy="355.815" rx="41.679" ry="41.8002" fill="#162929"/>
<path fill-rule="evenodd" clip-rule="evenodd" d="M574.389 331.396L487.354 335.644L487.721 343.219L574.757 338.971L574.389 331.396ZM575.02 370.963L487.938 367.823L487.666 375.402L574.748 378.542L575.02 370.963Z" fill="#7879FF"/>
<path fill-rule="evenodd" clip-rule="evenodd" d="M458 232.674H646.681V370.443H458V232.674ZM464.121 238.813V364.304H640.559V238.813H464.121Z" fill="#162929"/>
<rect x="468.082" y="242.064" width="167.616" height="118.629" fill="white"/>
<ellipse cx="527.225" cy="300.656" rx="41.679" ry="41.8001" fill="#7879FF"/>
<ellipse cx="610.473" cy="348.596" rx="6.12131" ry="6.13911" fill="#E5E5E5"/>
<rect width="87.1394" height="7.58357" transform="matrix(0.998811 -0.0487464 0.0484647 0.998825 482.354 280.484)" fill="#162929"/>
<rect width="87.1391" height="7.58358" transform="matrix(0.999351 0.036032 -0.0358237 0.999358 482.938 312.663)" fill="#162929"/>
<path fill-rule="evenodd" clip-rule="evenodd" d="M467.993 360.629L467.993 242H469.614L469.614 360.629H467.993ZM501.479 360.629L501.479 242H503.1L503.1 360.629H501.479ZM534.968 242L534.968 360.629H536.588L536.588 242H534.968ZM568.454 360.629L568.454 242H570.074L570.074 360.629H568.454ZM484.735 242L484.735 360.629H486.356L486.356 242H484.735ZM518.224 360.629L518.224 242H519.844L519.844 360.629H518.224ZM551.71 242L551.71 360.629H553.33L553.33 242H551.71ZM585.198 360.629L585.198 242H586.819L586.819 360.629H585.198ZM623.726 242V360.629H625.346V242H623.726ZM473.573 360.629L473.573 242H475.194L475.194 360.629H473.573ZM507.062 242L507.062 360.629H508.682L508.682 242H507.062ZM540.548 360.629L540.548 242H542.168L542.168 360.629H540.548ZM574.036 242L574.036 360.629H575.656L575.656 242H574.036ZM490.317 360.629L490.317 242H491.938L491.938 360.629H490.317ZM523.804 242L523.804 360.629H525.424L525.424 242H523.804ZM557.292 360.629L557.292 242H558.912L558.912 360.629H557.292ZM590.778 242L590.778 360.629H592.399L592.399 242H590.778ZM629.308 360.629V242H630.928V360.629H629.308ZM479.155 242.001L479.155 360.63H480.775L480.775 242.001L479.155 242.001ZM512.642 360.63L512.642 242.001L514.262 242.001L514.262 360.63H512.642ZM546.129 242.001L546.129 360.63H547.75L547.75 242.001L546.129 242.001ZM579.616 360.63L579.616 242.001L581.237 242.001L581.237 360.63H579.616ZM495.898 242.001L495.898 360.63H497.519L497.519 242.001L495.898 242.001ZM529.386 360.63L529.386 242.001L531.006 242.001L531.006 360.63H529.386ZM562.873 242.001L562.873 360.63H564.493L564.493 242.001L562.873 242.001ZM596.36 360.63V242.001L597.98 242.001V360.63H596.36ZM634.888 242.001V360.63H636.509V242.001L634.888 242.001Z" fill="#A6A6C7"/>
<path fill-rule="evenodd" clip-rule="evenodd" d="M108.794 289.298L102.286 337.594L109.824 338.666L114.642 297.612L154.274 304.71L155.623 297.86L108.794 289.298ZM132.464 310.432L125.616 356.377L140.274 357.729L143.994 327.158L172.81 333.184L175.458 318.757L132.464 310.432Z" fill="#162929"/>
</g>
</g>
</svg>
