<svg width="1360" height="344" viewBox="0 0 1360 344" fill="none" xmlns="http://www.w3.org/2000/svg">
<mask id="mask0" mask-type="alpha" maskUnits="userSpaceOnUse" x="0" y="0" width="1360" height="344">
<rect width="1360" height="344" fill="#C4C4C4"/>
</mask>
<g mask="url(#mask0)">
<mask id="mask1" mask-type="alpha" maskUnits="userSpaceOnUse" x="0" y="-64" width="1360" height="408">
<path d="M1360 -64H0V344H1360V-64Z" fill="#E5E5E5"/>
</mask>
<g mask="url(#mask1)">
<path d="M1360 -64H0V344H1360V-64Z" fill="#E5E5E5"/>
<path d="M1333.15 276.071C1343.1 224.737 1304.36 200.515 1276.59 191.695" stroke="#162929" stroke-width="14"/>
<path d="M72.0571 347.391C68.4359 396.51 106.999 417.215 133.719 423.977" stroke="#162929" stroke-width="12"/>
<path d="M681.504 190.968C741.822 294.705 843.359 301.256 908.758 284.214" stroke="#162929" stroke-width="19"/>
<path d="M759.606 198.858C831.475 273.113 917.746 241.629 965.644 209.225" stroke="#162929" stroke-width="14"/>
<path d="M321 76.7139L352.797 73.1124L357.392 104.797L325.595 108.398L321 76.7139Z" fill="#162929"/>
<path fill-rule="evenodd" clip-rule="evenodd" d="M312.865 290.559C331.661 309.002 359.902 318.945 397.762 319.421L398.001 300.46C363.156 300.022 340.317 290.929 326.146 277.024C312.009 263.152 305.066 243.085 304.944 217.655L285.982 217.746C286.12 246.485 294.034 272.081 312.865 290.559Z" fill="#162929"/>
<path fill-rule="evenodd" clip-rule="evenodd" d="M961.452 64H948.952L948.45 77.0435L935.891 76.6701L935 89.1696L947.969 89.5552L947.452 103H959.952L960.455 89.9265L974.012 90.3295L974.903 77.83L960.936 77.4147L961.452 64Z" fill="#162929"/>
<path fill-rule="evenodd" clip-rule="evenodd" d="M191.819 6.83284L109.275 -65L93.9951 -47.4421L176.539 24.3908L191.819 6.83284ZM196.117 55.1595L113.904 -14.252L102.218 -0.411484L184.431 68.9999L196.117 55.1595Z" fill="#162929"/>
<path fill-rule="evenodd" clip-rule="evenodd" d="M1236.16 26.0399L1171.28 7L1167.05 20.7515L1220.92 35.213L1209.01 105.023L1223.03 107.138L1236.16 26.0399ZM1081.98 36.9748L1174.37 56.0228L1151.53 145.575L1138.49 142.049L1157.53 66.2402L1078.9 51.431L1081.98 36.9748ZM1042.58 79.6422L1130.38 99.035L1108.52 181.191L1081.02 174.139L1096.53 119.133L1038 107.85L1042.58 79.6422Z" fill="#162929"/>
<path d="M467.663 9.87481L482.95 21.9997L436.048 73.5867L482.805 78.054L404.115 188.962L387.54 177.979L447.215 93.9693L395.979 89.2028L467.663 9.87481Z" fill="#162929"/>
<path fill-rule="evenodd" clip-rule="evenodd" d="M1096 267H1284.68V404.37H1096V267ZM1102.12 273.121V398.248H1278.56V273.121H1102.12Z" fill="#162929"/>
<rect x="1106.08" y="276.363" width="167.616" height="118.285" fill="white"/>
<circle cx="1165.22" cy="334.784" r="41.679" fill="#162929"/>
<path fill-rule="evenodd" clip-rule="evenodd" d="M1207.39 310.437L1120.35 314.672L1120.72 322.225L1207.76 317.989L1207.39 310.437ZM1208.02 349.889L1120.94 346.758L1120.67 354.315L1207.75 357.445L1208.02 349.889Z" fill="#7879FF"/>
<path fill-rule="evenodd" clip-rule="evenodd" d="M1105.99 394.584L1105.99 276.299H1107.61L1107.61 394.584H1105.99ZM1139.48 394.584L1139.48 276.299H1141.1L1141.1 394.584H1139.48ZM1172.97 276.299L1172.97 394.584H1174.59L1174.59 276.299H1172.97ZM1206.45 394.584L1206.45 276.299H1208.07L1208.07 394.584H1206.45ZM1122.74 276.299L1122.74 394.584H1124.36L1124.36 276.299H1122.74ZM1156.22 394.584L1156.22 276.299H1157.84L1157.84 394.584H1156.22ZM1189.71 276.299L1189.71 394.584H1191.33L1191.33 276.299H1189.71ZM1223.2 394.584L1223.2 276.299H1224.82L1224.82 394.584H1223.2ZM1261.73 276.299L1261.73 394.584H1263.35V276.299H1261.73ZM1111.57 394.584L1111.57 276.299H1113.19L1113.19 394.584H1111.57ZM1145.06 276.299L1145.06 394.584H1146.68L1146.68 276.299H1145.06ZM1178.55 394.584L1178.55 276.299H1180.17L1180.17 394.584H1178.55ZM1212.04 276.299L1212.04 394.584H1213.66L1213.66 276.299H1212.04ZM1128.32 394.584L1128.32 276.299H1129.94L1129.94 394.584H1128.32ZM1161.8 276.299L1161.8 394.584H1163.42L1163.42 276.299H1161.8ZM1195.29 394.584L1195.29 276.299H1196.91L1196.91 394.584H1195.29ZM1228.78 276.299L1228.78 394.584H1230.4L1230.4 276.299H1228.78ZM1267.31 394.584L1267.31 276.299H1268.93V394.584H1267.31ZM1117.15 276.3L1117.15 394.585H1118.78L1118.78 276.3L1117.15 276.3ZM1150.64 394.585L1150.64 276.3L1152.26 276.3L1152.26 394.585H1150.64ZM1184.13 276.3L1184.13 394.585H1185.75L1185.75 276.3L1184.13 276.3ZM1217.62 394.585L1217.62 276.3L1219.24 276.3L1219.24 394.585H1217.62ZM1133.9 276.3L1133.9 394.585H1135.52L1135.52 276.3L1133.9 276.3ZM1167.39 394.585L1167.39 276.3L1169.01 276.3L1169.01 394.585H1167.39ZM1200.87 276.3L1200.87 394.585H1202.49L1202.49 276.3L1200.87 276.3ZM1234.36 394.585L1234.36 276.3L1235.98 276.3V394.585H1234.36ZM1272.89 276.3L1272.89 394.585H1274.51V276.3L1272.89 276.3Z" fill="#A6A6C7"/>
<path fill-rule="evenodd" clip-rule="evenodd" d="M16 92H204.681V229.37H16V92ZM22.1213 98.1213V223.248H198.559V98.1213H22.1213Z" fill="#162929"/>
<rect x="26.082" y="101.363" width="167.616" height="118.285" fill="white"/>
<circle cx="85.2249" cy="159.784" r="41.679" fill="#162929"/>
<circle cx="168.473" cy="207.586" r="6.12132" fill="#E5E5E5"/>
<path fill-rule="evenodd" clip-rule="evenodd" d="M127.389 135.437L40.3535 139.672L40.7211 147.225L127.757 142.989L127.389 135.437ZM128.02 174.889L40.9375 171.758L40.6658 179.315L127.748 182.445L128.02 174.889Z" fill="#7879FF"/>
<path fill-rule="evenodd" clip-rule="evenodd" d="M25.9932 219.584L25.9932 101.299H27.6135L27.6135 219.584H25.9932ZM59.4795 219.584L59.4795 101.299H61.0998L61.0998 219.584H59.4795ZM92.9678 101.299L92.9678 219.584H94.5881L94.5881 101.299H92.9678ZM126.454 219.584L126.454 101.299H128.074L128.074 219.584H126.454ZM42.7354 101.299L42.7354 219.584H44.3557L44.3557 101.299H42.7354ZM76.2236 219.584L76.2236 101.299H77.844L77.844 219.584H76.2236ZM109.71 101.299L109.71 219.584H111.33L111.33 101.299H109.71ZM143.198 219.584L143.198 101.299H144.819L144.819 219.584H143.198ZM181.726 101.299L181.726 219.584H183.346V101.299H181.726ZM31.5732 219.584L31.5732 101.299H33.1936L33.1936 219.584H31.5732ZM65.0615 101.299L65.0615 219.584H66.6819L66.6819 101.299H65.0615ZM98.5479 219.584L98.5479 101.299H100.168L100.168 219.584H98.5479ZM132.036 101.299L132.036 219.584H133.656L133.656 101.299H132.036ZM48.3174 219.584L48.3174 101.299H49.9377L49.9377 219.584H48.3174ZM81.8037 101.299L81.8037 219.584H83.4241L83.4241 101.299H81.8037ZM115.292 219.584L115.292 101.299H116.912L116.912 219.584H115.292ZM148.778 101.299L148.778 219.584H150.399L150.399 101.299H148.778ZM187.308 219.584L187.308 101.299H188.928V219.584H187.308ZM37.1548 101.3L37.1548 219.585H38.7752L38.7752 101.3L37.1548 101.3ZM70.642 219.585L70.642 101.3L72.2624 101.3L72.2624 219.585H70.642ZM104.129 101.3L104.129 219.585H105.75L105.75 101.3L104.129 101.3ZM137.616 219.585L137.616 101.3L139.237 101.3L139.237 219.585H137.616ZM53.8984 101.3L53.8984 219.585H55.5188L55.5188 101.3L53.8984 101.3ZM87.3857 219.585L87.3857 101.3L89.006 101.3L89.006 219.585H87.3857ZM120.873 101.3L120.873 219.585H122.493L122.493 101.3L120.873 101.3ZM154.36 219.585L154.36 101.3L155.98 101.3V219.585H154.36ZM192.888 101.3L192.888 219.585H194.509V101.3L192.888 101.3Z" fill="#A6A6C7"/>
<path d="M43.4563 225.77L52.5483 227.39L46.2469 242.153L40.3057 240.713L43.4563 225.77Z" fill="#7879FF"/>
<path d="M167.772 227.39L175.514 225.77L180.105 240.173L173.534 242.153L167.772 227.39Z" fill="#7879FF"/>
<circle cx="689.226" cy="12.7844" r="41.679" fill="#162929"/>
<path fill-rule="evenodd" clip-rule="evenodd" d="M731.389 -11.5635L644.354 -7.32806L644.721 0.224627L731.757 -4.01079L731.389 -11.5635ZM732.02 27.8886L644.938 24.7579L644.666 32.3146L731.748 35.4453L732.02 27.8886Z" fill="#7879FF"/>
<path fill-rule="evenodd" clip-rule="evenodd" d="M620 -55H808.681V82.3696H620V-55ZM626.121 -48.8787V76.2483H802.559V-48.8787H626.121Z" fill="#162929"/>
<circle cx="772.473" cy="60.5862" r="6.12132" fill="#E5E5E5"/>
<path fill-rule="evenodd" clip-rule="evenodd" d="M620 -55H808.681V82.3696H620V-55ZM626.121 -48.8787V76.2483H802.559V-48.8787H626.121Z" fill="#162929"/>
<rect x="630.082" y="-45.6367" width="167.616" height="118.285" fill="white"/>
<circle cx="689.225" cy="12.7844" r="41.679" fill="#7879FF"/>
<circle cx="772.473" cy="60.5862" r="6.12132" fill="#E5E5E5"/>
<rect x="644.354" y="-7.32812" width="87.1388" height="7.56163" transform="rotate(-2.78598 644.354 -7.32812)" fill="#162929"/>
<rect x="644.938" y="24.7578" width="87.1388" height="7.56163" transform="rotate(2.05895 644.938 24.7578)" fill="#162929"/>
<path fill-rule="evenodd" clip-rule="evenodd" d="M629.993 72.5843L629.993 -45.7012H631.614L631.614 72.5843H629.993ZM663.479 72.5843L663.479 -45.7012H665.1L665.1 72.5843H663.479ZM696.968 -45.7012L696.968 72.5843H698.588L698.588 -45.7012H696.968ZM730.454 72.5843L730.454 -45.7012H732.074L732.074 72.5843H730.454ZM646.735 -45.7012L646.735 72.5843H648.356L648.356 -45.7012H646.735ZM680.224 72.5843L680.224 -45.7012H681.844L681.844 72.5843H680.224ZM713.71 -45.7012L713.71 72.5843H715.33L715.33 -45.7012H713.71ZM747.198 72.5843L747.198 -45.7012H748.819L748.819 72.5843H747.198ZM785.726 -45.7012L785.726 72.5843H787.346V-45.7012H785.726ZM635.573 72.5843L635.573 -45.7012H637.194L637.194 72.5843H635.573ZM669.062 -45.7012L669.062 72.5843H670.682L670.682 -45.7012H669.062ZM702.548 72.5843L702.548 -45.7012H704.168L704.168 72.5843H702.548ZM736.036 -45.7012L736.036 72.5843H737.656L737.656 -45.7012H736.036ZM652.317 72.5843L652.317 -45.7012H653.938L653.938 72.5843H652.317ZM685.804 -45.7012L685.804 72.5843H687.424L687.424 -45.7012H685.804ZM719.292 72.5843L719.292 -45.7012H720.912L720.912 72.5843H719.292ZM752.778 -45.7012L752.778 72.5843H754.399L754.399 -45.7012H752.778ZM791.308 72.5843L791.308 -45.7012H792.928V72.5843H791.308ZM641.155 -45.7004L641.155 72.5851H642.775L642.775 -45.7004L641.155 -45.7004ZM674.642 72.5851L674.642 -45.7004L676.262 -45.7004L676.262 72.5851H674.642ZM708.129 -45.7004L708.129 72.5851H709.75L709.75 -45.7004L708.129 -45.7004ZM741.616 72.5851L741.616 -45.7004L743.237 -45.7004L743.237 72.5851H741.616ZM657.898 -45.7004L657.898 72.5851H659.519L659.519 -45.7004L657.898 -45.7004ZM691.386 72.5851L691.386 -45.7004L693.006 -45.7004L693.006 72.5851H691.386ZM724.873 -45.7004L724.873 72.5851H726.493L726.493 -45.7004L724.873 -45.7004ZM758.36 72.5851L758.36 -45.7004L759.98 -45.7004V72.5851H758.36ZM796.888 -45.7004L796.888 72.5851H798.509V-45.7004L796.888 -45.7004Z" fill="#A6A6C7"/>
<path d="M647.456 78.7695L656.548 80.3899L650.247 95.1531L644.306 93.7128L647.456 78.7695Z" fill="#7879FF"/>
<path d="M771.772 80.3899L779.514 78.7695L784.105 93.1726L777.534 95.1531L771.772 80.3899Z" fill="#7879FF"/>
<path d="M647.456 78.7695L656.548 80.3899L650.247 95.1531L644.306 93.7128L647.456 78.7695Z" fill="#7879FF"/>
<path d="M771.772 80.3899L779.514 78.7695L784.105 93.1726L777.534 95.1531L771.772 80.3899Z" fill="#7879FF"/>
<circle cx="532.226" cy="354.784" r="41.679" fill="#162929"/>
<path fill-rule="evenodd" clip-rule="evenodd" d="M574.389 330.437L487.354 334.672L487.721 342.225L574.757 337.989L574.389 330.437ZM575.02 369.889L487.938 366.758L487.666 374.315L574.748 377.445L575.02 369.889Z" fill="#7879FF"/>
<path fill-rule="evenodd" clip-rule="evenodd" d="M458 232H646.681V369.37H458V232ZM464.121 238.121V363.248H640.559V238.121H464.121Z" fill="#162929"/>
<rect x="468.082" y="241.363" width="167.616" height="118.285" fill="white"/>
<circle cx="527.225" cy="299.784" r="41.679" fill="#7879FF"/>
<circle cx="610.473" cy="347.586" r="6.12132" fill="#E5E5E5"/>
<rect x="482.354" y="279.672" width="87.1388" height="7.56163" transform="rotate(-2.78598 482.354 279.672)" fill="#162929"/>
<rect x="482.938" y="311.758" width="87.1388" height="7.56163" transform="rotate(2.05895 482.938 311.758)" fill="#162929"/>
<path fill-rule="evenodd" clip-rule="evenodd" d="M467.993 359.584L467.993 241.299H469.614L469.614 359.584H467.993ZM501.479 359.584L501.479 241.299H503.1L503.1 359.584H501.479ZM534.968 241.299L534.968 359.584H536.588L536.588 241.299H534.968ZM568.454 359.584L568.454 241.299H570.074L570.074 359.584H568.454ZM484.735 241.299L484.735 359.584H486.356L486.356 241.299H484.735ZM518.224 359.584L518.224 241.299H519.844L519.844 359.584H518.224ZM551.71 241.299L551.71 359.584H553.33L553.33 241.299H551.71ZM585.198 359.584L585.198 241.299H586.819L586.819 359.584H585.198ZM623.726 241.299L623.726 359.584H625.346V241.299H623.726ZM473.573 359.584L473.573 241.299H475.194L475.194 359.584H473.573ZM507.062 241.299L507.062 359.584H508.682L508.682 241.299H507.062ZM540.548 359.584L540.548 241.299H542.168L542.168 359.584H540.548ZM574.036 241.299L574.036 359.584H575.656L575.656 241.299H574.036ZM490.317 359.584L490.317 241.299H491.938L491.938 359.584H490.317ZM523.804 241.299L523.804 359.584H525.424L525.424 241.299H523.804ZM557.292 359.584L557.292 241.299H558.912L558.912 359.584H557.292ZM590.778 241.299L590.778 359.584H592.399L592.399 241.299H590.778ZM629.308 359.584L629.308 241.299H630.928V359.584H629.308ZM479.155 241.3L479.155 359.585H480.775L480.775 241.3L479.155 241.3ZM512.642 359.585L512.642 241.3L514.262 241.3L514.262 359.585H512.642ZM546.129 241.3L546.129 359.585H547.75L547.75 241.3L546.129 241.3ZM579.616 359.585L579.616 241.3L581.237 241.3L581.237 359.585H579.616ZM495.898 241.3L495.898 359.585H497.519L497.519 241.3L495.898 241.3ZM529.386 359.585L529.386 241.3L531.006 241.3L531.006 359.585H529.386ZM562.873 241.3L562.873 359.585H564.493L564.493 241.3L562.873 241.3ZM596.36 359.585L596.36 241.3L597.98 241.3V359.585H596.36ZM634.888 241.3L634.888 359.585H636.509V241.3L634.888 241.3Z" fill="#A6A6C7"/>
<path fill-rule="evenodd" clip-rule="evenodd" d="M108.788 288.457L102.289 336.612L109.828 337.682L114.639 296.748L154.274 303.833L155.622 297.003L108.788 288.457ZM132.458 309.53L125.619 355.34L140.278 356.691L143.992 326.209L172.812 332.224L175.456 317.84L132.458 309.53Z" fill="#162929"/>
</g>
</g>
</svg>
