<svg width="1024" height="350" viewBox="0 0 1024 350" fill="none" xmlns="http://www.w3.org/2000/svg">
<mask id="mask0" mask-type="alpha" maskUnits="userSpaceOnUse" x="0" y="0" width="1024" height="350">
<path d="M1024 0H0V350H1024V0Z" fill="#E5E5E5"/>
</mask>
<g mask="url(#mask0)">
<path d="M1024 0H0V350H1024V0Z" fill="#E5E5E5"/>
<path d="M144.459 141.482L168.382 138.772L171.84 162.611L147.916 165.321L144.459 141.482Z" fill="#162929"/>
<path fill-rule="evenodd" clip-rule="evenodd" d="M115.849 284.195C134.873 278.657 151.798 263.792 166.057 239.129L153.705 231.989C140.582 254.687 126.205 266.321 111.861 270.496C97.5537 274.661 81.8312 271.824 65.1028 262.536L58.1775 275.01C77.0826 285.506 96.79 289.742 115.849 284.195Z" fill="#162929"/>
<path fill-rule="evenodd" clip-rule="evenodd" d="M621.812 97.3066H612.408L612.03 107.12L602.581 106.839L601.91 116.244L611.668 116.534L611.279 126.65H620.684L621.062 116.813L631.262 117.117L631.932 107.712L621.424 107.4L621.812 97.3066Z" fill="#162929"/>
<path fill-rule="evenodd" clip-rule="evenodd" d="M1014.81 270.264L945.745 210.164L932.961 224.854L1002.02 284.954L1014.81 270.264ZM1029.27 319.064L960.49 260.989L950.713 272.569L1019.5 330.643L1029.27 319.064Z" fill="#162929"/>
<path fill-rule="evenodd" clip-rule="evenodd" d="M78.1151 47.523L16.0098 -6.52319L4.51367 6.68718L66.619 60.7333L78.1151 47.523ZM91.1253 91.4072L29.2692 39.1829L20.4773 49.5963L82.3334 101.821L91.1253 91.4072Z" fill="#162929"/>
<path fill-rule="evenodd" clip-rule="evenodd" d="M820.977 68.7451L772.163 54.4197L768.979 64.7661L809.507 75.6468L800.549 128.171L811.099 129.763L820.977 68.7451ZM704.974 76.9715L774.486 91.303L757.304 158.681L747.488 156.028L761.814 98.9905L702.654 87.8482L704.974 76.9715ZM675.33 109.075L741.389 123.666L724.939 185.479L704.247 180.173L715.921 138.787L671.881 130.298L675.33 109.075Z" fill="#162929"/>
<path d="M295.435 56.5824L306.937 65.705L271.648 104.519L306.827 107.88L247.622 191.325L235.151 183.062L280.05 119.854L241.501 116.268L295.435 56.5824Z" fill="#162929"/>
<path fill-rule="evenodd" clip-rule="evenodd" d="M-39.877 118.373H102.084V221.728H-39.877V118.373ZM-35.2713 122.978V217.122H97.4785V122.978H-35.2713Z" fill="#162929"/>
<rect x="-32.291" y="125.417" width="126.112" height="88.9966" fill="white"/>
<circle cx="12.2084" cy="169.372" r="31.3588" fill="#7879FF"/>
<circle cx="74.8419" cy="205.338" r="4.60561" fill="#E5E5E5"/>
<rect x="-21.5527" y="154.24" width="65.5622" height="5.68928" transform="rotate(-2.78598 -21.5527 154.24)" fill="#162929"/>
<rect x="-21.1133" y="178.381" width="65.5622" height="5.68928" transform="rotate(2.05895 -21.1133 178.381)" fill="#162929"/>
<path fill-rule="evenodd" clip-rule="evenodd" d="M-32.3574 214.365L-32.3574 125.368H-31.1383L-31.1383 214.365H-32.3574ZM-7.16271 214.365L-7.16271 125.368H-5.94358L-5.94358 214.365H-7.16271ZM18.0335 125.368L18.0335 214.365H19.2526L19.2526 125.368H18.0335ZM43.2282 214.365V125.368H44.4473L44.4473 214.365H43.2282ZM-19.7608 125.368L-19.7608 214.365H-18.5417L-18.5417 125.368H-19.7608ZM5.43538 214.365L5.43538 125.368H6.65451L6.65451 214.365H5.43538ZM30.6301 125.368L30.6301 214.365H31.8492L31.8492 125.368H30.6301ZM55.8263 214.365V125.368H57.0454L57.0454 214.365H55.8263ZM84.8138 125.368V214.365H86.0329L86.0329 125.368H84.8138ZM-28.159 214.365L-28.159 125.368H-26.9399L-26.9399 214.365H-28.159ZM-2.96286 125.368L-2.96286 214.365H-1.74373L-1.74372 125.368H-2.96286ZM22.2318 214.365L22.2319 125.368H23.451L23.451 214.365H22.2318ZM47.428 125.368V214.365H48.6472L48.6472 125.368H47.428ZM-15.5609 214.365L-15.5609 125.368H-14.3418L-14.3418 214.365H-15.5609ZM9.63376 125.368L9.63376 214.365H10.8529L10.8529 125.368H9.63376ZM34.8299 214.365V125.368H36.0491L36.0491 214.365H34.8299ZM60.0247 125.368V214.365H61.2438L61.2438 125.368H60.0247ZM89.0136 214.365V125.368H90.2328L90.2328 214.365H89.0136ZM-23.9607 125.368L-23.9607 214.365H-22.7415L-22.7415 125.368H-23.9607ZM1.23552 214.365L1.23553 125.368H2.45466L2.45465 214.365H1.23552ZM26.4302 125.368L26.4302 214.365H27.6494L27.6494 125.368H26.4302ZM51.6264 214.365V125.368H52.8456L52.8455 214.365H51.6264ZM-11.3626 125.368L-11.3626 214.365H-10.1434L-10.1434 125.368H-11.3626ZM13.8336 214.365L13.8336 125.368H15.0527L15.0527 214.365H13.8336ZM39.0283 125.368V214.365H40.2475L40.2475 125.368H39.0283ZM64.223 214.365V125.368H65.4422L65.4422 214.365H64.223ZM93.212 125.368V214.365H94.4311L94.4311 125.368H93.212Z" fill="#A6A6C7"/>
<path d="M74.3164 220.238L80.1411 219.019L83.5953 229.855L78.6511 231.345L74.3164 220.238Z" fill="#7879FF"/>
<path fill-rule="evenodd" clip-rule="evenodd" d="M920.922 80.0007H1062.88V183.356H920.922V80.0007ZM925.527 84.6063V178.75H1058.28V84.6063H925.527Z" fill="#162929"/>
<rect x="928.508" y="87.0464" width="126.112" height="88.9966" fill="white"/>
<circle cx="973.007" cy="131.002" r="31.3588" fill="#7879FF"/>
<rect x="939.246" y="115.869" width="65.5622" height="5.68928" transform="rotate(-2.78598 939.246 115.869)" fill="#162929"/>
<rect x="939.686" y="140.01" width="65.5622" height="5.68928" transform="rotate(2.05895 939.686 140.01)" fill="#162929"/>
<path fill-rule="evenodd" clip-rule="evenodd" d="M928.441 175.995L928.441 86.9988H929.661L929.661 175.995H928.441ZM953.636 175.995L953.636 86.9988H954.855L954.855 175.995H953.636ZM978.832 86.9988L978.832 175.995H980.051L980.051 86.9988H978.832ZM1004.03 175.995V86.9988H1005.25L1005.25 175.995H1004.03ZM941.038 86.9988L941.038 175.995H942.257L942.257 86.9988H941.038ZM966.234 175.995L966.234 86.9988H967.453L967.453 175.995H966.234ZM991.429 86.9988L991.429 175.995H992.648L992.648 86.9988H991.429ZM1016.63 175.995V86.9988H1017.84L1017.84 175.995H1016.63ZM1045.61 86.9988V175.995H1046.83L1046.83 86.9988H1045.61ZM932.64 175.995L932.64 86.9988H933.859L933.859 175.995H932.64ZM957.836 86.9988L957.836 175.995H959.055L959.055 86.9988H957.836ZM983.031 175.995L983.031 86.9988H984.25L984.25 175.995H983.031ZM1008.23 86.9988V175.995H1009.45L1009.45 86.9988H1008.23ZM945.238 175.995L945.238 86.9988H946.457L946.457 175.995H945.238ZM970.433 86.9988L970.433 175.995H971.652L971.652 86.9988H970.433ZM995.629 175.995V86.9988H996.848L996.848 175.995H995.629ZM1020.82 86.9988V175.995H1022.04L1022.04 86.9988H1020.82ZM1049.81 175.995V86.9988H1051.03L1051.03 175.995H1049.81ZM936.838 86.9988L936.838 175.995H938.057L938.057 86.9988H936.838ZM962.034 175.995L962.034 86.9988H963.253L963.253 175.995H962.034ZM987.229 86.9988L987.229 175.995H988.448L988.448 86.9988H987.229ZM1012.43 175.995V86.9988H1013.64L1013.64 175.995H1012.43ZM949.436 86.9988L949.436 175.995H950.655L950.655 86.9988H949.436ZM974.632 175.995L974.632 86.9988H975.852L975.852 175.995H974.632ZM999.827 86.9988V175.995H1001.05L1001.05 86.9988H999.827ZM1025.02 175.995V86.9988H1026.24L1026.24 175.995H1025.02ZM1054.01 86.9988V175.995H1055.23L1055.23 86.9988H1054.01Z" fill="#A6A6C7"/>
<path d="M941.58 180.648L948.42 181.867L943.679 192.975L939.209 191.891L941.58 180.648Z" fill="#7879FF"/>
<path fill-rule="evenodd" clip-rule="evenodd" d="M738.092 250.041H880.053V353.396H738.092V250.041ZM742.697 254.646V348.79H875.447V254.646H742.697Z" fill="#162929"/>
<rect x="745.678" y="257.085" width="126.112" height="88.9966" fill="white"/>
<circle cx="790.177" cy="301.04" r="31.3588" fill="#162929"/>
<circle cx="852.811" cy="337.005" r="4.60561" fill="#E5E5E5"/>
<path fill-rule="evenodd" clip-rule="evenodd" d="M821.901 282.721L756.416 285.908L756.693 291.59L822.177 288.404L821.901 282.721ZM822.375 312.404L756.855 310.049L756.651 315.735L822.171 318.09L822.375 312.404Z" fill="#7879FF"/>
<path fill-rule="evenodd" clip-rule="evenodd" d="M745.611 346.032L745.611 257.036H746.83L746.83 346.032H745.611ZM770.806 346.032L770.806 257.036H772.025L772.025 346.032H770.806ZM796.002 257.036L796.002 346.032H797.221L797.221 257.036H796.002ZM821.197 346.032V257.036H822.416L822.416 346.032H821.197ZM758.208 257.036L758.208 346.032H759.427L759.427 257.036H758.208ZM783.404 346.032L783.404 257.036H784.623L784.623 346.032H783.404ZM808.599 257.036L808.599 346.032H809.818L809.818 257.036H808.599ZM833.795 346.032V257.036H835.014L835.014 346.032H833.795ZM862.783 257.036V346.032H864.002L864.002 257.036H862.783ZM749.81 346.032L749.81 257.036H751.029L751.029 346.032H749.81ZM775.006 257.036L775.006 346.032H776.225L776.225 257.036H775.006ZM800.201 346.032L800.201 257.036H801.42L801.42 346.032H800.201ZM825.397 257.036V346.032H826.616L826.616 257.036H825.397ZM762.408 346.032L762.408 257.036H763.627L763.627 346.032H762.408ZM787.603 257.036L787.603 346.032H788.822L788.822 257.036H787.603ZM812.799 346.032V257.036H814.018L814.018 346.032H812.799ZM837.993 257.036V346.032H839.213L839.213 257.036H837.993ZM866.982 346.032V257.036H868.202L868.202 346.032H866.982ZM754.008 257.036L754.008 346.032H755.227L755.227 257.036H754.008ZM779.204 346.032L779.204 257.036H780.423L780.423 346.032H779.204ZM804.399 257.036L804.399 346.032H805.618L805.618 257.036H804.399ZM829.595 346.032V257.036H830.814L830.814 346.032H829.595ZM766.606 257.036L766.606 346.032H767.825L767.825 257.036H766.606ZM791.802 346.032L791.802 257.036H793.021L793.021 346.032H791.802ZM816.997 257.036V346.032H818.216L818.216 257.036H816.997ZM842.192 346.032V257.036H843.411L843.411 346.032H842.192ZM871.181 257.036V346.032H872.4L872.4 257.036H871.181Z" fill="#A6A6C7"/>
<path fill-rule="evenodd" clip-rule="evenodd" d="M-39.877 118.373H102.084V221.728H-39.877V118.373ZM-35.2713 122.978V217.122H97.4785V122.978H-35.2713Z" fill="#162929"/>
<rect x="-32.291" y="125.417" width="126.112" height="88.9966" fill="white"/>
<circle cx="12.2084" cy="169.372" r="31.3588" fill="#162929"/>
<circle cx="74.8419" cy="205.338" r="4.60561" fill="#E5E5E5"/>
<path fill-rule="evenodd" clip-rule="evenodd" d="M43.9319 151.052L-21.5527 154.239L-21.2762 159.921L44.2085 156.735L43.9319 151.052ZM44.4065 180.735L-21.1134 178.38L-21.3178 184.066L44.2021 186.421L44.4065 180.735Z" fill="#7879FF"/>
<path fill-rule="evenodd" clip-rule="evenodd" d="M-32.3574 214.365L-32.3574 125.368H-31.1383L-31.1383 214.365H-32.3574ZM-7.16271 214.365L-7.16271 125.368H-5.94358L-5.94358 214.365H-7.16271ZM18.0335 125.368L18.0335 214.365H19.2526L19.2526 125.368H18.0335ZM43.2282 214.365V125.368H44.4473L44.4473 214.365H43.2282ZM-19.7608 125.368L-19.7608 214.365H-18.5417L-18.5417 125.368H-19.7608ZM5.43538 214.365L5.43538 125.368H6.65451L6.65451 214.365H5.43538ZM30.6301 125.368L30.6301 214.365H31.8492L31.8492 125.368H30.6301ZM55.8263 214.365V125.368H57.0454L57.0454 214.365H55.8263ZM84.8138 125.368V214.365H86.0329L86.0329 125.368H84.8138ZM-28.159 214.365L-28.159 125.368H-26.9399L-26.9399 214.365H-28.159ZM-2.96286 125.368L-2.96286 214.365H-1.74373L-1.74372 125.368H-2.96286ZM22.2318 214.365L22.2319 125.368H23.451L23.451 214.365H22.2318ZM47.428 125.368V214.365H48.6472L48.6472 125.368H47.428ZM-15.5609 214.365L-15.5609 125.368H-14.3418L-14.3418 214.365H-15.5609ZM9.63376 125.368L9.63376 214.365H10.8529L10.8529 125.368H9.63376ZM34.8299 214.365V125.368H36.0491L36.0491 214.365H34.8299ZM60.0247 125.368V214.365H61.2438L61.2438 125.368H60.0247ZM89.0136 214.365V125.368H90.2328L90.2328 214.365H89.0136ZM-23.9607 125.368L-23.9607 214.365H-22.7415L-22.7415 125.368H-23.9607ZM1.23552 214.365L1.23553 125.368H2.45466L2.45465 214.365H1.23552ZM26.4302 125.368L26.4302 214.365H27.6494L27.6494 125.368H26.4302ZM51.6264 214.365V125.368H52.8456L52.8455 214.365H51.6264ZM-11.3626 125.368L-11.3626 214.365H-10.1434L-10.1434 125.368H-11.3626ZM13.8336 214.365L13.8336 125.368H15.0527L15.0527 214.365H13.8336ZM39.0283 125.368V214.365H40.2475L40.2475 125.368H39.0283ZM64.223 214.365V125.368H65.4422L65.4422 214.365H64.223ZM93.212 125.368V214.365H94.4311L94.4311 125.368H93.212Z" fill="#A6A6C7"/>
<path d="M74.3164 220.238L80.1411 219.019L83.5953 229.855L78.6511 231.345L74.3164 220.238Z" fill="#7879FF"/>
<path fill-rule="evenodd" clip-rule="evenodd" d="M920.922 80.0007H1062.88V183.356H920.922V80.0007ZM925.527 84.6063V178.75H1058.28V84.6063H925.527Z" fill="#162929"/>
<rect x="928.508" y="87.0464" width="126.112" height="88.9966" fill="white"/>
<circle cx="973.007" cy="131.002" r="31.3588" fill="#162929"/>
<path fill-rule="evenodd" clip-rule="evenodd" d="M1004.73 112.682L939.246 115.869L939.523 121.551L1005.01 118.365L1004.73 112.682ZM1005.21 142.365L939.685 140.01L939.481 145.695L1005 148.051L1005.21 142.365Z" fill="#7879FF"/>
<path fill-rule="evenodd" clip-rule="evenodd" d="M928.441 175.995L928.441 86.9988H929.661L929.661 175.995H928.441ZM953.636 175.995L953.636 86.9988H954.855L954.855 175.995H953.636ZM978.832 86.9988L978.832 175.995H980.051L980.051 86.9988H978.832ZM1004.03 175.995V86.9988H1005.25L1005.25 175.995H1004.03ZM941.038 86.9988L941.038 175.995H942.257L942.257 86.9988H941.038ZM966.234 175.995L966.234 86.9988H967.453L967.453 175.995H966.234ZM991.429 86.9988L991.429 175.995H992.648L992.648 86.9988H991.429ZM1016.63 175.995V86.9988H1017.84L1017.84 175.995H1016.63ZM1045.61 86.9988V175.995H1046.83L1046.83 86.9988H1045.61ZM932.64 175.995L932.64 86.9988H933.859L933.859 175.995H932.64ZM957.836 86.9988L957.836 175.995H959.055L959.055 86.9988H957.836ZM983.031 175.995L983.031 86.9988H984.25L984.25 175.995H983.031ZM1008.23 86.9988V175.995H1009.45L1009.45 86.9988H1008.23ZM945.238 175.995L945.238 86.9988H946.457L946.457 175.995H945.238ZM970.433 86.9988L970.433 175.995H971.652L971.652 86.9988H970.433ZM995.629 175.995V86.9988H996.848L996.848 175.995H995.629ZM1020.82 86.9988V175.995H1022.04L1022.04 86.9988H1020.82ZM1049.81 175.995V86.9988H1051.03L1051.03 175.995H1049.81ZM936.838 86.9988L936.838 175.995H938.057L938.057 86.9988H936.838ZM962.034 175.995L962.034 86.9988H963.253L963.253 175.995H962.034ZM987.229 86.9988L987.229 175.995H988.448L988.448 86.9988H987.229ZM1012.43 175.995V86.9988H1013.64L1013.64 175.995H1012.43ZM949.436 86.9988L949.436 175.995H950.655L950.655 86.9988H949.436ZM974.632 175.995L974.632 86.9988H975.852L975.852 175.995H974.632ZM999.827 86.9988V175.995H1001.05L1001.05 86.9988H999.827ZM1025.02 175.995V86.9988H1026.24L1026.24 175.995H1025.02ZM1054.01 86.9988V175.995H1055.23L1055.23 86.9988H1054.01Z" fill="#A6A6C7"/>
<path d="M941.58 180.648L948.42 181.867L943.679 192.975L939.209 191.891L941.58 180.648Z" fill="#7879FF"/>
<path fill-rule="evenodd" clip-rule="evenodd" d="M387.48 7.77148H529.442V111.127H387.48V7.77148ZM392.086 12.3771V106.521H524.836V12.3771H392.086Z" fill="#162929"/>
<circle cx="439.566" cy="58.7716" r="31.3588" fill="#162929"/>
<circle cx="502.199" cy="94.7372" r="4.60561" fill="#E5E5E5"/>
<path fill-rule="evenodd" clip-rule="evenodd" d="M387.48 7.77148H529.442V111.127H387.48V7.77148ZM392.086 12.3771V106.521H524.836V12.3771H392.086Z" fill="#162929"/>
<rect x="395.066" y="14.8164" width="126.112" height="88.9966" fill="white"/>
<circle cx="439.566" cy="58.7716" r="31.3588" fill="#7879FF"/>
<circle cx="502.199" cy="94.7372" r="4.60561" fill="#E5E5E5"/>
<rect x="405.805" y="43.6392" width="65.5622" height="5.68928" transform="rotate(-2.78598 405.805 43.6392)" fill="#162929"/>
<rect x="406.242" y="67.7803" width="65.5622" height="5.68928" transform="rotate(2.05895 406.242 67.7803)" fill="#162929"/>
<path fill-rule="evenodd" clip-rule="evenodd" d="M394.998 103.764L394.998 14.7678H396.217L396.217 103.764H394.998ZM420.193 103.764L420.193 14.7678H421.412L421.412 103.764H420.193ZM445.389 14.7678L445.389 103.764H446.608L446.608 14.7678H445.389ZM470.584 103.764V14.7678H471.803L471.803 103.764H470.584ZM407.595 14.7678L407.595 103.764H408.814L408.814 14.7678H407.595ZM432.791 103.764L432.791 14.7678H434.01L434.01 103.764H432.791ZM457.986 14.7678L457.986 103.764H459.205L459.205 14.7678H457.986ZM483.182 103.764V14.7678H484.401L484.401 103.764H483.182ZM512.169 14.7678V103.764H513.388L513.388 14.7678H512.169ZM399.196 103.764L399.196 14.7678H400.416L400.416 103.764H399.196ZM424.393 14.7678L424.393 103.764H425.612L425.612 14.7678H424.393ZM449.587 103.764L449.587 14.7678H450.806L450.806 103.764H449.587ZM474.784 14.7678V103.764H476.003L476.003 14.7678H474.784ZM411.795 103.764L411.795 14.7678H413.014L413.014 103.764H411.795ZM436.989 14.7678L436.989 103.764H438.208L438.208 14.7678H436.989ZM462.185 103.764V14.7678H463.405L463.405 103.764H462.185ZM487.38 14.7678V103.764H488.599L488.599 14.7678H487.38ZM516.369 103.764V14.7678H517.588L517.588 103.764H516.369ZM403.395 14.7678L403.395 103.764H404.614L404.614 14.7678H403.395ZM428.591 103.764L428.591 14.7678H429.81L429.81 103.764H428.591ZM453.786 14.7678L453.786 103.764H455.005L455.005 14.7678H453.786ZM478.982 103.764V14.7678H480.201L480.201 103.764H478.982ZM415.993 14.7678L415.993 103.764H417.212L417.212 14.7678H415.993ZM441.189 103.764L441.189 14.7678H442.408L442.408 103.764H441.189ZM466.384 14.7678V103.764H467.603L467.603 14.7678H466.384ZM491.579 103.764V14.7678H492.798L492.798 103.764H491.579ZM520.567 14.7678V103.764H521.787L521.787 14.7678H520.567Z" fill="#A6A6C7"/>
<path d="M408.138 108.418L414.979 109.637L410.238 120.745L405.768 119.661L408.138 108.418Z" fill="#7879FF"/>
<path d="M501.674 109.637L507.499 108.418L510.953 119.255L506.009 120.745L501.674 109.637Z" fill="#7879FF"/>
<path fill-rule="evenodd" clip-rule="evenodd" d="M471.287 40.4534L405.803 43.64L406.079 49.3226L471.564 46.1359L471.287 40.4534ZM471.762 70.1366L406.242 67.7811L406.038 73.4667L471.558 75.8222L471.762 70.1366Z" fill="#162929"/>
<path d="M408.138 108.418L414.979 109.637L410.238 120.745L405.768 119.661L408.138 108.418Z" fill="#7879FF"/>
<path d="M501.674 109.637L507.499 108.418L510.953 119.255L506.009 120.745L501.674 109.637Z" fill="#7879FF"/>
</g>
</svg>
