<svg width="360" height="174" viewBox="0 0 360 174" fill="none" xmlns="http://www.w3.org/2000/svg">
<mask id="mask0" mask-type="alpha" maskUnits="userSpaceOnUse" x="0" y="0" width="360" height="174">
<path d="M360 0H0V174H360V0Z" fill="#E5E5E5"/>
</mask>
<g mask="url(#mask0)">
<path d="M724 0.000244141H0V247.461H724V0.000244141Z" fill="#E5E5E5"/>
<path d="M102.139 100.033L119.053 98.1169L121.498 114.972L104.583 116.887L102.139 100.033Z" fill="#162929"/>
<path fill-rule="evenodd" clip-rule="evenodd" d="M81.9097 200.935C95.36 197.019 107.327 186.509 117.408 169.072L108.675 164.023C99.397 180.072 89.2314 188.297 79.0905 191.249C68.9744 194.194 57.8581 192.188 46.0306 185.621L41.1342 194.441C54.5007 201.862 68.4344 204.857 81.9097 200.935Z" fill="#162929"/>
<path fill-rule="evenodd" clip-rule="evenodd" d="M55.2299 33.6003L11.3195 -4.61206L3.19141 4.72808L47.1018 42.9404L55.2299 33.6003ZM64.4288 64.6278L20.6946 27.7035L14.4784 35.0662L58.2127 71.9904L64.4288 64.6278Z" fill="#162929"/>
<path d="M208.882 40.006L217.014 46.4559L192.064 73.8983L216.937 76.2747L175.077 135.273L166.26 129.431L198.004 84.741L170.749 82.2054L208.882 40.006Z" fill="#162929"/>
<path fill-rule="evenodd" clip-rule="evenodd" d="M-28.1934 83.6931H72.1775V156.768H-28.1934V83.6931ZM-24.9371 86.9494V153.512H68.9212V86.9494H-24.9371Z" fill="#162929"/>
<rect x="-22.8301" y="88.6738" width="89.1654" height="62.9234" fill="white"/>
<circle cx="8.63256" cy="119.752" r="22.1716" fill="#162929"/>
<circle cx="52.9165" cy="145.18" r="3.25631" fill="#E5E5E5"/>
<path fill-rule="evenodd" clip-rule="evenodd" d="M31.0614 106.799L-15.2383 109.052L-15.0428 113.07L31.2569 110.817L31.0614 106.799ZM31.397 127.787L-14.9276 126.121L-15.0721 130.141L31.2525 131.807L31.397 127.787Z" fill="#7879FF"/>
<path fill-rule="evenodd" clip-rule="evenodd" d="M-22.8789 151.563L-22.8789 88.6392H-22.0169L-22.0169 151.563H-22.8789ZM-5.06503 151.563L-5.06503 88.6392H-4.20307L-4.20307 151.563H-5.06503ZM12.7488 88.6392V151.563H13.6108L13.6108 88.6392H12.7488ZM30.5627 151.563V88.6392H31.4247L31.4247 151.563H30.5627ZM-13.972 88.6392L-13.972 151.563H-13.11L-13.11 88.6392H-13.972ZM3.8419 151.563L3.84191 88.6392H4.70387L4.70387 151.563H3.8419ZM21.6558 88.6392V151.563H22.5177L22.5177 88.6392H21.6558ZM39.4697 151.563V88.6392H40.3316L40.3316 151.563H39.4697ZM59.9653 88.6392L59.9653 151.563H60.8272V88.6392H59.9653ZM-19.9099 151.563L-19.9099 88.6392H-19.048L-19.048 151.563H-19.9099ZM-2.09605 88.6392L-2.09605 151.563H-1.23409L-1.23409 88.6392H-2.09605ZM15.7178 151.563V88.6392H16.5798L16.5798 151.563H15.7178ZM33.5317 88.6392V151.563H34.3937L34.3937 88.6392H33.5317ZM-11.003 151.563L-11.003 88.6392H-10.141L-10.141 151.563H-11.003ZM6.81089 88.6392L6.81088 151.563H7.67285L7.67285 88.6392H6.81089ZM24.6248 151.563V88.6392H25.4867L25.4867 151.563H24.6248ZM42.4386 88.6392L42.4386 151.563H43.3006V88.6392H42.4386ZM62.9342 151.563L62.9343 88.6392H63.7962V151.563H62.9342ZM-16.9423 88.6392L-16.9423 151.563H-16.0804L-16.0804 88.6392H-16.9423ZM0.872925 151.563L0.872929 88.6392H1.73489L1.73489 151.563H0.872925ZM18.6854 88.6392V151.563H19.5474L19.5474 88.6392H18.6854ZM36.5007 151.563V88.6392H37.3626L37.3626 151.563H36.5007ZM-8.03401 88.6392L-8.03401 151.563H-7.17205L-7.17205 88.6392H-8.03401ZM9.77986 151.563V88.6392H10.6418L10.6418 151.563H9.77986ZM27.5937 88.6392V151.563H28.4557L28.4557 88.6392H27.5937ZM45.4062 151.563L45.4062 88.6392H46.2682V151.563H45.4062ZM65.9032 88.6392L65.9032 151.563H66.7652V88.6392H65.9032Z" fill="#A6A6C7"/>
<path d="M52.5449 155.716L56.6632 154.854L59.1054 162.516L55.6097 163.569L52.5449 155.716Z" fill="#7879FF"/>
<path fill-rule="evenodd" clip-rule="evenodd" d="M257.072 96H250.423L250.156 102.939L243.474 102.74L243 109.39L249.9 109.595L249.625 116.747H256.274L256.542 109.792L263.753 110.007L264.227 103.357L256.798 103.136L257.072 96Z" fill="#162929"/>
<path fill-rule="evenodd" clip-rule="evenodd" d="M412.416 105.129L377.903 95L375.652 102.315L404.306 110.008L397.973 147.144L405.432 148.27L412.416 105.129ZM330.397 110.945L379.544 121.078L367.396 168.716L360.456 166.84L370.585 126.513L328.757 118.635L330.397 110.945ZM309.438 133.643L356.144 143.959L344.514 187.663L329.884 183.912L338.138 154.651L307 148.649L309.438 133.643Z" fill="#162929"/>
<path fill-rule="evenodd" clip-rule="evenodd" d="M184 136H284.371V209.075H184V136ZM187.256 139.256V205.819H281.115V139.256H187.256Z" fill="#162929"/>
<rect x="189.363" y="140.98" width="89.1654" height="62.9234" fill="white"/>
<circle cx="220.826" cy="172.058" r="22.1716" fill="#162929"/>
<path fill-rule="evenodd" clip-rule="evenodd" d="M243.257 159.107L196.957 161.36L197.153 165.378L243.452 163.124L243.257 159.107ZM243.592 180.094L197.268 178.429L197.123 182.449L243.448 184.114L243.592 180.094Z" fill="#7879FF"/>
<path fill-rule="evenodd" clip-rule="evenodd" d="M189.316 203.87L189.316 140.946H190.178L190.178 203.87H189.316ZM207.13 203.87L207.13 140.946H207.992L207.992 203.87H207.13ZM224.944 140.946V203.87H225.806L225.806 140.946H224.944ZM242.758 203.87V140.946H243.62L243.62 203.87H242.758ZM198.223 140.946L198.223 203.87H199.085L199.085 140.946H198.223ZM216.037 203.87L216.037 140.946H216.899L216.899 203.87H216.037ZM233.851 140.946V203.87H234.713L234.713 140.946H233.851ZM251.665 203.87V140.946H252.527L252.527 203.87H251.665ZM272.161 140.946L272.161 203.87H273.023V140.946H272.161ZM192.285 203.87L192.285 140.946H193.147L193.147 203.87H192.285ZM210.099 140.946L210.099 203.87H210.961L210.961 140.946H210.099ZM227.913 203.87V140.946H228.775L228.775 203.87H227.913ZM245.727 140.946V203.87H246.589L246.589 140.946H245.727ZM201.192 203.87L201.192 140.946H202.054L202.054 203.87H201.192ZM219.006 140.946L219.006 203.87H219.868L219.868 140.946H219.006ZM236.82 203.87V140.946H237.682L237.682 203.87H236.82ZM254.634 140.946L254.634 203.87H255.496V140.946H254.634ZM275.13 203.87L275.13 140.946H275.992V203.87H275.13ZM195.253 140.946L195.253 203.87H196.115L196.115 140.946H195.253ZM213.068 203.87L213.068 140.946H213.93L213.93 203.87H213.068ZM230.881 140.946V203.87H231.743L231.743 140.946H230.881ZM248.696 203.87V140.946H249.558L249.558 203.87H248.696ZM204.161 140.946L204.161 203.87H205.023L205.023 140.946H204.161ZM221.975 203.87V140.946H222.837L222.837 203.87H221.975ZM239.789 140.946V203.87H240.651L240.651 140.946H239.789ZM257.602 203.87L257.602 140.946H258.464V203.87H257.602ZM278.099 140.946L278.099 203.87H278.961V140.946H278.099Z" fill="#A6A6C7"/>
<path fill-rule="evenodd" clip-rule="evenodd" d="M272 6H372.371V79.0754H272V6ZM275.256 9.25631V75.8191H369.115V9.25631H275.256Z" fill="#162929"/>
<rect x="277.363" y="10.9802" width="89.1654" height="62.9234" fill="white"/>
<circle cx="308.826" cy="42.0581" r="22.1716" fill="#162929"/>
<circle cx="353.11" cy="67.487" r="3.25631" fill="#E5E5E5"/>
<path fill-rule="evenodd" clip-rule="evenodd" d="M331.257 29.1067L284.957 31.3598L285.153 35.3775L331.452 33.1244L331.257 29.1067ZM331.592 50.094L285.268 48.4286L285.123 52.4485L331.448 54.1139L331.592 50.094Z" fill="#7879FF"/>
<path fill-rule="evenodd" clip-rule="evenodd" d="M277.316 73.8696L277.316 10.9463H278.178L278.178 73.8696H277.316ZM295.13 73.8696L295.13 10.9463H295.992L295.992 73.8696H295.13ZM312.944 10.9463V73.8696H313.806L313.806 10.9463H312.944ZM330.758 73.8696V10.9463H331.62L331.62 73.8696H330.758ZM286.223 10.9463L286.223 73.8696H287.085L287.085 10.9463H286.223ZM304.037 73.8696L304.037 10.9463H304.899L304.899 73.8696H304.037ZM321.851 10.9463V73.8696H322.713L322.713 10.9463H321.851ZM339.665 73.8696V10.9463H340.527L340.527 73.8696H339.665ZM360.161 10.9463L360.161 73.8696H361.023V10.9463H360.161ZM280.285 73.8696L280.285 10.9463H281.147L281.147 73.8696H280.285ZM298.099 10.9463L298.099 73.8696H298.961L298.961 10.9463H298.099ZM315.913 73.8696V10.9463H316.775L316.775 73.8696H315.913ZM333.727 10.9463V73.8696H334.589L334.589 10.9463H333.727ZM289.192 73.8696L289.192 10.9463H290.054L290.054 73.8696H289.192ZM307.006 10.9463L307.006 73.8696H307.868L307.868 10.9463H307.006ZM324.82 73.8696V10.9463H325.682L325.682 73.8696H324.82ZM342.634 10.9463L342.634 73.8696H343.496V10.9463H342.634ZM363.13 73.8696L363.13 10.9463H363.992V73.8696H363.13ZM283.253 10.9463L283.253 73.8696H284.115L284.115 10.9463H283.253ZM301.068 73.8696L301.068 10.9463H301.93L301.93 73.8696H301.068ZM318.881 10.9463V73.8696H319.743L319.743 10.9463H318.881ZM336.696 73.8696V10.9463H337.558L337.558 73.8696H336.696ZM292.161 10.9463L292.161 73.8696H293.023L293.023 10.9463H292.161ZM309.975 73.8696V10.9463H310.837L310.837 73.8696H309.975ZM327.789 10.9463V73.8696H328.651L328.651 10.9463H327.789ZM345.602 73.8696L345.602 10.9463H346.464V73.8696H345.602ZM366.099 10.9463L366.099 73.8696H366.961V10.9463H366.099Z" fill="#A6A6C7"/>
<path d="M286.606 77.1594L291.442 78.0214L288.09 85.8748L284.93 85.1086L286.606 77.1594Z" fill="#7879FF"/>
<path d="M352.738 78.0214L356.857 77.1594L359.299 84.8213L355.803 85.8748L352.738 78.0214Z" fill="#7879FF"/>
</g>
</svg>
