<svg width="360" height="96" viewBox="0 0 360 96" fill="none" xmlns="http://www.w3.org/2000/svg">
<mask id="mask0" mask-type="alpha" maskUnits="userSpaceOnUse" x="0" y="0" width="360" height="96">
<rect width="360" height="96" fill="#C4C4C4"/>
</mask>
<g mask="url(#mask0)">
<mask id="mask1" mask-type="alpha" maskUnits="userSpaceOnUse" x="0" y="-56" width="360" height="152">
<path d="M360 -56H0V96H360V-56Z" fill="#E5E5E5"/>
</mask>
<g mask="url(#mask1)">
<path d="M636.999 -78.3389H-11.9238V143.461H636.999V-78.3389Z" fill="#E5E5E5"/>
<path d="M79.624 11.3203L94.7846 9.60313L96.9756 24.7101L81.815 26.4273L79.624 11.3203Z" fill="#162929"/>
<path fill-rule="evenodd" clip-rule="evenodd" d="M61.4914 99.76C73.547 96.2508 84.2731 86.8306 93.3087 71.2015L85.4814 66.6763C77.1653 81.0608 68.0539 88.4332 58.9645 91.079C49.8975 93.7182 39.9339 91.9203 29.3329 86.0347L24.9442 93.9394C36.9247 100.591 49.4135 103.276 61.4914 99.76Z" fill="#162929"/>
<path d="M131.155 54L124.241 49.1062L143.386 25.6858L123 24.8375L154.555 -25L162 -20.6305L138.068 17.1217L160.405 17.9956L131.155 54Z" fill="#162929"/>
<path fill-rule="evenodd" clip-rule="evenodd" d="M-37.1934 -5.32422H52.7693V60.1734H-37.1934V-5.32422ZM-34.2747 -2.40558V57.2548H49.8507V-2.40558H-34.2747Z" fill="#162929"/>
<rect x="-32.3867" y="-0.860352" width="79.9191" height="56.3984" fill="white"/>
<circle cx="-4.18612" cy="26.9945" r="19.8725" fill="#162929"/>
<circle cx="35.5056" cy="49.7868" r="2.91864" fill="#E5E5E5"/>
<path fill-rule="evenodd" clip-rule="evenodd" d="M15.9175 15.3857L-25.5811 17.4052L-25.4058 21.0063L16.0927 18.9869L15.9175 15.3857ZM16.2181 34.1967L-25.3027 32.704L-25.4322 36.3071L16.0886 37.7998L16.2181 34.1967Z" fill="#7879FF"/>
<path fill-rule="evenodd" clip-rule="evenodd" d="M-32.4307 55.5068L-32.4307 -0.891602H-31.6581L-31.6581 55.5068H-32.4307ZM-16.4635 55.5068L-16.4635 -0.891602H-15.6909L-15.6909 55.5068H-16.4635ZM-0.496386 -0.891602L-0.496387 55.5068H0.276192L0.276196 -0.891602H-0.496386ZM15.469 55.5068L15.469 -0.891602H16.2416L16.2416 55.5068H15.469ZM-24.4462 -0.891602L-24.4462 55.5068H-23.6736L-23.6736 -0.891602H-24.4462ZM-8.48083 55.5068L-8.48083 -0.891602H-7.70825L-7.70825 55.5068H-8.48083ZM7.48631 -0.891602L7.48631 55.5068H8.25888L8.25889 -0.891602H7.48631ZM23.4534 55.5068L23.4534 -0.891602H24.226L24.226 55.5068H23.4534ZM41.8241 -0.891602V55.5068H42.5967V-0.891602H41.8241ZM-29.7698 55.5068L-29.7698 -0.891602H-28.9972L-28.9972 55.5068H-29.7698ZM-13.8026 -0.891602L-13.8026 55.5068H-13.03L-13.03 -0.891602H-13.8026ZM2.16451 55.5068L2.16451 -0.891602H2.93709L2.93709 55.5068H2.16451ZM18.1316 -0.891602L18.1316 55.5068H18.9042L18.9042 -0.891602H18.1316ZM-21.7853 55.5068L-21.7853 -0.891602H-21.0127L-21.0127 55.5068H-21.7853ZM-5.81993 -0.891602L-5.81994 55.5068H-5.04736L-5.04735 -0.891602H-5.81993ZM10.1472 55.5068L10.1472 -0.891602H10.9198L10.9198 55.5068H10.1472ZM26.1143 -0.891602L26.1143 55.5068H26.8869L26.8869 -0.891602H26.1143ZM44.485 55.5068V-0.891602H45.2576V55.5068H44.485ZM-27.1089 -0.891602L-27.1089 55.5068H-26.3363L-26.3363 -0.891602H-27.1089ZM-11.1417 55.5068L-11.1417 -0.891602H-10.3692L-10.3692 55.5068H-11.1417ZM4.82366 -0.891602L4.82365 55.5068H5.59623L5.59624 -0.891602H4.82366ZM20.7925 55.5068L20.7925 -0.891602H21.5651L21.5651 55.5068H20.7925ZM-19.1244 -0.891602L-19.1244 55.5068H-18.3518L-18.3518 -0.891602H-19.1244ZM-3.15729 55.5068L-3.15729 -0.891602H-2.38471L-2.38471 55.5068H-3.15729ZM12.8081 -0.891602L12.8081 55.5068H13.5807L13.5807 -0.891602H12.8081ZM28.7735 55.5068L28.7735 -0.891602H29.5461L29.5461 55.5068H28.7735ZM47.1459 -0.891602V55.5068H47.9185V-0.891602H47.1459Z" fill="#A6A6C7"/>
<path d="M35.1729 59.2296L38.8641 58.457L41.053 65.3244L37.9198 66.2687L35.1729 59.2296Z" fill="#7879FF"/>
<path fill-rule="evenodd" clip-rule="evenodd" d="M218.491 7.70605H212.531L212.292 13.9256L206.302 13.7475L205.877 19.7073L212.062 19.8912L211.816 26.3012H217.776L218.016 20.0682L224.478 20.2603L224.902 14.3006L218.245 14.1026L218.491 7.70605Z" fill="#162929"/>
<path fill-rule="evenodd" clip-rule="evenodd" d="M357.725 15.8878L326.79 6.80957L324.773 13.3663L350.456 20.2615L344.779 53.5467L351.465 54.5554L357.725 15.8878ZM284.211 21.1011L328.262 30.1832L317.373 72.8817L311.153 71.2005L320.231 35.0549L282.741 27.9939L284.211 21.1011ZM265.426 41.4455L307.288 50.692L296.864 89.8639L283.751 86.5016L291.149 60.2748L263.24 54.8951L265.426 41.4455Z" fill="#162929"/>
<path fill-rule="evenodd" clip-rule="evenodd" d="M152.996 43.5586H242.959V109.056H152.996V43.5586ZM155.915 46.4772V106.138H240.04V46.4772H155.915Z" fill="#162929"/>
<rect x="157.803" y="48.0225" width="79.9191" height="56.3984" fill="white"/>
<circle cx="186.003" cy="75.8774" r="19.8725" fill="#162929"/>
<circle cx="225.695" cy="98.6696" r="2.91864" fill="#E5E5E5"/>
<path fill-rule="evenodd" clip-rule="evenodd" d="M206.108 64.2686L164.609 66.288L164.785 69.8891L206.283 67.8697L206.108 64.2686ZM206.409 83.0796L164.888 81.5868L164.758 85.1899L206.279 86.6826L206.409 83.0796Z" fill="#7879FF"/>
<path fill-rule="evenodd" clip-rule="evenodd" d="M157.76 104.391L157.76 47.9922H158.532L158.532 104.391H157.76ZM173.727 104.391L173.727 47.9922H174.499L174.499 104.391H173.727ZM189.694 47.9922L189.694 104.391H190.467L190.467 47.9922H189.694ZM205.659 104.391L205.659 47.9922H206.432L206.432 104.391H205.659ZM165.744 47.9922L165.744 104.391H166.517L166.517 47.9922H165.744ZM181.71 104.391L181.71 47.9922H182.482L182.482 104.391H181.71ZM197.677 47.9922L197.677 104.391H198.449L198.449 47.9922H197.677ZM213.644 104.391L213.644 47.9922H214.416L214.416 104.391H213.644ZM232.015 47.9922V104.391H232.787V47.9922H232.015ZM160.421 104.391L160.421 47.9922H161.193L161.193 104.391H160.421ZM176.388 47.9922L176.388 104.391H177.16L177.16 47.9922H176.388ZM192.355 104.391L192.355 47.9922H193.128L193.128 104.391H192.355ZM208.322 47.9922L208.322 104.391H209.095L209.095 47.9922H208.322ZM168.405 104.391L168.405 47.9922H169.178L169.178 104.391H168.405ZM184.37 47.9922L184.37 104.391H185.143L185.143 47.9922H184.37ZM200.338 104.391L200.338 47.9922H201.11L201.11 104.391H200.338ZM216.305 47.9922L216.305 104.391H217.077L217.077 47.9922H216.305ZM234.675 104.391V47.9922H235.448V104.391H234.675ZM163.082 47.9922L163.082 104.391H163.854L163.854 47.9922H163.082ZM179.049 104.391L179.049 47.9922H179.821L179.821 104.391H179.049ZM195.014 47.9922L195.014 104.391H195.787L195.787 47.9922H195.014ZM210.983 104.391L210.983 47.9922H211.756L211.756 104.391H210.983ZM171.066 47.9922L171.066 104.391H171.839L171.839 47.9922H171.066ZM187.033 104.391L187.033 47.9922H187.806L187.806 104.391H187.033ZM202.999 47.9922L202.999 104.391H203.771L203.771 47.9922H202.999ZM218.964 104.391L218.964 47.9922H219.736L219.736 104.391H218.964ZM237.336 47.9922V104.391H238.109V47.9922H237.336Z" fill="#A6A6C7"/>
</g>
</g>
</svg>
