<svg width="1920" height="408" viewBox="0 0 1920 408" fill="none" xmlns="http://www.w3.org/2000/svg">
<mask id="mask0" mask-type="alpha" maskUnits="userSpaceOnUse" x="0" y="0" width="1920" height="408">
<path d="M1920 0H0V408H1920V0Z" fill="#E5E5E5"/>
</mask>
<g mask="url(#mask0)">
<path d="M1920 0H0V408H1920V0Z" fill="#E5E5E5"/>
<path d="M1827.79 56.1048C1811.16 113.311 1847.97 154.549 1875.44 174.049" stroke="#162929" stroke-width="14"/>
<path d="M1864.06 86.3913C1860.44 135.51 1899 156.215 1925.72 162.977" stroke="#162929" stroke-width="12"/>
<path d="M856.504 254.968C916.822 358.706 1018.36 365.257 1083.76 348.215" stroke="#162929" stroke-width="19"/>
<path d="M934.606 262.858C1006.48 337.113 1092.75 305.63 1140.64 273.225" stroke="#162929" stroke-width="14"/>
<path d="M442 186.714L473.797 183.112L478.392 214.797L446.595 218.398L442 186.714Z" fill="#162929"/>
<path fill-rule="evenodd" clip-rule="evenodd" d="M403.977 376.394C429.261 369.035 451.757 349.277 470.708 316.498L454.292 307.007C436.85 337.176 417.741 352.639 398.677 358.188C379.661 363.723 358.764 359.952 336.53 347.608L327.326 364.187C352.453 378.137 378.646 383.768 403.977 376.394Z" fill="#162929"/>
<path fill-rule="evenodd" clip-rule="evenodd" d="M1136.45 128H1123.95L1123.45 141.044L1110.89 140.67L1110 153.17L1122.97 153.555L1122.45 167H1134.95L1135.45 153.926L1149.01 154.33L1149.9 141.83L1135.94 141.415L1136.45 128Z" fill="#162929"/>
<path fill-rule="evenodd" clip-rule="evenodd" d="M1728.78 357.879L1636.99 278L1620 297.525L1711.79 377.404L1728.78 357.879ZM1748.01 422.739L1656.59 345.553L1643.59 360.943L1735.02 438.13L1748.01 422.739Z" fill="#162929"/>
<path fill-rule="evenodd" clip-rule="evenodd" d="M353.824 61.8328L271.28 -10L256 7.55792L338.544 79.3908L353.824 61.8328ZM371.116 120.16L288.903 50.7481L277.218 64.5886L359.431 134L371.116 120.16Z" fill="#162929"/>
<path fill-rule="evenodd" clip-rule="evenodd" d="M1411.16 90.0399L1346.28 71L1342.05 84.7515L1395.92 99.213L1384.01 169.023L1398.03 171.138L1411.16 90.0399ZM1256.98 100.975L1349.37 120.023L1326.53 209.575L1313.49 206.049L1332.53 130.24L1253.9 115.431L1256.98 100.975ZM1217.58 143.642L1305.38 163.035L1283.52 245.191L1256.02 238.139L1271.53 183.133L1213 171.85L1217.58 143.642Z" fill="#162929"/>
<path fill-rule="evenodd" clip-rule="evenodd" d="M55.7882 218.457L49.2893 266.613L56.8281 267.683L61.6385 226.748L101.274 233.834L102.622 227.004L55.7882 218.457ZM79.4584 239.53L72.619 285.34L87.2782 286.692L90.9921 256.21L119.812 262.225L122.456 247.84L79.4584 239.53Z" fill="#162929"/>
<path d="M642.663 73.8748L657.95 85.9997L611.048 137.587L657.805 142.054L579.115 252.962L562.54 241.979L622.215 157.969L570.979 153.203L642.663 73.8748Z" fill="#162929"/>
<path fill-rule="evenodd" clip-rule="evenodd" d="M1271 331H1459.68V468.37H1271V331ZM1277.12 337.121V462.248H1453.56V337.121H1277.12Z" fill="#162929"/>
<rect x="1281.08" y="340.363" width="167.616" height="118.285" fill="white"/>
<circle cx="1340.23" cy="398.784" r="41.679" fill="#162929"/>
<path fill-rule="evenodd" clip-rule="evenodd" d="M1382.39 374.437L1295.35 378.672L1295.72 386.225L1382.76 381.989L1382.39 374.437ZM1383.02 413.889L1295.94 410.758L1295.67 418.315L1382.75 421.445L1383.02 413.889Z" fill="#7879FF"/>
<path fill-rule="evenodd" clip-rule="evenodd" d="M1280.99 458.585L1280.99 340.299H1282.61L1282.61 458.585H1280.99ZM1314.48 458.585L1314.48 340.299H1316.1L1316.1 458.585H1314.48ZM1347.97 340.299L1347.97 458.585H1349.59L1349.59 340.299H1347.97ZM1381.45 458.585L1381.45 340.299H1383.07L1383.07 458.585H1381.45ZM1297.73 340.299L1297.73 458.585H1299.35L1299.35 340.299H1297.73ZM1331.22 458.585L1331.22 340.299H1332.84L1332.84 458.585H1331.22ZM1364.71 340.299L1364.71 458.585H1366.33L1366.33 340.299H1364.71ZM1398.2 458.585L1398.2 340.299H1399.82L1399.82 458.585H1398.2ZM1436.72 340.299L1436.72 458.585H1438.34V340.299H1436.72ZM1286.57 458.585L1286.57 340.299H1288.19L1288.19 458.585H1286.57ZM1320.06 340.299L1320.06 458.585H1321.68L1321.68 340.299H1320.06ZM1353.55 458.585L1353.55 340.299H1355.17L1355.17 458.585H1353.55ZM1387.04 340.299L1387.04 458.585H1388.66L1388.66 340.299H1387.04ZM1303.32 458.585L1303.32 340.299H1304.94L1304.94 458.585H1303.32ZM1336.8 340.299L1336.8 458.585H1338.42L1338.42 340.299H1336.8ZM1370.29 458.585L1370.29 340.299H1371.91L1371.91 458.585H1370.29ZM1403.78 340.299L1403.78 458.585H1405.4L1405.4 340.299H1403.78ZM1442.31 458.585L1442.31 340.299H1443.93V458.585H1442.31ZM1292.15 340.3L1292.15 458.586H1293.77L1293.77 340.3L1292.15 340.3ZM1325.64 458.586L1325.64 340.3L1327.26 340.3L1327.26 458.586H1325.64ZM1359.13 340.3L1359.13 458.586H1360.75L1360.75 340.3L1359.13 340.3ZM1392.62 458.586L1392.62 340.3L1394.24 340.3L1394.24 458.586H1392.62ZM1308.9 340.3L1308.9 458.586H1310.52L1310.52 340.3L1308.9 340.3ZM1342.38 458.586L1342.38 340.3L1344.01 340.3L1344.01 458.586H1342.38ZM1375.87 340.3L1375.87 458.586H1377.49L1377.49 340.3L1375.87 340.3ZM1409.36 458.586L1409.36 340.3L1410.98 340.3V458.586H1409.36ZM1447.89 340.3L1447.89 458.586H1449.51V340.3L1447.89 340.3Z" fill="#A6A6C7"/>
<path fill-rule="evenodd" clip-rule="evenodd" d="M4 382H192.681V519.37H4V382ZM10.1213 388.121V513.248H186.559V388.121H10.1213Z" fill="#162929"/>
<rect x="14.082" y="391.363" width="167.616" height="118.285" fill="white"/>
<path fill-rule="evenodd" clip-rule="evenodd" d="M13.9922 509.585L13.9922 391.299H15.6125L15.6125 509.585H13.9922ZM47.4785 509.585L47.4785 391.299H49.0989L49.0989 509.585H47.4785ZM80.9668 391.299L80.9668 509.585H82.5871L82.5872 391.299H80.9668ZM114.453 509.585L114.453 391.299H116.073L116.073 509.585H114.453ZM30.7344 391.299L30.7344 509.585H32.3547L32.3547 391.299H30.7344ZM64.2227 509.585L64.2227 391.299H65.843L65.843 509.585H64.2227ZM97.709 391.299L97.709 509.585H99.3293L99.3293 391.299H97.709ZM131.197 509.585L131.197 391.299H132.818L132.818 509.585H131.197ZM169.725 391.299L169.725 509.585H171.345V391.299H169.725ZM19.5723 509.585L19.5723 391.299H21.1926L21.1926 509.585H19.5723ZM53.0606 391.299L53.0605 509.585H54.6809L54.6809 391.299H53.0606ZM86.5469 509.585L86.5469 391.299H88.1672L88.1672 509.585H86.5469ZM120.035 391.299L120.035 509.585H121.656L121.656 391.299H120.035ZM36.3164 509.585L36.3164 391.299H37.9368L37.9368 509.585H36.3164ZM69.8027 391.299L69.8027 509.585H71.4231L71.4231 391.299H69.8027ZM103.291 509.585L103.291 391.299H104.911L104.911 509.585H103.291ZM136.777 391.299L136.777 509.585H138.398L138.398 391.299H136.777ZM175.307 509.585L175.307 391.299H176.927V509.585H175.307ZM25.1539 391.3L25.1539 509.586H26.7742L26.7742 391.3L25.1539 391.3ZM58.6411 509.586L58.6411 391.3L60.2614 391.3L60.2614 509.586H58.6411ZM92.1283 391.3L92.1283 509.586H93.7486L93.7486 391.3L92.1283 391.3ZM125.615 509.586L125.616 391.3L127.236 391.3L127.236 509.586H125.615ZM41.8975 391.3L41.8975 509.586H43.5178L43.5178 391.3L41.8975 391.3ZM75.3847 509.586L75.3847 391.3L77.005 391.3L77.005 509.586H75.3847ZM108.872 391.3L108.872 509.586H110.492L110.492 391.3L108.872 391.3ZM142.359 509.586L142.359 391.3L143.979 391.3V509.586H142.359ZM180.887 391.3L180.887 509.586H182.508V391.3L180.887 391.3Z" fill="#A6A6C7"/>
<path fill-rule="evenodd" clip-rule="evenodd" d="M197 156H385.681V293.37H197V156ZM203.121 162.121V287.248H379.559V162.121H203.121Z" fill="#162929"/>
<rect x="207.082" y="165.363" width="167.616" height="118.285" fill="white"/>
<circle cx="266.226" cy="223.784" r="41.679" fill="#162929"/>
<circle cx="349.473" cy="271.586" r="6.12132" fill="#E5E5E5"/>
<path fill-rule="evenodd" clip-rule="evenodd" d="M308.389 199.437L221.354 203.672L221.721 211.225L308.757 206.989L308.389 199.437ZM309.02 238.889L221.938 235.758L221.666 243.315L308.748 246.445L309.02 238.889Z" fill="#7879FF"/>
<path fill-rule="evenodd" clip-rule="evenodd" d="M206.992 283.585L206.992 165.299H208.613L208.613 283.585H206.992ZM240.479 283.585L240.479 165.299H242.099L242.099 283.585H240.479ZM273.967 165.299L273.967 283.585H275.587L275.587 165.299H273.967ZM307.453 283.585L307.453 165.299H309.073L309.073 283.585H307.453ZM223.734 165.299L223.734 283.585H225.355L225.355 165.299H223.734ZM257.223 283.585L257.223 165.299H258.843L258.843 283.585H257.223ZM290.709 165.299L290.709 283.585H292.329L292.329 165.299H290.709ZM324.197 283.585L324.197 165.299H325.818L325.818 283.585H324.197ZM362.725 165.299L362.725 283.585H364.345V165.299H362.725ZM212.572 283.585L212.572 165.299H214.193L214.193 283.585H212.572ZM246.061 165.299L246.061 283.585H247.681L247.681 165.299H246.061ZM279.547 283.585L279.547 165.299H281.167L281.167 283.585H279.547ZM313.035 165.299L313.035 283.585H314.656L314.656 165.299H313.035ZM229.316 283.585L229.316 165.299H230.937L230.937 283.585H229.316ZM262.803 165.299L262.803 283.585H264.423L264.423 165.299H262.803ZM296.291 283.585L296.291 165.299H297.911L297.911 283.585H296.291ZM329.777 165.299L329.777 283.585H331.398L331.398 165.299H329.777ZM368.307 283.585L368.307 165.299H369.927V283.585H368.307ZM218.154 165.3L218.154 283.586H219.774L219.774 165.3L218.154 165.3ZM251.641 283.586L251.641 165.3L253.261 165.3L253.261 283.586H251.641ZM285.128 165.3L285.128 283.586H286.749L286.749 165.3L285.128 165.3ZM318.615 283.586L318.616 165.3L320.236 165.3L320.236 283.586H318.615ZM234.897 165.3L234.897 283.586H236.518L236.518 165.3L234.897 165.3ZM268.385 283.586L268.385 165.3L270.005 165.3L270.005 283.586H268.385ZM301.872 165.3L301.872 283.586H303.492L303.492 165.3L301.872 165.3ZM335.359 283.586L335.359 165.3L336.979 165.3V283.586H335.359ZM373.887 165.3L373.887 283.586H375.508V165.3L373.887 165.3Z" fill="#A6A6C7"/>
<path d="M224.455 289.769L233.547 291.389L227.246 306.153L221.305 304.712L224.455 289.769Z" fill="#7879FF"/>
<path d="M348.773 291.389L356.515 289.769L361.106 304.172L354.535 306.153L348.773 291.389Z" fill="#7879FF"/>
<path fill-rule="evenodd" clip-rule="evenodd" d="M1514 105H1702.68V242.37H1514V105ZM1520.12 111.121V236.248H1696.56V111.121H1520.12Z" fill="#162929"/>
<rect x="1524.08" y="114.363" width="167.616" height="118.285" fill="white"/>
<circle cx="1583.23" cy="172.784" r="41.679" fill="#162929"/>
<circle cx="1666.47" cy="220.586" r="6.12132" fill="#E5E5E5"/>
<path fill-rule="evenodd" clip-rule="evenodd" d="M1625.39 148.437L1538.35 152.672L1538.72 160.225L1625.76 155.989L1625.39 148.437ZM1626.02 187.889L1538.94 184.758L1538.67 192.315L1625.75 195.445L1626.02 187.889Z" fill="#7879FF"/>
<path fill-rule="evenodd" clip-rule="evenodd" d="M1523.99 232.585L1523.99 114.299H1525.61L1525.61 232.585H1523.99ZM1557.48 232.585L1557.48 114.299H1559.1L1559.1 232.585H1557.48ZM1590.97 114.299L1590.97 232.585H1592.59L1592.59 114.299H1590.97ZM1624.45 232.585L1624.45 114.299H1626.07L1626.07 232.585H1624.45ZM1540.73 114.299L1540.73 232.585H1542.35L1542.35 114.299H1540.73ZM1574.22 232.585L1574.22 114.299H1575.84L1575.84 232.585H1574.22ZM1607.71 114.299L1607.71 232.585H1609.33L1609.33 114.299H1607.71ZM1641.2 232.585L1641.2 114.299H1642.82L1642.82 232.585H1641.2ZM1679.72 114.299L1679.72 232.585H1681.34V114.299H1679.72ZM1529.57 232.585L1529.57 114.299H1531.19L1531.19 232.585H1529.57ZM1563.06 114.299L1563.06 232.585H1564.68L1564.68 114.299H1563.06ZM1596.55 232.585L1596.55 114.299H1598.17L1598.17 232.585H1596.55ZM1630.04 114.299L1630.04 232.585H1631.66L1631.66 114.299H1630.04ZM1546.32 232.585L1546.32 114.299H1547.94L1547.94 232.585H1546.32ZM1579.8 114.299L1579.8 232.585H1581.42L1581.42 114.299H1579.8ZM1613.29 232.585L1613.29 114.299H1614.91L1614.91 232.585H1613.29ZM1646.78 114.299L1646.78 232.585H1648.4L1648.4 114.299H1646.78ZM1685.31 232.585L1685.31 114.299H1686.93V232.585H1685.31ZM1535.15 114.3L1535.15 232.586H1536.77L1536.77 114.3L1535.15 114.3ZM1568.64 232.586L1568.64 114.3L1570.26 114.3L1570.26 232.586H1568.64ZM1602.13 114.3L1602.13 232.586H1603.75L1603.75 114.3L1602.13 114.3ZM1635.62 232.586L1635.62 114.3L1637.24 114.3L1637.24 232.586H1635.62ZM1551.9 114.3L1551.9 232.586H1553.52L1553.52 114.3L1551.9 114.3ZM1585.38 232.586L1585.38 114.3L1587.01 114.3L1587.01 232.586H1585.38ZM1618.87 114.3L1618.87 232.586H1620.49L1620.49 114.3L1618.87 114.3ZM1652.36 232.586L1652.36 114.3L1653.98 114.3V232.586H1652.36ZM1690.89 114.3L1690.89 232.586H1692.51V114.3L1690.89 114.3Z" fill="#A6A6C7"/>
<path d="M1541.46 238.769L1550.55 240.389L1544.25 255.153L1538.3 253.712L1541.46 238.769Z" fill="#7879FF"/>
<path d="M1665.77 240.389L1673.52 238.769L1678.11 253.172L1671.53 255.153L1665.77 240.389Z" fill="#7879FF"/>
<circle cx="864.226" cy="76.7844" r="41.679" fill="#162929"/>
<path fill-rule="evenodd" clip-rule="evenodd" d="M906.389 52.4365L819.354 56.6719L819.721 64.2246L906.757 59.9892L906.389 52.4365ZM907.02 91.8886L819.938 88.7579L819.666 96.3146L906.748 99.4453L907.02 91.8886Z" fill="#7879FF"/>
<path fill-rule="evenodd" clip-rule="evenodd" d="M795 9H983.681V146.37H795V9ZM801.121 15.1213V140.248H977.559V15.1213H801.121Z" fill="#162929"/>
<circle cx="947.473" cy="124.586" r="6.12132" fill="#E5E5E5"/>
<path fill-rule="evenodd" clip-rule="evenodd" d="M795 9H983.681V146.37H795V9ZM801.121 15.1213V140.248H977.559V15.1213H801.121Z" fill="#162929"/>
<rect x="805.082" y="18.3633" width="167.616" height="118.285" fill="white"/>
<circle cx="864.226" cy="76.7844" r="41.679" fill="#7879FF"/>
<circle cx="947.473" cy="124.586" r="6.12132" fill="#E5E5E5"/>
<rect x="819.354" y="56.6719" width="87.1388" height="7.56163" transform="rotate(-2.78598 819.354 56.6719)" fill="#162929"/>
<rect x="819.938" y="88.7573" width="87.1388" height="7.56163" transform="rotate(2.05895 819.938 88.7573)" fill="#162929"/>
<path fill-rule="evenodd" clip-rule="evenodd" d="M804.992 136.585L804.992 18.2993H806.613L806.613 136.585H804.992ZM838.479 136.585L838.479 18.2993H840.099L840.099 136.585H838.479ZM871.967 18.2993L871.967 136.585H873.587L873.587 18.2993H871.967ZM905.453 136.585L905.453 18.2993H907.073L907.073 136.585H905.453ZM821.734 18.2993L821.734 136.585H823.355L823.355 18.2993H821.734ZM855.223 136.585L855.223 18.2993H856.843L856.843 136.585H855.223ZM888.709 18.2993L888.709 136.585H890.329L890.329 18.2993H888.709ZM922.197 136.585L922.197 18.2993H923.818L923.818 136.585H922.197ZM960.725 18.2993L960.725 136.585H962.345V18.2993H960.725ZM810.572 136.585L810.572 18.2993H812.193L812.193 136.585H810.572ZM844.061 18.2993L844.061 136.585H845.681L845.681 18.2993H844.061ZM877.547 136.585L877.547 18.2993H879.167L879.167 136.585H877.547ZM911.035 18.2993L911.035 136.585H912.656L912.656 18.2993H911.035ZM827.316 136.585L827.316 18.2993H828.937L828.937 136.585H827.316ZM860.803 18.2993L860.803 136.585H862.423L862.423 18.2993H860.803ZM894.291 136.585L894.291 18.2993H895.911L895.911 136.585H894.291ZM927.777 18.2993L927.777 136.585H929.398L929.398 18.2993H927.777ZM966.307 136.585L966.307 18.2993H967.927V136.585H966.307ZM816.154 18.3001L816.154 136.586H817.774L817.774 18.3001L816.154 18.3001ZM849.641 136.586L849.641 18.3001L851.261 18.3001L851.261 136.586H849.641ZM883.128 18.3001L883.128 136.586H884.749L884.749 18.3001L883.128 18.3001ZM916.615 136.586L916.616 18.3001L918.236 18.3001L918.236 136.586H916.615ZM832.897 18.3001L832.897 136.586H834.518L834.518 18.3001L832.897 18.3001ZM866.385 136.586L866.385 18.3001L868.005 18.3001L868.005 136.586H866.385ZM899.872 18.3001L899.872 136.586H901.492L901.492 18.3001L899.872 18.3001ZM933.359 136.586L933.359 18.3001L934.979 18.3001V136.586H933.359ZM971.887 18.3001L971.887 136.586H973.508V18.3001L971.887 18.3001Z" fill="#A6A6C7"/>
<path d="M822.455 142.769L831.547 144.389L825.246 159.153L819.305 157.712L822.455 142.769Z" fill="#7879FF"/>
<path d="M946.773 144.389L954.515 142.769L959.106 157.172L952.535 159.153L946.773 144.389Z" fill="#7879FF"/>
<path d="M822.455 142.769L831.547 144.389L825.246 159.153L819.305 157.712L822.455 142.769Z" fill="#7879FF"/>
<path d="M946.773 144.389L954.515 142.769L959.106 157.172L952.535 159.153L946.773 144.389Z" fill="#7879FF"/>
<circle cx="707.226" cy="418.784" r="41.679" fill="#162929"/>
<path fill-rule="evenodd" clip-rule="evenodd" d="M749.389 394.437L662.354 398.672L662.721 406.225L749.757 401.989L749.389 394.437ZM750.02 433.889L662.938 430.758L662.666 438.315L749.748 441.445L750.02 433.889Z" fill="#7879FF"/>
<path fill-rule="evenodd" clip-rule="evenodd" d="M638 351H826.681V488.37H638V351ZM644.121 357.121V482.248H820.559V357.121H644.121Z" fill="#162929"/>
<path fill-rule="evenodd" clip-rule="evenodd" d="M638 351H826.681V488.37H638V351ZM644.121 357.121V482.248H820.559V357.121H644.121Z" fill="#162929"/>
<rect x="648.082" y="360.363" width="167.616" height="118.285" fill="white"/>
<circle cx="707.226" cy="418.784" r="41.679" fill="#7879FF"/>
<rect x="662.354" y="398.672" width="87.1388" height="7.56163" transform="rotate(-2.78598 662.354 398.672)" fill="#162929"/>
<path fill-rule="evenodd" clip-rule="evenodd" d="M647.992 478.585L647.992 360.299H649.613L649.613 478.585H647.992ZM681.479 478.585L681.479 360.299H683.099L683.099 478.585H681.479ZM714.967 360.299L714.967 478.585H716.587L716.587 360.299H714.967ZM748.453 478.585L748.453 360.299H750.073L750.073 478.585H748.453ZM664.734 360.299L664.734 478.585H666.355L666.355 360.299H664.734ZM698.223 478.585L698.223 360.299H699.843L699.843 478.585H698.223ZM731.709 360.299L731.709 478.585H733.329L733.329 360.299H731.709ZM765.197 478.585L765.197 360.299H766.818L766.818 478.585H765.197ZM803.725 360.299L803.725 478.585H805.345V360.299H803.725ZM653.572 478.585L653.572 360.299H655.193L655.193 478.585H653.572ZM687.061 360.299L687.061 478.585H688.681L688.681 360.299H687.061ZM720.547 478.585L720.547 360.299H722.167L722.167 478.585H720.547ZM754.035 360.299L754.035 478.585H755.656L755.656 360.299H754.035ZM670.316 478.585L670.316 360.299H671.937L671.937 478.585H670.316ZM703.803 360.299L703.803 478.585H705.423L705.423 360.299H703.803ZM737.291 478.585L737.291 360.299H738.911L738.911 478.585H737.291ZM770.777 360.299L770.777 478.585H772.398L772.398 360.299H770.777ZM809.307 478.585L809.307 360.299H810.927V478.585H809.307ZM659.154 360.3L659.154 478.586H660.774L660.774 360.3L659.154 360.3ZM692.641 478.586L692.641 360.3L694.261 360.3L694.261 478.586H692.641ZM726.128 360.3L726.128 478.586H727.749L727.749 360.3L726.128 360.3ZM759.615 478.586L759.616 360.3L761.236 360.3L761.236 478.586H759.615ZM675.897 360.3L675.897 478.586H677.518L677.518 360.3L675.897 360.3ZM709.385 478.586L709.385 360.3L711.005 360.3L711.005 478.586H709.385ZM742.872 360.3L742.872 478.586H744.492L744.492 360.3L742.872 360.3ZM776.359 478.586L776.359 360.3L777.979 360.3V478.586H776.359ZM814.887 360.3L814.887 478.586H816.508V360.3L814.887 360.3Z" fill="#A6A6C7"/>
</g>
</svg>
