<svg width="1361" height="345" viewBox="0 0 1361 345" fill="none" xmlns="http://www.w3.org/2000/svg">
<mask id="mask0" mask-type="alpha" maskUnits="userSpaceOnUse" x="0" y="0" width="1361" height="345">
<rect width="1361" height="345" fill="#C4C4C4"/>
</mask>
<g mask="url(#mask0)">
<mask id="mask1" mask-type="alpha" maskUnits="userSpaceOnUse" x="0" y="-63" width="1361" height="408">
<path d="M1361 -63H0V345H1361V-63Z" fill="#E5E5E5"/>
</mask>
<g mask="url(#mask1)">
<path d="M1361 -63H0V345H1361V-63Z" fill="#E5E5E5"/>
<path d="M998.43 115.4C998.43 115.4 979.501 119.438 972.503 139.172C966.311 156.627 972.503 169.534 972.503 169.534" stroke="#162929" stroke-width="5.803" stroke-miterlimit="10"/>
<path d="M987.44 101.348C961.138 106.485 945.736 139.773 954.242 164.135" stroke="#162929" stroke-width="5.803" stroke-miterlimit="10"/>
<path d="M976.665 81.2163C952.655 81.704 934.179 98.0587 928.645 118.859" stroke="#162929" stroke-width="6.7702" stroke-miterlimit="10"/>
<path d="M602.64 121.547V171.519" stroke="#162929" stroke-width="2" stroke-miterlimit="10"/>
<path d="M49.8477 287.771V439.398H59.1818V433.364H104.855C104.855 433.364 98.5488 417.758 82.9426 417.758V385.842L121.606 439.398L130.476 433.012L127.799 428.68L167.166 401.017C167.166 401.017 157.072 390.095 142.18 398.25L69.2986 291.922L49.8477 287.771Z" fill="white" stroke="#162929" stroke-width="2" stroke-miterlimit="10"/>
<path d="M87.7175 392.454L49.8477 340.827" stroke="#162929" stroke-width="2" stroke-miterlimit="10"/>
<path d="M96.5976 244.23L140.218 248.222L149.257 370.939L80.2656 371.824L96.5976 244.23Z" fill="white" stroke="#162929" stroke-width="2" stroke-miterlimit="10"/>
<path d="M125.269 203.287L139.106 251.5L84.8135 248.415L125.269 203.287Z" fill="white" stroke="#162929" stroke-width="2" stroke-miterlimit="10"/>
<path d="M117.875 244.23L112.907 298.409H118.941L121.504 244.23H117.875Z" fill="#162929"/>
<path d="M132.948 245.024L162.028 308.027L168.414 304.613L138.086 242.188L132.948 245.024Z" fill="#162929"/>
<path d="M49.4168 301.778C49.3828 301.778 49.2354 330.155 49.2354 330.155C49.224 331.357 53.4545 334.056 54.3505 334.691C66.1458 342.982 82.4665 346.373 96.6095 347.145C105.853 347.644 115.085 347.315 124.329 347.315C129.262 347.315 134.128 347.496 138.959 348.097C140.933 348.335 142.668 348.744 144.46 349.254C146.241 349.764 148.067 350.411 150.154 351.103C151.855 351.67 153.692 350.751 154.259 349.05C154.826 347.349 153.908 345.511 152.206 344.944C150.176 344.264 148.271 343.595 146.263 343.016C144.256 342.438 142.135 341.939 139.753 341.655C137.235 341.349 134.74 341.145 132.245 341.02L132.563 340.079C135.477 340.271 138.438 340.646 141.443 341.065C143.451 341.349 145.209 341.746 147.001 342.256C148.793 342.767 150.619 343.39 152.683 344.082C154.384 344.649 156.221 343.731 156.788 342.029C157.355 340.328 156.437 338.491 154.736 337.924C152.694 337.243 150.777 336.585 148.77 336.018C146.762 335.451 144.675 334.964 142.328 334.635C139.833 334.294 137.303 333.954 134.718 333.739L134.933 333.115C137.814 333.308 140.751 333.682 143.723 334.09C145.73 334.374 147.488 334.771 149.28 335.281C151.072 335.792 152.898 336.415 154.962 337.107C156.664 337.674 158.501 336.756 159.068 335.054C159.635 333.353 158.716 331.516 157.015 330.949C154.974 330.268 153.057 329.61 151.05 329.043C149.042 328.476 146.955 327.988 144.607 327.66C142.146 327.319 139.64 326.99 137.088 326.764L137.247 326.287C139.81 326.446 142.362 326.684 144.902 327.047C146.91 327.331 148.668 327.728 150.46 328.238C152.252 328.748 154.078 329.372 156.142 330.064C157.843 330.631 159.681 329.712 160.248 328.011C160.815 326.31 159.896 324.473 158.195 323.905C156.153 323.225 154.237 322.567 152.229 322C150.222 321.433 148.135 320.945 145.787 320.616C142.952 320.219 140.105 320.004 137.247 319.777C141.352 319.278 153.874 319.766 151.741 312.394C151.05 310.001 148.532 310.863 146.581 311.441C142.725 312.598 138.801 311.01 134.888 311.01C134.525 311.01 134.162 311.021 133.787 311.044C131.871 311.169 129.931 311.702 127.992 312.507C125.088 313.732 122.208 315.569 119.883 317.951C119.316 318.529 118.782 319.153 118.295 319.8C74.4252 323.769 49.4168 301.778 49.4168 301.778Z" fill="#162929"/>
<path d="M89.1463 269.239H84.5983C81.9103 261.401 74.4929 255.765 65.7371 255.765C54.7243 255.765 45.7871 264.702 45.7871 275.715C45.7871 286.727 54.7243 295.665 65.7371 295.665C76.7499 295.665 85.6871 286.727 85.6871 275.715C85.6871 274.535 85.5623 273.39 85.3695 272.255L89.1463 269.239Z" fill="white" stroke="#162929" stroke-width="2" stroke-miterlimit="10"/>
<path d="M85.2108 280.013C85.2108 280.013 82.5796 283.336 75.3096 282.803" stroke="#162929" stroke-width="2" stroke-miterlimit="10"/>
<path d="M76.1488 258.691L54.9172 275.715L64.1379 284.266L59.7034 288.837C59.7034 288.837 58.2856 282.747 54.9172 282.86C51.5487 282.985 49.8474 287.771 49.8474 287.771C49.8474 287.771 39.708 275.17 52.2746 260.982C52.2746 260.982 58.8754 256.128 64.5009 255.878C70.1717 255.629 76.1941 258.237 76.1488 258.691Z" fill="#162929"/>
<path d="M73.1889 271.28C74.3665 271.28 75.3211 270.325 75.3211 269.148C75.3211 267.97 74.3665 267.016 73.1889 267.016C72.0113 267.016 71.0566 267.97 71.0566 269.148C71.0566 270.325 72.0113 271.28 73.1889 271.28Z" fill="#162929"/>
<path d="M433.536 339.522L385.821 350.161" stroke="#162929" stroke-width="2" stroke-miterlimit="10"/>
<path d="M474.219 380.716C475.693 377.756 479.288 376.553 482.249 378.028L492.74 383.256L498.081 372.516L433.536 339.534V278.89L425.461 246.896L401.836 251.058L385.822 350.184C385.822 350.184 383.962 383.699 377.157 391.944C370.352 400.189 362.946 400.189 353.895 407.641C344.844 415.092 345.922 428.101 345.922 428.101H381.296V416.941C381.296 414.14 383.565 411.883 386.355 411.883H386.366C389.666 411.883 392.354 414.559 392.354 417.871V428.113H406.838L410.819 344.593C410.717 349.027 411.59 364.985 423.589 375.442C437.959 387.94 448.326 382.893 454.983 387.68C461.629 392.466 459.769 402.571 461.096 412.688C462.423 422.793 470.408 428.113 470.408 428.113L487.806 393.158L476.487 387.521C473.98 386.262 472.96 383.222 474.219 380.716Z" fill="white" stroke="#162929" stroke-width="2" stroke-miterlimit="10"/>
<path d="M316.218 339.523L331.019 300.417L348.61 313.187L322.24 339.919L316.218 339.523Z" fill="#162929"/>
<path d="M316.218 339.523L341.135 304.148L391.674 341.122L365.996 375.703L316.218 339.523Z" fill="white" stroke="#162929" stroke-width="2" stroke-miterlimit="10"/>
<path d="M379.243 204.001L359.339 190.244" stroke="#162929" stroke-width="5.6289" stroke-miterlimit="10"/>
<path d="M393.148 194.451L386.229 175.749" stroke="#162929" stroke-width="5.6289" stroke-miterlimit="10"/>
<path d="M415.344 188.973L426.515 168.819" stroke="#162929" stroke-width="5.6289" stroke-miterlimit="10"/>
<path d="M435.294 207.392L450.197 196.3" stroke="#162929" stroke-width="5.6289" stroke-miterlimit="10"/>
<path d="M401.824 251.035C401.824 251.035 401.246 266.902 373.311 298.285C373.311 298.285 358.976 314.401 350.458 321.853L372.506 338.718C372.506 338.718 402.505 313.641 419.291 278.698L407.291 250.071L401.824 251.035Z" fill="white" stroke="#162929" stroke-width="2" stroke-miterlimit="10"/>
<path d="M504.637 310.964L498.887 273.299" stroke="#162929" stroke-width="3.517" stroke-miterlimit="10"/>
<path d="M337.54 339.58C337.552 339.568 341.578 336.404 346.5 332.287C348.961 330.223 351.661 327.932 354.201 325.652C356.742 323.372 359.135 321.138 361.018 319.142C362.231 317.86 362.174 315.842 360.893 314.628C359.611 313.414 357.592 313.471 356.379 314.753C354.7 316.533 352.409 318.688 349.937 320.889C346.239 324.2 342.134 327.626 338.969 330.211C337.381 331.504 336.032 332.593 335.079 333.353C334.603 333.739 334.228 334.034 333.968 334.238C333.707 334.442 333.571 334.544 333.571 334.544C332.187 335.633 331.949 337.64 333.038 339.024C334.149 340.43 336.157 340.668 337.54 339.58Z" fill="#162929"/>
<path d="M342.632 345.364C342.643 345.352 346.67 342.188 351.592 338.071C354.053 336.007 356.752 333.716 359.293 331.436C361.834 329.157 364.227 326.922 366.109 324.926C367.323 323.644 367.266 321.626 365.985 320.412C364.703 319.199 362.684 319.255 361.471 320.537C359.792 322.318 357.501 324.472 355.028 326.673C351.331 329.984 347.225 333.41 344.061 335.996C342.473 337.289 341.124 338.377 340.171 339.137C339.695 339.523 339.32 339.818 339.059 340.022C338.799 340.226 338.662 340.328 338.662 340.328C337.279 341.417 337.041 343.424 338.129 344.808C339.241 346.203 341.248 346.453 342.632 345.364Z" fill="#162929"/>
<path d="M347.725 351.137C347.736 351.125 351.762 347.961 356.685 343.844C359.146 341.78 361.845 339.489 364.386 337.209C366.926 334.93 369.319 332.695 371.202 330.699C372.416 329.417 372.359 327.399 371.077 326.185C369.796 324.972 367.777 325.028 366.563 326.31C364.885 328.09 362.594 330.245 360.121 332.446C356.424 335.757 352.318 339.183 349.154 341.769C347.566 343.061 346.216 344.15 345.264 344.91C344.787 345.296 344.413 345.591 344.152 345.795C343.891 345.999 343.755 346.101 343.755 346.101C342.372 347.19 342.133 349.197 343.222 350.581C344.334 351.987 346.341 352.237 347.725 351.137Z" fill="#162929"/>
<path d="M352.818 356.921C352.829 356.91 356.855 353.745 361.778 349.628C364.239 347.564 366.938 345.273 369.479 342.993C372.019 340.714 374.412 338.479 376.295 336.483C377.508 335.202 377.452 333.183 376.17 331.969C374.889 330.756 372.87 330.812 371.656 332.094C369.978 333.875 367.687 336.03 365.214 338.23C361.517 341.542 357.411 344.967 354.247 347.553C352.659 348.846 351.309 349.934 350.356 350.694C349.88 351.08 349.506 351.375 349.245 351.579C348.984 351.783 348.848 351.885 348.848 351.885C347.464 352.974 347.226 354.982 348.315 356.365C349.426 357.772 351.434 358.01 352.818 356.921Z" fill="#162929"/>
<path d="M368.594 304.148C368.253 304.057 366.269 303.388 364.511 303.388C361.482 303.388 359.225 303.887 356.878 304.976C354.859 305.917 353.203 307.188 351.978 308.231C350.765 309.274 350.005 310.102 349.948 310.159C349.869 310.25 349.8 310.352 349.732 310.443C349.857 310.533 354.723 314.151 355.12 314.39C358.84 312.927 359.906 316.941 362.14 314.174C363.501 312.484 368.095 309.592 368.378 307.029C368.582 305.203 370.181 304.59 368.594 304.148Z" fill="#162929"/>
<path d="M408.403 200.451C394.52 200.451 383.269 211.974 383.269 226.197C383.269 228.51 383.576 230.745 384.131 232.877L377.156 234.34L385.322 236.393C389.178 245.546 398.059 251.942 408.403 251.942C422.285 251.942 433.536 240.419 433.536 226.197C433.536 211.974 422.285 200.451 408.403 200.451Z" fill="white" stroke="#162929" stroke-width="2" stroke-miterlimit="10"/>
<path d="M389.689 243.368C389.689 243.368 395.927 242.268 398.581 238.888" stroke="#162929" stroke-width="2" stroke-miterlimit="10"/>
<path d="M384.29 218.95H404.977C404.977 218.95 402.845 223.577 404.977 229.146C406.429 232.934 409.083 235.429 409.038 239.694C408.992 243.538 406.576 248.064 405.669 251.772C403.786 259.496 402.845 265.564 410.297 273.276C419.597 282.905 433.536 278.868 433.536 278.868L433.411 223.543C433.411 223.543 432.515 212.451 423.271 205.09C408.879 193.658 389.587 203.207 384.29 218.95Z" fill="#162929" stroke="#162929" stroke-width="2" stroke-miterlimit="10"/>
<path d="M393.931 230.711C395.177 230.711 396.188 229.7 396.188 228.454C396.188 227.207 395.177 226.197 393.931 226.197C392.684 226.197 391.674 227.207 391.674 228.454C391.674 229.7 392.684 230.711 393.931 230.711Z" fill="#162929"/>
<path d="M381.682 288.36L402.415 306.258L392.048 319.074L378.382 333.398L372.518 338.729L349.914 321.433L369.195 302.583L381.682 288.36Z" fill="#162929"/>
<path d="M565.212 26.3452C565.212 26.3452 582.735 35.8495 583.359 62.2302C583.983 88.611 560.834 107.234 543.277 109.355C525.72 111.487 497.253 107.914 477.836 76.0444H527.229H548.869V32.0387L565.212 26.3452Z" fill="#162929"/>
<path d="M548.868 59.6554C548.868 59.6554 545.148 46.4878 528.657 45.8753C512.167 45.2515 513.233 66.4718 513.233 66.4718H528.657H538.479V76.0555H548.88V59.6554H548.868Z" fill="#162929"/>
<path d="M538.468 53.2363C538.468 53.2363 537.425 56.2872 529.44 57.9545C521.456 59.6217 520.571 61.9127 521.082 66.4721" stroke="white" stroke-width="0.9382" stroke-miterlimit="10"/>
<path d="M530.234 95.0755C530.234 95.0755 533.172 89.0417 528.646 86.297C524.121 83.5523 519.335 84.6638 515.343 80.354C511.35 76.0442 513.199 74.876 513.199 74.876H499.918L515.547 92.3195" stroke="white" stroke-width="0.9382" stroke-miterlimit="10"/>
<path d="M486.909 74.082C486.909 74.082 482.52 77.9382 489.836 82.3047C496.709 86.4104 497.684 87.3518 500.338 92.6824" stroke="white" stroke-width="0.9382" stroke-miterlimit="10"/>
<path d="M576.781 86.2974L576.1 120.561L610.091 122.216V171.167C610.091 171.167 597.99 173.299 592.75 163.364C587.522 153.429 587.522 144.038 578.301 141.815C569.08 139.603 554.891 141.123 554.007 128.829V106.565L576.781 86.2974Z" fill="white" stroke="#162929" stroke-width="2" stroke-miterlimit="10"/>
<path d="M554.006 128.829V168.683C554.006 168.683 506.224 168.683 506.179 168.683C505.385 168.683 506.575 160.098 506.746 159.508C510.364 147.202 527.989 150.764 532.65 138.515C535.746 130.371 535.565 109.854 535.565 109.854L554.006 103.866V128.829Z" fill="white" stroke="#162929" stroke-width="2" stroke-miterlimit="10"/>
<path d="M554.007 163.715H506.179" stroke="#162929" stroke-width="2" stroke-miterlimit="10"/>
<path d="M554.006 147.032H523.463" stroke="#162929" stroke-width="2" stroke-miterlimit="10"/>
<path d="M586.591 121.899V148.813" stroke="#162929" stroke-width="2" stroke-miterlimit="10"/>
<path d="M528.646 66.4719V76.0443H450.706L448.574 15.6953H508.969V66.4719H528.646Z" fill="#162929"/>
<path d="M503.117 66.472H455.731L454.166 21.5703H503.117V66.472Z" fill="white"/>
<path d="M532.616 74.9784H547.769V45.4106" stroke="white" stroke-width="2" stroke-miterlimit="10"/>
<path d="M526.786 21.5703L531.153 16.9656C530.654 15.1963 530.37 13.3363 530.37 11.4082C530.37 0.0211792 539.602 -9.21094 550.989 -9.21094C562.376 -9.21094 571.608 0.0211792 571.608 11.4082C571.608 22.7952 562.376 32.0274 550.989 32.0274C543.3 32.0274 536.608 27.8083 533.058 21.559H526.786V21.5703Z" fill="white" stroke="#162929" stroke-width="2" stroke-miterlimit="10"/>
<path d="M538.468 27.7969L545.67 21.5703" stroke="#162929" stroke-width="2" stroke-miterlimit="10"/>
<path d="M532.321 2.68645H553.394V16.7841C553.394 16.7841 555.787 8.27789 559.507 9.74097C563.227 11.204 557.908 21.5817 557.908 21.5817H568.932C568.932 21.5817 574.172 15.3891 570.168 3.85464C568.297 -1.53265 564.067 -5.61565 558.827 -7.73654C548.404 -11.933 537.709 -6.60238 532.321 2.68645Z" fill="#162929"/>
<path d="M540.748 14.7882C541.481 14.7882 542.075 14.1941 542.075 13.4612C542.075 12.7284 541.481 12.1343 540.748 12.1343C540.015 12.1343 539.421 12.7284 539.421 13.4612C539.421 14.1941 540.015 14.7882 540.748 14.7882Z" fill="#162929" stroke="#162929" stroke-width="2" stroke-miterlimit="10"/>
<path d="M1214.03 323.214C1213.24 323.996 1186.54 328.816 1186.54 328.816L1183.58 454.074C1183.58 454.074 1162.43 453.541 1157.64 469.238H1204.02C1204.51 465.461 1207.01 462.591 1210.04 462.591C1213.07 462.591 1215.58 465.472 1216.06 469.238H1226.2V336.767C1226.2 336.755 1214.83 322.431 1214.03 323.214Z" fill="white" stroke="#162929" stroke-width="2" stroke-miterlimit="10"/>
<path d="M1191.29 336.687C1190.21 337.243 1189.47 337.787 1188.9 338.252C1187.8 339.194 1187.31 339.84 1186.94 340.328C1186.58 340.816 1186.37 341.156 1186.2 341.439C1185.88 341.984 1185.74 342.279 1185.62 342.528C1185.41 342.993 1185.32 343.22 1185.24 343.424C1185.08 343.81 1184.99 344.059 1184.86 344.366C1184.65 344.921 1184.38 345.579 1184 346.384C1183.36 347.779 1182.41 349.549 1181.1 351.386C1180.11 352.758 1178.92 354.176 1177.5 355.514C1175.37 357.522 1172.74 359.348 1169.28 360.754C1165.81 362.149 1161.45 363.147 1155.66 363.147C1153.94 363.147 1135.94 362.637 1135.94 362.637L1136.85 387.623C1136.85 387.623 1147.2 388.53 1154.74 387.872C1166.32 386.851 1174.38 385.524 1181.45 382.122C1186.75 379.581 1191.11 376.372 1194.61 373.026C1199.85 368.002 1203.16 362.728 1205.23 358.69C1206.27 356.671 1207 354.947 1207.47 353.768C1207.69 353.189 1207.88 352.736 1207.92 352.622L1207.93 352.611L1202.87 350.547L1207.88 352.724L1207.92 352.611L1202.86 350.547L1207.87 352.724L1199.19 348.959L1207.74 352.997C1207.81 352.86 1207.84 352.781 1207.87 352.724L1199.19 348.959L1207.74 352.997L1197.84 348.312L1207.54 353.405C1207.63 353.223 1207.69 353.099 1207.74 352.997L1197.84 348.312L1207.54 353.405L1197.09 347.916L1206.71 354.755C1207.21 354.051 1207.39 353.677 1207.54 353.405L1197.09 347.916L1206.71 354.755L1196.84 347.734L1205.52 356.184C1206.12 355.56 1206.46 355.106 1206.72 354.743L1196.85 347.723L1205.53 356.172L1196.81 347.666L1204.33 357.25C1204.84 356.841 1205.22 356.49 1205.53 356.172L1196.81 347.666L1204.33 357.25L1196.78 347.655L1202.24 358.577C1203.15 358.123 1203.8 357.658 1204.32 357.261L1196.77 347.666L1202.23 358.588C1208.27 355.571 1210.72 348.21 1207.71 342.177C1204.69 336.143 1197.34 333.659 1191.29 336.687Z" fill="#162929"/>
<path d="M1199.52 278.799C1184.77 278.799 1172.83 290.753 1172.83 305.486C1172.83 305.94 1172.84 306.382 1172.86 306.825L1166.33 309.705L1173.51 311.429C1176.22 323.304 1186.84 332.162 1199.53 332.162C1214.27 332.162 1226.22 320.208 1226.22 305.475C1226.22 290.742 1214.26 278.799 1199.52 278.799Z" fill="white" stroke="#162929" stroke-width="2" stroke-miterlimit="10"/>
<path d="M1175.9 293.045H1203.4C1203.4 293.045 1183.58 343.141 1226.22 343.674V302.084C1226.22 302.084 1225.37 287.238 1208.61 280.387C1191.86 273.537 1179.09 287.896 1175.9 293.045Z" fill="#162929" stroke="#162929" stroke-width="2" stroke-miterlimit="10"/>
<path d="M1184.54 311.463C1188.71 311.463 1192.08 308.087 1192.08 303.921C1192.08 299.756 1188.71 296.379 1184.54 296.379C1180.38 296.379 1177 299.756 1177 303.921C1177 308.087 1180.38 311.463 1184.54 311.463Z" fill="#162929"/>
<path d="M1172.83 303.921H1226.2" stroke="#162929" stroke-width="4.6908" stroke-miterlimit="10"/>
<path d="M1177.07 319.913C1177.07 319.913 1184.77 321.41 1190.09 318.212" stroke="#162929" stroke-width="2" stroke-miterlimit="10"/>
<path d="M1025.57 106.236C1025.31 108.096 1025.79 110.307 1026.58 111.714C1028.79 115.627 1032.65 115.536 1036.03 117.623C1036.35 117.827 1036.42 117.929 1036.47 117.997C1036.5 118.065 1036.58 118.167 1036.62 118.678C1036.7 120.764 1038.47 122.398 1040.55 122.307C1042.64 122.216 1044.27 120.458 1044.18 118.371C1044.09 116.046 1043.05 113.653 1041.22 112.054C1039.11 110.205 1036.3 110.239 1034.08 108.742C1032.39 107.608 1033 105.34 1031.8 103.933C1029.62 101.381 1025.98 103.4 1025.57 106.236Z" fill="white" stroke="#162929" stroke-width="2" stroke-miterlimit="10"/>
<path d="M1088.53 171.632L1038.14 237.334L992.736 200.247C992.736 200.247 1007.89 186.717 1024.45 195.699L1068.01 137.437L1088.53 171.632Z" fill="white" stroke="#162929" stroke-width="2" stroke-miterlimit="10"/>
<path d="M998.294 196.833L1042.31 232.038" stroke="#162929" stroke-width="2" stroke-miterlimit="10"/>
<path d="M1044.25 169.692L1072.72 192.727" stroke="#162929" stroke-width="2" stroke-miterlimit="10"/>
<path d="M1047.48 164.884L1076.45 187.386" stroke="#162929" stroke-width="2" stroke-miterlimit="10"/>
<path d="M1070.1 98.3195C1087.36 98.3195 1101.36 84.3249 1101.36 67.0618C1101.36 49.7987 1087.36 35.8042 1070.1 35.8042C1052.83 35.8042 1038.84 49.7987 1038.84 67.0618C1038.84 84.3249 1052.83 98.3195 1070.1 98.3195Z" fill="white" stroke="#162929" stroke-width="2" stroke-miterlimit="10"/>
<path d="M1070.1 35.8042V98.3081" stroke="#162929" stroke-width="2" stroke-miterlimit="10"/>
<path d="M1053.87 67.0617C1053.87 67.9009 1053.92 68.6835 1054.02 69.4321C1052.3 70.0218 1049.27 71.0199 1049.27 71.0199L1054.63 72.4263C1057.81 82.9627 1070.11 83.6545 1070.11 83.6545V50.0151C1070.1 50.0151 1053.87 51.3648 1053.87 67.0617Z" stroke="#162929" stroke-width="2" stroke-miterlimit="10"/>
<path d="M1059.69 68.2185C1060.33 68.2185 1060.84 67.7005 1060.84 67.0616C1060.84 66.4227 1060.33 65.9048 1059.69 65.9048C1059.05 65.9048 1058.53 66.4227 1058.53 67.0616C1058.53 67.7005 1059.05 68.2185 1059.69 68.2185Z" fill="#162929"/>
<path d="M1084.8 89.0649C1084.8 89.0649 1119.42 85.2427 1133.5 95.2574C1147.57 105.272 1149.38 117.351 1148.3 142.677H1117.27L1117.01 115.877H1085.55L1084.8 89.0649Z" fill="white" stroke="#162929" stroke-width="2" stroke-miterlimit="10"/>
<path d="M1117.03 118.519C1117.03 118.519 1111.04 120.504 1110.77 129.396C1110.5 138.288 1117.03 138.004 1117.03 138.004" stroke="#162929" stroke-width="2" stroke-miterlimit="10"/>
<path d="M1085.55 90.3804L1143.39 217.974L1088.46 242.835C1088.46 242.835 1074.11 222.556 1099.42 208.753L1063.77 136.371L1085.55 90.3804Z" fill="white" stroke="#162929" stroke-width="2" stroke-miterlimit="10"/>
<path d="M1059.07 79.2655C1059.07 79.2655 1062.79 78.8799 1064.32 75.9878" stroke="#162929" stroke-width="2" stroke-miterlimit="10"/>
<path d="M1085.06 237.073L1140.72 212.099" stroke="#162929" stroke-width="2" stroke-miterlimit="10"/>
<path d="M1088.53 187.385L1122.67 172.879" stroke="#162929" stroke-width="2" stroke-miterlimit="10"/>
<path d="M1085.56 180.615L1119.8 165.927" stroke="#162929" stroke-width="2" stroke-miterlimit="10"/>
<path d="M1117.01 115.865L1137.71 98.6826" stroke="#162929" stroke-width="2" stroke-miterlimit="10"/>
<path d="M1085.56 89.0645V129.395C1085.56 129.395 1086.1 148.018 1074.74 150.729C1063.37 153.44 1017.37 150.729 1017.37 150.729V117.18H1056.6C1056.6 117.18 1053.71 101.257 1065.8 94.361C1076.08 88.4861 1085.56 89.0645 1085.56 89.0645Z" fill="white" stroke="#162929" stroke-width="2" stroke-miterlimit="10"/>
<path d="M1017.36 125.381H1024.39" stroke="#162929" stroke-width="2" stroke-miterlimit="10"/>
<path d="M1017.36 134.023H1024.39" stroke="#162929" stroke-width="2" stroke-miterlimit="10"/>
<path d="M1017.36 142.666H1024.39" stroke="#162929" stroke-width="2" stroke-miterlimit="10"/>
<path d="M1056.6 117.169L1080.43 147.225" stroke="#162929" stroke-width="2" stroke-miterlimit="10"/>
<path d="M1124.11 142.665V124.757C1124.11 122.965 1122.55 121.513 1120.65 121.513C1118.73 121.513 1117.19 122.965 1117.19 124.757V142.665C1117.19 144.457 1118.74 145.909 1120.65 145.909C1122.55 145.92 1124.11 144.457 1124.11 142.665Z" stroke="#162929" stroke-width="2" stroke-miterlimit="10"/>
<path d="M1131.89 142.665V124.757C1131.89 122.965 1130.33 121.513 1128.43 121.513C1126.51 121.513 1124.97 122.965 1124.97 124.757V142.665C1124.97 144.457 1126.52 145.909 1128.43 145.909C1130.34 145.92 1131.89 144.457 1131.89 142.665Z" stroke="#162929" stroke-width="2" stroke-miterlimit="10"/>
<path d="M1139.68 142.665V124.757C1139.68 122.965 1138.13 121.513 1136.22 121.513C1134.3 121.513 1132.76 122.965 1132.76 124.757V142.665C1132.76 144.457 1134.31 145.909 1136.22 145.909C1138.13 145.92 1139.68 144.457 1139.68 142.665Z" stroke="#162929" stroke-width="2" stroke-miterlimit="10"/>
<path d="M1147.47 142.665V124.757C1147.47 122.965 1145.92 121.513 1144.01 121.513C1142.11 121.513 1140.55 122.965 1140.55 124.757V142.665C1140.55 144.457 1142.11 145.909 1144.01 145.909C1145.92 145.909 1147.47 144.457 1147.47 142.665Z" stroke="#162929" stroke-width="2" stroke-miterlimit="10"/>
<path d="M1054.34 62.6611H1070.1V50.0151L1065.16 51.1947L1060.64 53.497L1058.52 56.3438L1054.34 62.6611Z" fill="#162929"/>
<path d="M776.939 13.8584V144.469H736.041V196.368C736.041 196.368 757.726 199.986 762.649 175.999C762.649 175.999 808.639 186.513 809.127 140.193H835.575V187.499H884.197C884.197 187.499 883.21 166.801 864.814 165.156C864.814 165.156 873.026 115.548 830.982 107.994V55.4369C830.982 55.4369 832.525 27.4344 806.79 23.8844C781.045 20.3458 776.939 13.8584 776.939 13.8584Z" fill="white" stroke="#162929" stroke-width="2" stroke-miterlimit="10"/>
<path d="M845.022 74.2184L857.884 34.4092L865.143 36.7909L836.641 130.337L826.048 128.035L845.022 74.2184Z" fill="#162929"/>
<path d="M824.744 11.0344L819.47 8.41445C819.606 7.42772 819.675 6.42966 819.675 5.42025C819.675 -6.84009 809.739 -16.7754 797.479 -16.7754C785.219 -16.7754 775.283 -6.84009 775.283 5.42025C775.283 17.6806 785.219 27.6159 797.479 27.6159C807.074 27.6159 815.251 21.5254 818.347 12.9965L824.744 11.0344Z" fill="white" stroke="#162929" stroke-width="2" stroke-miterlimit="10"/>
<path d="M815.931 17.7368C814.513 19.1318 809.126 20.2206 802.729 17.7368" stroke="#162929" stroke-width="2" stroke-miterlimit="10"/>
<path d="M809.138 9.79799C810.434 9.79799 811.485 8.74688 811.485 7.45026C811.485 6.15365 810.434 5.10254 809.138 5.10254C807.841 5.10254 806.79 6.15365 806.79 7.45026C806.79 8.74688 807.841 9.79799 809.138 9.79799Z" fill="#162929"/>
<path d="M784.662 3.67334L799.815 27.4908" stroke="#162929" stroke-width="3.7526" stroke-miterlimit="10"/>
<path d="M781.146 61.6065C780.942 52.9188 783.687 42.8474 791.671 38.2086C799.576 33.6266 809.24 35.3846 814.048 43.2897C816.963 48.0759 817.848 53.8261 817.973 59.3382" stroke="#162929" stroke-width="2" stroke-miterlimit="10"/>
<path d="M776.938 61.6742L830.982 58.3965" stroke="#162929" stroke-width="2" stroke-miterlimit="10"/>
<path d="M787.463 54.9833L787.305 70.374C787.305 70.4874 787.305 70.5895 787.305 70.7029C787.316 77.7914 789.675 84.4263 793.985 89.6321C796.151 92.2294 798.839 94.4637 801.992 96.0742C805.145 97.696 808.797 98.6601 812.574 98.6941L852.009 98.955C853.778 98.9663 855.23 97.5373 855.253 95.768L855.445 77.4512C855.468 75.7386 854.084 74.3322 852.361 74.3209L812.835 74.06L812.098 55.2442C812.166 48.4392 806.71 42.8704 799.905 42.8024C793.1 42.7343 787.532 48.1897 787.463 54.9833Z" fill="#162929"/>
<path d="M170.318 63.8068C170.318 63.8068 173.925 41.8721 195.123 30.02" stroke="#162929" stroke-width="5.6289" stroke-miterlimit="10"/>
<path d="M111.315 128.519C111.315 128.519 92.202 139.87 69.4906 131.268" stroke="#162929" stroke-width="3" stroke-miterlimit="10"/>
<path d="M161.449 36.3031C161.449 36.3031 176.227 14.8674 207.111 9.61621" stroke="#162929" stroke-width="7.5053" stroke-miterlimit="10"/>
<path d="M843.287 75.2959C843.435 74.8649 843.503 74.4112 843.593 73.9689C844.285 70.4984 846.656 68.1506 848.051 64.9977C848.969 62.9335 849.979 59.3949 846.871 58.5102C845.306 58.0679 843.661 58.8958 843.185 60.3589C842.641 62.0602 842.13 63.2284 841.711 63.9996C841.393 64.578 841.121 64.941 840.883 65.2132C840.531 65.5988 840.236 65.8143 839.658 66.1999C839.091 66.5741 838.24 67.1072 837.355 67.9692C836.006 69.2848 835.359 70.7592 835.03 71.9274C834.701 73.107 834.679 74.0143 834.679 74.3886V74.536C834.735 77.9272 839.374 78.1994 841.779 76.9631C842.164 76.7703 842.527 76.5321 842.799 76.2032C843.026 75.931 843.174 75.6248 843.287 75.2959Z" fill="#162929"/>
<path d="M852.168 81.1826H855.446" stroke="white" stroke-width="0.9382" stroke-miterlimit="10"/>
<path d="M852.168 86.7852H855.446" stroke="white" stroke-width="0.9382" stroke-miterlimit="10"/>
<path d="M852.168 92.3765H855.446" stroke="white" stroke-width="0.9382" stroke-miterlimit="10"/>
<path d="M681.476 196.345V257.511" stroke="#162929" stroke-width="2" stroke-miterlimit="10"/>
<path d="M615.966 328.759C616.068 329.542 621.353 380.693 624.019 398.783C626.684 416.873 614.979 422.453 605.135 425.912C595.29 429.371 593.691 436.55 594.496 445.068H659.132V413.153L615.966 328.759Z" fill="white" stroke="#162929" stroke-width="2" stroke-miterlimit="10"/>
<path d="M681.476 200.338C683.092 200.338 684.402 199.028 684.402 197.412C684.402 195.795 683.092 194.485 681.476 194.485C679.86 194.485 678.55 195.795 678.55 197.412C678.55 199.028 679.86 200.338 681.476 200.338Z" fill="white" stroke="#162929" stroke-width="2" stroke-miterlimit="10"/>
<path d="M659.904 238.298V321.205C659.904 321.205 658.6 378.56 712.609 413.141L675.363 470.859C675.363 470.859 666.323 467.672 665.79 459.415C665.257 451.17 671.11 446.111 672.709 437.072C674.308 428.033 661.537 421.114 654.891 412.597C648.245 404.079 633.342 389.46 622.703 357.794C612.065 326.139 611.362 289.664 624.087 255.231L659.904 238.298Z" fill="white" stroke="#162929" stroke-width="2" stroke-miterlimit="10"/>
<path d="M660.573 330.948H698.239C698.239 330.948 716.794 246.895 659.904 244.491L660.573 330.948Z" fill="white" stroke="#162929" stroke-width="2" stroke-miterlimit="10"/>
<path d="M659.95 250.672C659.95 250.672 626.684 272.425 608.855 310.998C608.855 310.998 568.161 306.212 556.978 321.104C545.807 335.995 563.897 357.771 581.715 342.301C581.715 342.301 612.042 345.919 629.338 334.135C646.634 322.351 659.938 295.71 659.938 295.71V250.672H659.95Z" fill="#162929"/>
<path d="M573.095 336.573C574.546 335.904 576.214 335.417 577.813 335.439C582.746 335.507 583.915 342.584 580.127 345.068" stroke="white" stroke-width="0.9382" stroke-miterlimit="10"/>
<path d="M681.397 186.569C677.858 186.648 673.628 188.032 671.768 191.242C670.134 194.066 670.021 197.752 670.792 200.859" stroke="#162929" stroke-width="3.7526" stroke-miterlimit="10"/>
<path d="M660.527 195.608C659.212 191.831 660.028 187.442 662.433 184.244C664.837 181.045 668.716 179.072 672.697 178.754" stroke="#162929" stroke-width="3.7526" stroke-miterlimit="10"/>
<path d="M687.93 178.754C692.557 180.535 696.708 183.926 697.82 188.962C699.124 194.882 697.899 201.2 695.483 206.678" stroke="#162929" stroke-width="2.8145" stroke-miterlimit="10"/>
<path d="M693.714 172.97C697.355 173.379 701.698 176.622 703.502 179.945C705.305 183.268 706.235 188.361 705.691 192.092" stroke="#162929" stroke-width="2.8145" stroke-miterlimit="10"/>
<path d="M651.285 192.092C650.513 188.02 650.173 183.132 652.85 178.766C655.016 175.227 658.759 172.743 662.796 171.802" stroke="#162929" stroke-width="3.7526" stroke-miterlimit="10"/>
<path d="M692.069 81.182L656.773 57.1943" stroke="#162929" stroke-width="7.034" stroke-miterlimit="10"/>
<path d="M634.714 205.282C620.288 205.282 608.594 216.975 608.594 231.402C608.594 232.842 608.719 234.237 608.935 235.61L599.011 239.704L610.33 240.793C614.106 250.569 623.588 257.522 634.703 257.522C649.13 257.522 660.823 245.829 660.823 231.402C660.823 216.975 649.141 205.282 634.714 205.282Z" fill="white" stroke="#162929" stroke-width="2" stroke-miterlimit="10"/>
<path d="M606.462 236.245V215.172H641.576V237.311C641.576 242.018 637.765 245.829 633.058 245.829H626.537C621.32 245.829 617.089 241.598 617.089 236.381V235.984L606.462 236.245Z" fill="#162929"/>
<path d="M638.922 228.941H663.658" stroke="#162929" stroke-width="3.7526" stroke-miterlimit="10"/>
<path d="M571.042 338.105C574.274 338.105 576.894 335.485 576.894 332.253C576.894 329.021 574.274 326.4 571.042 326.4C567.81 326.4 565.189 329.021 565.189 332.253C565.189 335.485 567.81 338.105 571.042 338.105Z" fill="white"/>
<path d="M1317.6 80.8101L1317.58 204.899H1304.88V196.915C1304.88 196.915 1300.49 205.897 1285.72 205.897C1270.95 205.897 1269.83 190.008 1269.83 190.008L1293.3 189.735V152.024L1244.9 196.915L1237.63 190.132L1243.62 183.747C1243.62 183.747 1231.95 186.537 1223.02 175.967C1214.1 165.396 1219.88 155.019 1221.67 152.024L1237.44 169.184C1237.44 169.184 1280.73 129.489 1279.94 129.489C1279.14 129.489 1317.6 80.8101 1317.6 80.8101Z" fill="white" stroke="#162929" stroke-width="2" stroke-miterlimit="10"/>
<path d="M1316.65 121.708C1316.65 121.708 1320.04 150.051 1348.58 151.843L1348.18 131.621C1348.18 131.621 1323.84 128.093 1317.3 89.4297L1316.65 121.708Z" fill="#162929"/>
<path d="M1332.28 147.499C1332.07 148.906 1332.7 150.607 1333.25 151.719C1333.68 152.592 1334.33 153.522 1335.24 154.361C1336.15 155.2 1337.3 155.949 1338.73 156.493C1339.94 156.958 1340.85 157.389 1341.51 157.775C1343.01 158.66 1343.52 159.828 1343.82 161.484C1344.06 162.788 1345.32 163.639 1346.61 163.401C1347.92 163.162 1348.77 161.903 1348.53 160.61C1348.37 159.749 1348.18 158.887 1347.86 158.07C1347.31 156.618 1346.35 155.325 1345.26 154.248C1344.22 153.216 1342.8 152.478 1342.05 151.186C1341.42 150.085 1341.35 148.713 1340.68 147.636C1340.24 146.921 1339.55 146.388 1338.81 145.991C1337.19 145.118 1334.12 144.517 1332.81 146.229C1332.5 146.581 1332.35 147.023 1332.28 147.499Z" fill="#162929"/>
<path d="M1282.49 89.4298L1276.15 83.5208L1202.73 123.103V21.187L1275.82 70.0356H1282.49V89.4298Z" fill="#162929"/>
<path d="M1202.81 123.141C1207.77 123.059 1211.41 99.9006 1210.94 71.4156C1210.47 42.9305 1206.07 19.9052 1201.11 19.987C1196.15 20.0689 1192.51 43.227 1192.98 71.712C1193.45 100.197 1197.85 123.222 1202.81 123.141Z" fill="white" stroke="#162929" stroke-width="2" stroke-miterlimit="10"/>
<path d="M1242.4 101.429C1242.4 101.429 1250.49 112.782 1266.86 104.004C1279.75 97.0852 1274.82 84.2578 1274.82 84.2578" stroke="#162929" stroke-width="2.8145" stroke-miterlimit="10" stroke-linecap="round"/>
<path d="M1258.05 110.196C1258.05 110.196 1268.67 132.948 1282.49 134.808C1296.3 136.668 1319.93 106.646 1317.42 79.9595L1301.88 89.4298L1285.79 112.329L1275.85 97.7999L1258.05 110.196Z" fill="#162929"/>
<path d="M1168.9 37.8594L1199.42 45.912" stroke="#162929" stroke-width="7.5053" stroke-miterlimit="10"/>
<path d="M1281.18 107.009C1281.82 106.692 1282.4 106.216 1282.85 105.739C1284.08 104.469 1284.96 102.768 1285.09 100.987C1285.12 100.533 1285.11 100.057 1285.04 99.5807C1284.95 98.9569 1284.77 98.3785 1284.53 97.8681C1284.05 96.8587 1283.28 96.0648 1282.5 95.2822C1281.57 94.3295 1281.04 93.3428 1281.23 91.9818C1281.42 90.6775 1280.5 89.4639 1279.2 89.2711C1278.37 89.1577 1277.52 89.4866 1277 90.1331C1275.94 91.4374 1276.32 93.8758 1276.84 95.3276C1277.23 96.3597 1277.88 97.3123 1278.03 98.4238C1278.11 99.0363 1278.02 99.6828 1277.78 100.25C1277.55 100.76 1277.21 101.225 1277.03 101.758C1276.74 102.632 1276.98 103.46 1277.24 104.299C1277.49 105.138 1277.79 106.34 1278.51 106.885C1279.36 107.554 1280.31 107.44 1281.18 107.009Z" fill="#162929"/>
<path d="M1277.24 100.25L1273.52 93.6606C1272.87 92.5151 1271.41 92.1068 1270.25 92.7533C1269.1 93.3998 1268.7 94.8629 1269.34 96.0197L1273.06 102.609C1273.71 103.755 1275.17 104.163 1276.33 103.517C1277.47 102.859 1277.88 101.396 1277.24 100.25Z" fill="#162929"/>
<path d="M1272.65 103.539L1268.93 96.9497C1268.29 95.8042 1266.82 95.3959 1265.67 96.0424C1264.51 96.6888 1264.11 98.1519 1264.76 99.3088L1268.48 105.898C1269.13 107.044 1270.59 107.452 1271.75 106.806C1272.9 106.148 1273.31 104.685 1272.65 103.539Z" fill="#162929"/>
<path d="M1268.08 106.828L1264.36 100.239C1263.72 99.0932 1262.25 98.6849 1261.1 99.3314C1259.95 99.9779 1259.54 101.441 1260.19 102.598L1263.91 109.187C1264.56 110.333 1266.02 110.741 1267.18 110.095C1268.32 109.448 1268.73 107.985 1268.08 106.828Z" fill="#162929"/>
<path d="M1263.5 110.128L1259.78 103.539C1259.14 102.393 1257.67 101.985 1256.52 102.631C1255.37 103.278 1254.96 104.741 1255.61 105.898L1259.33 112.487C1259.97 113.633 1261.44 114.041 1262.59 113.394C1263.75 112.737 1264.16 111.274 1263.5 110.128Z" fill="#162929"/>
<path d="M1302.65 54.2256C1295.11 54.2256 1288.73 59.1025 1286.42 65.8621L1280.71 63.9567L1285.73 68.6408C1285.58 69.5368 1285.49 70.4555 1285.49 71.3855C1285.49 80.8558 1293.17 88.5455 1302.65 88.5455C1312.13 88.5455 1319.81 80.8672 1319.81 71.3855C1319.81 61.9039 1312.12 54.2256 1302.65 54.2256Z" fill="white" stroke="#162929" stroke-width="2" stroke-miterlimit="10"/>
<path d="M1295.87 63.9561C1295.87 63.9561 1294.67 69.3434 1297.47 70.1373C1300.26 70.9312 1300.66 65.5439 1300.66 65.5439" stroke="#162929" stroke-width="2" stroke-miterlimit="10"/>
<path d="M1293.15 57.0945L1309.83 68.9465L1306.44 78.3261L1314.17 71.385V84.099C1314.17 84.099 1323.61 77.3167 1318.12 63.9562C1312.63 50.5957 1296.83 53.7827 1293.15 57.0945Z" fill="#162929"/>
<path d="M1285.2 74.3228H1296.47C1296.47 74.3228 1297.37 81.5134 1290.84 83.8044" stroke="#162929" stroke-width="2" stroke-miterlimit="10"/>
<path d="M893.598 278.199L884.763 279.39L884.752 279.401C880.794 273.118 873.819 268.944 865.857 268.944C853.517 268.944 843.514 278.947 843.514 291.287C843.514 303.627 853.517 313.63 865.857 313.63C878.196 313.63 888.2 303.627 888.2 291.287C888.2 288.905 887.814 286.614 887.122 284.459L893.598 278.199Z" fill="white" stroke="#162929" stroke-width="2" stroke-miterlimit="10"/>
<path d="M867.705 281.204C867.705 281.204 867.444 286.49 871.164 285.696C874.884 284.902 873.614 279.843 873.614 279.843" stroke="#162929" stroke-width="2" stroke-miterlimit="10"/>
<path d="M870.768 269.488C870.768 269.488 873.297 275.783 857.6 284.459V298.999C857.6 298.999 854.935 291.548 852.009 293.408C849.083 295.268 852.009 300.326 852.009 300.326H845.408C845.408 300.326 840.611 286.966 847.903 277.949C855.207 268.932 862.92 267.912 870.768 269.488Z" fill="#162929"/>
<path d="M884.139 304.114C884.139 304.114 871.539 304.171 873.569 297.139C875.259 291.287 887.95 287.986 887.95 287.986" stroke="#162929" stroke-width="2" stroke-miterlimit="10"/>
<path d="M882.62 306.042L888.223 413.108H916.396C916.396 413.108 912.142 422.68 898.306 425.164C884.469 427.648 878.084 419.13 878.084 419.13V427.648H870.916V444.32H901.844C901.844 444.32 892.975 457.442 876.666 459.575C860.357 461.707 852.19 451.771 852.19 451.771V459.575H845.408V300.326" fill="white"/>
<path d="M882.62 306.042L888.223 413.108H916.396C916.396 413.108 912.142 422.68 898.306 425.164C884.469 427.648 878.084 419.13 878.084 419.13V427.648H870.916V444.32H901.844C901.844 444.32 892.975 457.442 876.666 459.575C860.357 461.707 852.19 451.771 852.19 451.771V459.575H845.408V300.326" stroke="#162929" stroke-width="2" stroke-miterlimit="10"/>
<path d="M867.705 313.63V360.982L845.419 367.719V301.994C845.419 301.982 853.018 312.031 867.705 313.63Z" fill="#162929"/>
<path d="M892.271 285.775L896.717 288.758L971.901 259.179V344.661L898.657 304.886L889.98 306.768L892.271 285.775Z" fill="#162929"/>
<path d="M977.875 345.685C988.007 344.933 994.791 325.049 993.027 301.273C991.263 277.498 981.619 258.833 971.486 259.585C961.354 260.337 954.57 280.22 956.334 303.996C958.098 327.772 967.742 346.436 977.875 345.685Z" fill="white" stroke="#162929" stroke-width="2" stroke-miterlimit="10"/>
<path d="M903.25 323.634C896.876 321.66 894.8 316.432 898.645 304.886" stroke="#162929" stroke-width="2.8145" stroke-miterlimit="10" stroke-linecap="round"/>
<path d="M979.647 276.69L1019.73 267.605" stroke="#162929" stroke-width="5.6289" stroke-miterlimit="10"/>
<path d="M978.809 297.128L1000.45 295.71" stroke="#162929" stroke-width="6.5671" stroke-miterlimit="10"/>
<path d="M998.679 337.209L1035.21 344.661" stroke="#162929" stroke-width="3.7526" stroke-miterlimit="10"/>
<path d="M884.14 335.122C884.14 335.122 890.593 363.431 912.143 357.046C917.791 355.379 921.159 349.946 922.157 344.048C923.053 338.752 921.726 333.206 919.81 328.283C918.982 326.162 918.142 324.019 916.952 322.068C915.885 320.333 914.479 318.949 912.823 317.758C909.273 315.206 904.169 313.335 899.758 314.31C898.181 314.662 896.843 315.671 896.14 317.135C895.266 318.938 895.606 320.707 895.969 322.613C896.446 325.164 897.353 327.569 898.204 330.007C900.404 336.302 902.616 339.001 902.899 342.415C902.967 343.254 900.665 341.916 901.107 342.676L883.357 305.158L884.14 335.122Z" fill="#162929"/>
<path d="M885.183 306.326L905.745 349.98" stroke="white" stroke-width="2" stroke-miterlimit="10"/>
<path d="M924.369 317.078C924.369 317.078 919.844 322.93 913.526 322.93" stroke="#162929" stroke-width="2.8145" stroke-miterlimit="10"/>
<path d="M893.894 313.063V326.299C893.894 327.455 894.937 328.386 896.23 328.386C897.523 328.386 898.566 327.444 898.566 326.299V313.063C898.566 311.906 897.523 310.976 896.23 310.976C894.937 310.976 893.894 311.917 893.894 313.063Z" fill="#162929" stroke="white" stroke-width="0.2345" stroke-miterlimit="10"/>
<path d="M898.793 311.872V327.206C898.793 328.363 899.836 329.293 901.129 329.293C902.422 329.293 903.466 328.351 903.466 327.206V311.872C903.466 310.715 902.422 309.785 901.129 309.785C899.836 309.785 898.793 310.727 898.793 311.872Z" fill="#162929" stroke="white" stroke-width="0.2345" stroke-miterlimit="10"/>
<path d="M903.682 313.097V327.036C903.682 328.193 904.725 329.123 906.018 329.123C907.311 329.123 908.354 328.182 908.354 327.036V313.097C908.354 311.94 907.311 311.01 906.018 311.01C904.736 310.999 903.682 311.94 903.682 313.097Z" fill="#162929" stroke="white" stroke-width="0.2345" stroke-miterlimit="10"/>
<path d="M908.615 310.557V326.333C908.615 327.875 909.659 329.112 910.952 329.112C912.245 329.112 913.288 327.864 913.288 326.333V310.557C913.288 309.014 912.245 307.778 910.952 307.778C909.659 307.778 908.615 309.014 908.615 310.557Z" fill="#162929" stroke="white" stroke-width="0.2345" stroke-miterlimit="10"/>
<path d="M200.623 88.7583V236.381L222.966 260.494V248.086C222.966 248.086 226.936 260.585 240.523 269.896C254.11 279.208 272.461 274.682 272.461 274.682L243.2 239.568V202.062L262.356 221.218V206.848C262.356 206.848 268.56 221.932 284.608 231.709C301.462 241.962 317.953 235.054 317.953 235.054L276.193 193.294V145.41L236.962 91.5483L200.623 88.7583Z" fill="white" stroke="#162929" stroke-width="2" stroke-miterlimit="10"/>
<path d="M243.199 239.569V168.819" stroke="#162929" stroke-width="2" stroke-miterlimit="10"/>
<path d="M200.623 136.099C200.623 136.099 218.35 158.181 232.901 165.621C247.453 173.072 260.008 169.556 262.617 159.769C266.303 145.92 247.691 111.873 247.691 111.873L251.082 113.937C251.082 113.937 257.796 99.3402 240.523 95.6768C225.098 92.3991 228.263 119.869 231.745 130.507L200.623 94.3271V136.099Z" fill="#162929"/>
<path d="M250.186 109.695C250.186 109.695 260.201 140.636 282.442 149.13C299.863 155.777 300.135 119.608 280.242 98.7508L253.725 94.3275C253.725 94.3275 245.945 92.2747 242.497 97.9568C238.811 104.036 250.186 109.695 250.186 109.695Z" fill="#162929"/>
<path d="M255.573 95.8926L287.296 130.235" stroke="white" stroke-width="2" stroke-miterlimit="10"/>
<path d="M225.313 120.788L245.944 146.737" stroke="white" stroke-width="2" stroke-miterlimit="10"/>
<path d="M113.224 87.8695L105.893 91.4252C100.035 83.7198 89.3662 80.9557 80.3293 85.3384C70.0164 90.34 65.7088 102.761 70.7104 113.074C75.7121 123.386 88.1326 127.694 98.4455 122.692C108.758 117.691 113.066 105.27 108.064 94.9574C108.042 94.911 108.008 94.8702 107.985 94.8238L113.224 87.8695Z" fill="white" stroke="#162929" stroke-width="2" stroke-miterlimit="10" stroke-linecap="round"/>
<path d="M110.009 101.624L95.1982 104.207C95.1982 104.207 99.713 111.862 109.046 110.66" stroke="#162929" stroke-width="2" stroke-miterlimit="10"/>
<path d="M95.7542 96.3422C97.0036 95.7363 97.5252 94.2323 96.9193 92.9829C96.3134 91.7336 94.8094 91.212 93.56 91.8179C92.3107 92.4238 91.789 93.9278 92.395 95.1772C93.0009 96.4265 94.5049 96.9481 95.7542 96.3422Z" fill="#18191B"/>
<path d="M89.3486 111.056C89.3486 111.056 107.388 121.365 120.88 108.086" stroke="#162929" stroke-width="2.4007" stroke-miterlimit="10"/>
<path d="M77.459 121.021L92.058 83.4335C92.058 83.4335 76.039 81.5446 69.8913 96.8779C64.1183 111.27 77.459 121.021 77.459 121.021Z" fill="#18191B"/>
<path d="M69.0301 99.4735C69.0301 99.4735 59.9411 71.4258 44.4022 68.9315C28.8633 66.4372 16.824 88.3248 36.4205 100.042C48.065 107.005 69.0301 99.4735 69.0301 99.4735Z" fill="#18191B"/>
<path d="M87.7389 114.416C90.9103 112.877 92.2344 109.06 90.6963 105.888C89.1582 102.717 85.3404 101.393 82.1691 102.931C78.9977 104.469 77.6736 108.287 79.2117 111.458C80.7498 114.63 84.5676 115.954 87.7389 114.416Z" fill="#162929"/>
<path d="M124.733 110.359C126.783 109.364 127.639 106.896 126.645 104.846C125.65 102.796 123.182 101.94 121.132 102.934C119.082 103.929 118.226 106.397 119.22 108.447C120.215 110.497 122.683 111.353 124.733 110.359Z" fill="#162929"/>
<path d="M252.523 105.771C252.523 105.771 249.528 103.038 245.944 105C242.735 106.769 241.827 109.298 241.601 112.519" stroke="white" stroke-width="0.9382" stroke-miterlimit="10"/>
<path d="M248.655 99.2041C248.655 99.2041 240.341 96.8337 236.973 108.153" stroke="white" stroke-width="0.9382" stroke-miterlimit="10"/>
<path d="M245.944 95.3594C245.944 95.3594 237.245 95.6543 234.421 101.643C233.219 104.183 232.901 105.76 232.901 105.76" stroke="white" stroke-width="0.9382" stroke-miterlimit="10"/>
<path d="M220.766 98.2287C235.211 98.2287 246.92 86.5192 246.92 72.0748C246.92 57.6304 235.211 45.9209 220.766 45.9209C206.322 45.9209 194.612 57.6304 194.612 72.0748C194.612 86.5192 206.322 98.2287 220.766 98.2287Z" fill="white" stroke="#162929" stroke-width="2" stroke-miterlimit="10"/>
<path d="M234.762 75.8745C234.762 75.8745 227.22 84.3921 224.543 88.4751C221.481 93.1252 233.934 94.679 233.934 94.679L241.692 87.7833L234.762 75.8745Z" stroke="#162929" stroke-width="2" stroke-miterlimit="10"/>
<path d="M220.766 75.4432L228.308 72.0747L224.542 78.9024" stroke="#162929" stroke-width="2" stroke-miterlimit="10"/>
<path d="M211.103 84.4035C211.103 84.4035 207.383 80.1504 210.218 77.8367C213.053 75.5343 216.07 79.9689 216.07 79.9689" stroke="#162929" stroke-width="2" stroke-miterlimit="10"/>
<path d="M224.542 69.5003C224.542 69.5003 221.004 65.2358 224.542 62.9675C227.026 61.3683 229.726 66.404 229.726 66.404" stroke="#162929" stroke-width="2" stroke-miterlimit="10"/>
<path d="M200.623 88.7587L224.135 50.4352C224.135 50.4352 232.028 53.248 235.76 66.0754L240.535 54.9379C240.535 54.9379 232.289 44.3107 218.192 46.046C204.105 47.7813 197.164 58.0455 195.315 66.0754C193.455 74.1166 195.293 81.5908 200.623 88.7587Z" fill="#162929"/>
<path d="M241.601 94.6788C241.601 94.6788 244.073 94.6107 249.381 99.998C254.609 105.306 253.713 110.943 253.713 110.943" stroke="white" stroke-width="2" stroke-miterlimit="10"/>
<path d="M255.438 93.5332C255.676 98.274 256.3 103.332 255.404 108.028C254.848 110.931 250.935 114.697 248.655 110.954" stroke="#162929" stroke-width="2.8145" stroke-miterlimit="10" stroke-linecap="round"/>
<path d="M236.452 83.1786L233.628 80.7969C233.628 80.7969 225.337 86.876 233.492 93.1366L236.951 91.5488C236.951 91.5488 321.673 105.646 321.276 105.646C320.879 105.646 334.977 70.8049 334.977 70.8049L299.069 16.002L236.452 83.1786Z" fill="#162929"/>
<path d="M329.421 105.159C347.117 100.98 356.562 76.8374 350.517 51.2344C344.471 25.6314 325.224 8.26351 307.528 12.4422C289.831 16.6208 280.386 40.7637 286.432 66.3667C292.477 91.9697 311.724 109.338 329.421 105.159Z" fill="white" stroke="#162929" stroke-width="2" stroke-miterlimit="10"/>
<path d="M337.369 45.921L361.844 39.5356" stroke="#162929" stroke-width="5.6289" stroke-miterlimit="10"/>
<path d="M391.674 128.228L409.673 111.283" stroke="#162929" stroke-width="3.517" stroke-miterlimit="10"/>
<path d="M454.166 126.708L485.605 133.468" stroke="#162929" stroke-width="5.6289" stroke-miterlimit="10"/>
<path d="M61.0645 21.5703H80.2659" stroke="#162929" stroke-width="5.6289" stroke-miterlimit="10"/>
<path d="M41.2051 -2.80859H61.0643" stroke="#162929" stroke-width="5.6289" stroke-miterlimit="10"/>
<path d="M16.9219 227.388L51.4459 192.875" stroke="#162929" stroke-width="10.551" stroke-miterlimit="10"/>
<path d="M1302.07 297.831L1319.75 270.327" stroke="#162929" stroke-width="5.2755" stroke-miterlimit="10"/>
<path d="M1247.63 5.30859L1264.14 21.1869" stroke="#162929" stroke-width="2.6377" stroke-miterlimit="10"/>
<path d="M913.526 3.67334L926.898 18.4742L912.199 30.451" stroke="#162929" stroke-width="5.2755" stroke-miterlimit="10"/>
<path d="M781.135 263.193C785.043 263.193 788.212 260.025 788.212 256.116C788.212 252.208 785.043 249.039 781.135 249.039C777.226 249.039 774.058 252.208 774.058 256.116C774.058 260.025 777.226 263.193 781.135 263.193Z" stroke="#162929" stroke-width="5.2755" stroke-miterlimit="10"/>
<path d="M1073.69 283.325C1069.36 286.999 1067.73 293.623 1070.1 298.783C1072.47 303.944 1078.77 307.04 1084.25 305.498C1099.75 301.131 1087.53 282.122 1083.37 299.067C1082.52 302.503 1082.11 306.212 1083.32 309.535C1084.55 312.87 1087.79 315.66 1091.33 315.365" stroke="#162929" stroke-width="3.517" stroke-miterlimit="10"/>
<path d="M1358.75 131.723C1357.01 131.882 1355.4 131.961 1353.99 131.961C1351.66 131.961 1349.81 131.791 1348.56 131.632C1347.94 131.553 1347.46 131.474 1347.16 131.405C1347 131.371 1346.89 131.349 1346.82 131.337L1346.75 131.326H1346.74C1345.46 131.02 1344.16 131.802 1343.86 133.095C1343.55 134.377 1344.33 135.67 1345.62 135.987C1345.76 136.022 1348.87 136.759 1353.99 136.759C1355.41 136.759 1357.03 136.691 1358.75 136.543V131.723Z" fill="#162929"/>
<path d="M1358.75 136.759C1357.01 136.917 1355.4 136.997 1353.99 136.997C1351.66 136.997 1349.81 136.827 1348.56 136.668C1347.94 136.589 1347.46 136.509 1347.16 136.441C1347 136.407 1346.89 136.384 1346.82 136.373L1346.75 136.362H1346.74C1345.46 136.055 1344.16 136.838 1343.86 138.131C1343.55 139.413 1344.33 140.706 1345.62 141.023C1345.76 141.057 1348.87 141.794 1353.99 141.794C1355.41 141.794 1357.03 141.726 1358.75 141.579V136.759Z" fill="#162929"/>
<path d="M1358.75 141.976C1357.01 142.135 1355.4 142.214 1353.99 142.214C1351.66 142.214 1349.81 142.044 1348.56 141.885C1347.94 141.806 1347.46 141.726 1347.16 141.658C1347 141.624 1346.89 141.602 1346.82 141.59L1346.75 141.579H1346.74C1345.46 141.273 1344.16 142.055 1343.86 143.348C1343.55 144.63 1344.33 145.923 1345.62 146.24C1345.76 146.274 1348.87 147.012 1353.99 147.012C1355.41 147.012 1357.03 146.944 1358.75 146.796V141.976Z" fill="#162929"/>
<path d="M1358.75 151.923V147.114C1357.01 147.272 1355.4 147.352 1353.99 147.352C1351.66 147.352 1349.81 147.182 1348.56 147.023C1347.94 146.944 1347.46 146.864 1347.16 146.796C1347 146.762 1346.89 146.739 1346.82 146.728L1346.75 146.717H1346.74C1345.46 146.41 1344.16 147.193 1343.86 148.486C1343.55 149.768 1344.33 151.061 1345.62 151.378C1345.76 151.412 1348.87 152.149 1353.99 152.149C1355.41 152.149 1357.01 152.07 1358.75 151.923Z" fill="#162929"/>
<path d="M812.336 -20.5412C811.599 -21.4031 810.805 -22.1744 809.954 -22.8662H782.212C779.626 -21.0515 777.415 -18.7378 775.827 -15.9818C773.638 -12.171 772.64 -7.87253 772.277 -3.52867C772.22 -2.89354 771.744 5.40856 771.506 5.40856L824.04 4.28574C824.04 4.28574 820.729 -0.0127544 818.857 -5.332C817.054 -10.4357 815.954 -16.3107 812.336 -20.5412Z" fill="white" stroke="#162929" stroke-width="2" stroke-miterlimit="10"/>
</g>
</g>
</svg>
