<svg width="1360" height="408" viewBox="0 0 1360 408" fill="none" xmlns="http://www.w3.org/2000/svg">
<mask id="mask0" mask-type="alpha" maskUnits="userSpaceOnUse" x="0" y="0" width="1360" height="408">
<path d="M1360 0H0V408H1360V0Z" fill="#E5E5E5"/>
</mask>
<g mask="url(#mask0)">
<path d="M1360 0H0V408H1360V0Z" fill="#E5E5E5"/>
<path d="M16.1037 43.4474L79.3562 133.035L104.807 113.255C104.807 113.255 104.807 134.861 89.9606 144.366C76.5434 152.962 64.3625 151.159 64.3625 151.159L69.4776 157.522L60.4496 163.862L0.74707 86.5911V24.7109L16.1037 43.4474Z" fill="white" stroke="#162929" stroke-width="1.9343" stroke-miterlimit="10"/>
<path d="M997.43 138.399C997.43 138.399 978.501 142.437 971.503 162.172C965.311 179.626 971.503 192.533 971.503 192.533" stroke="#162929" stroke-width="5.803" stroke-miterlimit="10"/>
<path d="M986.44 124.348C960.138 129.485 944.736 162.773 953.242 187.135" stroke="#162929" stroke-width="5.803" stroke-miterlimit="10"/>
<path d="M975.665 104.216C951.655 104.704 933.179 121.058 927.645 141.859" stroke="#162929" stroke-width="6.7702" stroke-miterlimit="10"/>
<path d="M601.64 144.547V194.518" stroke="#162929" stroke-width="2" stroke-miterlimit="10"/>
<path d="M48.8477 310.771V462.397H58.1818V456.363H103.855C103.855 456.363 97.5488 440.757 81.9426 440.757V408.842L120.606 462.397L129.476 456.012L126.799 451.679L166.166 424.017C166.166 424.017 156.072 413.095 141.18 421.25L68.2986 314.922L48.8477 310.771Z" fill="white" stroke="#162929" stroke-width="2" stroke-miterlimit="10"/>
<path d="M86.7175 415.453L48.8477 363.826" stroke="#162929" stroke-width="2" stroke-miterlimit="10"/>
<path d="M95.5976 267.229L139.218 271.222L148.257 393.939L79.2656 394.823L95.5976 267.229Z" fill="white" stroke="#162929" stroke-width="2" stroke-miterlimit="10"/>
<path d="M124.269 226.286L138.106 274.5L83.8135 271.415L124.269 226.286Z" fill="white" stroke="#162929" stroke-width="2" stroke-miterlimit="10"/>
<path d="M116.875 267.229L111.907 321.409H117.941L120.504 267.229H116.875Z" fill="#162929"/>
<path d="M131.948 268.024L161.028 331.027L167.414 327.613L137.086 265.188L131.948 268.024Z" fill="#162929"/>
<path d="M48.4168 324.777C48.3828 324.777 48.2354 353.154 48.2354 353.154C48.224 354.356 52.4545 357.056 53.3505 357.691C65.1458 365.982 81.4665 369.373 95.6095 370.144C104.853 370.643 114.085 370.314 123.329 370.314C128.262 370.314 133.128 370.496 137.959 371.097C139.933 371.335 141.668 371.743 143.46 372.254C145.241 372.764 147.067 373.41 149.154 374.102C150.855 374.669 152.692 373.751 153.259 372.049C153.826 370.348 152.908 368.511 151.206 367.944C149.176 367.263 147.271 366.594 145.263 366.016C143.256 365.437 141.135 364.938 138.753 364.655C136.235 364.348 133.74 364.144 131.245 364.02L131.563 363.078C134.477 363.271 137.438 363.645 140.443 364.065C142.451 364.348 144.209 364.745 146.001 365.256C147.793 365.766 149.619 366.39 151.683 367.082C153.384 367.649 155.221 366.73 155.788 365.029C156.355 363.328 155.437 361.49 153.736 360.923C151.694 360.243 149.777 359.585 147.77 359.018C145.762 358.451 143.675 357.963 141.328 357.634C138.833 357.294 136.303 356.954 133.718 356.738L133.933 356.114C136.814 356.307 139.751 356.681 142.723 357.09C144.73 357.373 146.488 357.77 148.28 358.281C150.072 358.791 151.898 359.415 153.962 360.107C155.664 360.674 157.501 359.755 158.068 358.054C158.635 356.353 157.716 354.515 156.015 353.948C153.974 353.268 152.057 352.61 150.05 352.043C148.042 351.476 145.955 350.988 143.607 350.659C141.146 350.319 138.64 349.99 136.088 349.763L136.247 349.287C138.81 349.445 141.362 349.684 143.902 350.047C145.91 350.33 147.668 350.727 149.46 351.237C151.252 351.748 153.078 352.372 155.142 353.063C156.843 353.631 158.681 352.712 159.248 351.011C159.815 349.309 158.896 347.472 157.195 346.905C155.153 346.224 153.237 345.567 151.229 345C149.222 344.432 147.135 343.945 144.787 343.616C141.952 343.219 139.105 343.003 136.247 342.777C140.352 342.278 152.874 342.765 150.741 335.393C150.05 333 147.532 333.862 145.581 334.44C141.725 335.597 137.801 334.009 133.888 334.009C133.525 334.009 133.162 334.021 132.787 334.044C130.871 334.168 128.931 334.701 126.992 335.507C124.088 336.731 121.208 338.569 118.883 340.951C118.316 341.529 117.782 342.153 117.295 342.799C73.4252 346.769 48.4168 324.777 48.4168 324.777Z" fill="#162929"/>
<path d="M88.1463 292.238H83.5983C80.9103 284.4 73.4929 278.764 64.7371 278.764C53.7243 278.764 44.7871 287.701 44.7871 298.714C44.7871 309.726 53.7243 318.664 64.7371 318.664C75.7499 318.664 84.6871 309.726 84.6871 298.714C84.6871 297.534 84.5623 296.389 84.3695 295.254L88.1463 292.238Z" fill="white" stroke="#162929" stroke-width="2" stroke-miterlimit="10"/>
<path d="M84.2108 303.013C84.2108 303.013 81.5796 306.336 74.3096 305.803" stroke="#162929" stroke-width="2" stroke-miterlimit="10"/>
<path d="M75.1488 281.69L53.9172 298.714L63.1379 307.265L58.7034 311.836C58.7034 311.836 57.2856 305.746 53.9172 305.859C50.5487 305.984 48.8474 310.77 48.8474 310.77C48.8474 310.77 38.708 298.169 51.2746 283.981C51.2746 283.981 57.8754 279.127 63.5009 278.877C69.1717 278.628 75.1941 281.236 75.1488 281.69Z" fill="#162929"/>
<path d="M72.1889 294.279C73.3665 294.279 74.3211 293.324 74.3211 292.147C74.3211 290.969 73.3665 290.015 72.1889 290.015C71.0113 290.015 70.0566 290.969 70.0566 292.147C70.0566 293.324 71.0113 294.279 72.1889 294.279Z" fill="#162929"/>
<path d="M432.536 362.522L384.821 373.161" stroke="#162929" stroke-width="2" stroke-miterlimit="10"/>
<path d="M473.219 403.716C474.693 400.756 478.288 399.553 481.249 401.028L491.74 406.256L497.081 395.516L432.536 362.534V301.89L424.461 269.896L400.836 274.058L384.822 373.184C384.822 373.184 382.962 406.699 376.157 414.944C369.352 423.189 361.946 423.189 352.895 430.641C343.844 438.092 344.922 451.101 344.922 451.101H380.296V439.941C380.296 437.14 382.565 434.883 385.355 434.883H385.366C388.666 434.883 391.354 437.559 391.354 440.871V451.113H405.838L409.819 367.593C409.717 372.027 410.59 387.985 422.589 398.442C436.959 410.94 447.326 405.893 453.983 410.68C460.629 415.466 458.769 425.571 460.096 435.688C461.423 445.793 469.408 451.113 469.408 451.113L486.806 416.158L475.487 410.521C472.98 409.262 471.96 406.222 473.219 403.716Z" fill="white" stroke="#162929" stroke-width="2" stroke-miterlimit="10"/>
<path d="M315.218 362.523L330.019 323.417L347.61 336.188L321.24 362.92L315.218 362.523Z" fill="#162929"/>
<path d="M315.218 362.523L340.135 327.148L390.674 364.122L364.996 398.703L315.218 362.523Z" fill="white" stroke="#162929" stroke-width="2" stroke-miterlimit="10"/>
<path d="M378.243 227.002L358.339 213.244" stroke="#162929" stroke-width="5.6289" stroke-miterlimit="10"/>
<path d="M392.148 217.451L385.229 198.749" stroke="#162929" stroke-width="5.6289" stroke-miterlimit="10"/>
<path d="M414.344 211.973L425.515 191.819" stroke="#162929" stroke-width="5.6289" stroke-miterlimit="10"/>
<path d="M434.294 230.392L449.197 219.3" stroke="#162929" stroke-width="5.6289" stroke-miterlimit="10"/>
<path d="M400.824 274.035C400.824 274.035 400.246 289.902 372.311 321.285C372.311 321.285 357.976 337.401 349.458 344.853L371.506 361.718C371.506 361.718 401.505 336.641 418.291 301.698L406.291 273.071L400.824 274.035Z" fill="white" stroke="#162929" stroke-width="2" stroke-miterlimit="10"/>
<path d="M503.637 333.964L497.887 296.299" stroke="#162929" stroke-width="3.517" stroke-miterlimit="10"/>
<path d="M336.54 362.579C336.552 362.568 340.578 359.403 345.5 355.286C347.961 353.222 350.661 350.931 353.201 348.652C355.742 346.372 358.135 344.138 360.018 342.141C361.231 340.86 361.174 338.841 359.893 337.627C358.611 336.414 356.592 336.471 355.379 337.752C353.7 339.533 351.409 341.688 348.937 343.888C345.239 347.2 341.134 350.625 337.969 353.211C336.381 354.504 335.032 355.593 334.079 356.353C333.603 356.738 333.228 357.033 332.968 357.237C332.707 357.441 332.571 357.543 332.571 357.543C331.187 358.632 330.949 360.64 332.038 362.023C333.149 363.43 335.157 363.668 336.54 362.579Z" fill="#162929"/>
<path d="M341.632 368.363C341.643 368.352 345.67 365.188 350.592 361.071C353.053 359.006 355.752 356.715 358.293 354.436C360.834 352.156 363.227 349.922 365.109 347.926C366.323 346.644 366.266 344.625 364.985 343.412C363.703 342.198 361.684 342.255 360.471 343.536C358.792 345.317 356.501 347.472 354.028 349.672C350.331 352.984 346.225 356.409 343.061 358.995C341.473 360.288 340.124 361.377 339.171 362.137C338.695 362.522 338.32 362.817 338.059 363.021C337.799 363.226 337.662 363.328 337.662 363.328C336.279 364.416 336.041 366.424 337.129 367.808C338.241 369.203 340.248 369.452 341.632 368.363Z" fill="#162929"/>
<path d="M346.725 374.137C346.736 374.125 350.762 370.961 355.685 366.844C358.146 364.78 360.845 362.489 363.386 360.209C365.926 357.93 368.319 355.695 370.202 353.699C371.416 352.417 371.359 350.399 370.077 349.185C368.796 347.972 366.777 348.028 365.563 349.31C363.885 351.09 361.594 353.245 359.121 355.446C355.424 358.757 351.318 362.183 348.154 364.769C346.566 366.061 345.216 367.15 344.264 367.91C343.787 368.296 343.413 368.591 343.152 368.795C342.891 368.999 342.755 369.101 342.755 369.101C341.372 370.19 341.133 372.197 342.222 373.581C343.334 374.987 345.341 375.237 346.725 374.137Z" fill="#162929"/>
<path d="M351.818 379.921C351.829 379.91 355.855 376.745 360.778 372.628C363.239 370.564 365.938 368.273 368.479 365.993C371.019 363.714 373.412 361.479 375.295 359.483C376.508 358.202 376.452 356.183 375.17 354.969C373.889 353.756 371.87 353.812 370.656 355.094C368.978 356.875 366.687 359.03 364.214 361.23C360.517 364.542 356.411 367.967 353.247 370.553C351.659 371.846 350.309 372.934 349.356 373.694C348.88 374.08 348.506 374.375 348.245 374.579C347.984 374.783 347.848 374.885 347.848 374.885C346.464 375.974 346.226 377.982 347.315 379.365C348.426 380.772 350.434 381.01 351.818 379.921Z" fill="#162929"/>
<path d="M367.594 327.149C367.253 327.058 365.269 326.389 363.511 326.389C360.482 326.389 358.225 326.888 355.878 327.976C353.859 328.918 352.203 330.188 350.978 331.232C349.765 332.275 349.005 333.103 348.948 333.16C348.869 333.25 348.8 333.352 348.732 333.443C348.857 333.534 353.723 337.152 354.12 337.39C357.84 335.927 358.906 339.942 361.14 337.175C362.501 335.485 367.095 332.593 367.378 330.029C367.582 328.203 369.181 327.591 367.594 327.149Z" fill="#162929"/>
<path d="M407.403 223.451C393.52 223.451 382.269 234.974 382.269 249.197C382.269 251.51 382.576 253.745 383.131 255.877L376.156 257.34L384.322 259.393C388.178 268.546 397.059 274.942 407.403 274.942C421.285 274.942 432.536 263.419 432.536 249.197C432.536 234.974 421.285 223.451 407.403 223.451Z" fill="white" stroke="#162929" stroke-width="2" stroke-miterlimit="10"/>
<path d="M388.689 266.368C388.689 266.368 394.927 265.267 397.581 261.888" stroke="#162929" stroke-width="2" stroke-miterlimit="10"/>
<path d="M383.29 241.95H403.977C403.977 241.95 401.845 246.577 403.977 252.146C405.429 255.934 408.083 258.429 408.038 262.694C407.992 266.538 405.576 271.064 404.669 274.772C402.786 282.496 401.845 288.564 409.297 296.276C418.597 305.905 432.536 301.868 432.536 301.868L432.411 246.543C432.411 246.543 431.515 235.451 422.271 228.09C407.879 216.658 388.587 226.207 383.29 241.95Z" fill="#162929" stroke="#162929" stroke-width="2" stroke-miterlimit="10"/>
<path d="M392.931 253.711C394.177 253.711 395.188 252.701 395.188 251.454C395.188 250.208 394.177 249.197 392.931 249.197C391.684 249.197 390.674 250.208 390.674 251.454C390.674 252.701 391.684 253.711 392.931 253.711Z" fill="#162929"/>
<path d="M380.682 311.36L401.415 329.258L391.048 342.074L377.382 356.398L371.518 361.729L348.914 344.433L368.195 325.583L380.682 311.36Z" fill="#162929"/>
<path d="M564.212 49.3447C564.212 49.3447 581.735 58.849 582.359 85.2298C582.983 111.61 559.834 130.233 542.277 132.354C524.72 134.487 496.253 130.914 476.836 99.0439H526.229H547.869V55.0382L564.212 49.3447Z" fill="#162929"/>
<path d="M547.868 82.6559C547.868 82.6559 544.148 69.4882 527.657 68.8758C511.167 68.252 512.233 89.4723 512.233 89.4723H527.657H537.479V99.056H547.88V82.6559H547.868Z" fill="#162929"/>
<path d="M537.468 76.2363C537.468 76.2363 536.425 79.2872 528.44 80.9545C520.456 82.6217 519.571 84.9127 520.082 89.4721" stroke="white" stroke-width="0.9382" stroke-miterlimit="10"/>
<path d="M529.234 118.075C529.234 118.075 532.172 112.042 527.646 109.297C523.121 106.552 518.335 107.664 514.343 103.354C510.35 99.0442 512.199 97.876 512.199 97.876H498.918L514.547 115.319" stroke="white" stroke-width="0.9382" stroke-miterlimit="10"/>
<path d="M485.909 97.082C485.909 97.082 481.52 100.938 488.836 105.305C495.709 109.41 496.684 110.352 499.338 115.682" stroke="white" stroke-width="0.9382" stroke-miterlimit="10"/>
<path d="M575.781 109.297L575.1 143.56L609.091 145.216V194.167C609.091 194.167 596.99 196.299 591.75 186.363C586.522 176.428 586.522 167.037 577.301 164.814C568.08 162.603 553.891 164.122 553.007 151.828V129.564L575.781 109.297Z" fill="white" stroke="#162929" stroke-width="2" stroke-miterlimit="10"/>
<path d="M553.006 151.828V191.683C553.006 191.683 505.224 191.683 505.179 191.683C504.385 191.683 505.575 183.097 505.746 182.507C509.364 170.202 526.989 173.763 531.65 161.514C534.746 153.371 534.565 132.854 534.565 132.854L553.006 126.865V151.828Z" fill="white" stroke="#162929" stroke-width="2" stroke-miterlimit="10"/>
<path d="M553.007 186.716H505.179" stroke="#162929" stroke-width="2" stroke-miterlimit="10"/>
<path d="M553.006 170.032H522.463" stroke="#162929" stroke-width="2" stroke-miterlimit="10"/>
<path d="M585.591 144.898V171.812" stroke="#162929" stroke-width="2" stroke-miterlimit="10"/>
<path d="M527.646 89.4719V99.0443H449.706L447.574 38.6953H507.969V89.4719H527.646Z" fill="#162929"/>
<path d="M502.117 89.472H454.731L453.166 44.5703H502.117V89.472Z" fill="white"/>
<path d="M531.616 97.9779H546.769V68.4102" stroke="white" stroke-width="2" stroke-miterlimit="10"/>
<path d="M525.786 44.5703L530.153 39.9656C529.654 38.1963 529.37 36.3363 529.37 34.4082C529.37 23.0212 538.602 13.7891 549.989 13.7891C561.376 13.7891 570.608 23.0212 570.608 34.4082C570.608 45.7952 561.376 55.0274 549.989 55.0274C542.3 55.0274 535.608 50.8083 532.058 44.559H525.786V44.5703Z" fill="white" stroke="#162929" stroke-width="2" stroke-miterlimit="10"/>
<path d="M537.468 50.7969L544.67 44.5703" stroke="#162929" stroke-width="2" stroke-miterlimit="10"/>
<path d="M531.321 25.6869H552.394V39.7846C552.394 39.7846 554.787 31.2784 558.507 32.7415C562.227 34.2045 556.908 44.5822 556.908 44.5822H567.932C567.932 44.5822 573.172 38.3896 569.168 26.8551C567.297 21.4678 563.067 17.3848 557.827 15.2639C547.404 11.0675 536.709 16.3981 531.321 25.6869Z" fill="#162929"/>
<path d="M539.748 37.7877C540.481 37.7877 541.075 37.1936 541.075 36.4608C541.075 35.7279 540.481 35.1338 539.748 35.1338C539.015 35.1338 538.421 35.7279 538.421 36.4608C538.421 37.1936 539.015 37.7877 539.748 37.7877Z" fill="#162929" stroke="#162929" stroke-width="2" stroke-miterlimit="10"/>
<path d="M1207.51 393.27L1207.1 384.775L1207.42 393.27H1207.51L1207.1 384.775L1207.42 393.27V393.191V393.27V393.191V393.27H1207.58C1208.24 393.27 1210.6 393.338 1213.53 393.973C1215.73 394.45 1218.26 395.244 1220.69 396.469C1222.53 397.399 1224.31 398.555 1225.98 400.041C1227.22 401.153 1228.41 402.457 1229.54 404.011C1231.2 406.347 1232.71 409.296 1233.86 413.243C1235 417.178 1235.75 422.135 1235.75 428.361C1235.75 429.552 1235.73 430.8 1235.66 432.081C1235.36 438.83 1239.32 440.157 1246.87 440.089C1253.63 440.032 1259.81 439.941 1260.11 433.193C1260.19 431.548 1260.23 429.938 1260.23 428.361C1260.23 421.874 1259.6 415.965 1258.42 410.6C1256.37 401.209 1252.54 393.452 1247.7 387.486C1244.08 383.006 1239.96 379.547 1235.83 376.95C1229.63 373.059 1223.47 371.063 1218.46 369.997C1213.43 368.942 1209.52 368.795 1207.57 368.795C1206.92 368.795 1206.5 368.806 1206.32 368.818C1199.57 369.147 1194.37 374.885 1194.7 381.634C1195.02 388.382 1200.75 393.599 1207.51 393.27Z" fill="#162929"/>
<path d="M1192.6 432.002C1193.05 424.437 1192.46 416.94 1192.08 409.398C1191.67 401.243 1191.62 393.089 1191.16 384.934C1191.04 382.892 1191.02 380.806 1190.99 378.719L1141.13 456.046C1141.13 456.046 1123.37 444.557 1111.08 455.445L1150.64 479.648C1153.03 476.688 1156.67 475.543 1159.25 477.119C1161.84 478.696 1162.47 482.461 1160.92 485.932L1169.57 491.228L1193.52 452.088C1191.86 445.396 1192.19 438.83 1192.6 432.002Z" fill="white" stroke="#162929" stroke-width="2" stroke-miterlimit="10"/>
<path d="M1059.96 400.211L1061.34 431.185L1094.4 430.176" stroke="#162929" stroke-width="8.4434" stroke-miterlimit="10"/>
<path d="M1213.04 346.214C1212.24 346.996 1185.54 351.816 1185.54 351.816L1182.58 477.074C1182.58 477.074 1161.43 476.541 1156.64 492.238H1203.02C1203.51 488.461 1206.01 485.591 1209.04 485.591C1212.07 485.591 1214.58 488.472 1215.07 492.238H1225.2V359.767C1225.2 359.755 1213.83 345.431 1213.04 346.214Z" fill="white" stroke="#162929" stroke-width="2" stroke-miterlimit="10"/>
<path d="M1190.3 359.687C1189.21 360.243 1188.47 360.787 1187.9 361.252C1186.8 362.194 1186.31 362.84 1185.94 363.328C1185.58 363.816 1185.37 364.156 1185.2 364.439C1184.89 364.984 1184.74 365.279 1184.62 365.528C1184.41 365.993 1184.32 366.22 1184.24 366.424C1184.08 366.81 1183.99 367.059 1183.86 367.366C1183.65 367.921 1183.38 368.579 1183 369.384C1182.36 370.779 1181.41 372.549 1180.1 374.386C1179.11 375.758 1177.92 377.176 1176.5 378.514C1174.37 380.522 1171.74 382.348 1168.28 383.754C1164.81 385.149 1160.46 386.147 1154.66 386.147C1152.94 386.147 1134.94 385.637 1134.94 385.637L1135.86 410.623C1135.86 410.623 1146.2 411.53 1153.74 410.872C1165.32 409.851 1173.38 408.524 1180.45 405.122C1185.75 402.581 1190.11 399.372 1193.61 396.026C1198.85 391.002 1202.16 385.728 1204.23 381.69C1205.27 379.671 1206 377.947 1206.47 376.768C1206.7 376.189 1206.88 375.736 1206.92 375.622L1206.93 375.611L1201.88 373.547L1206.88 375.724L1206.92 375.611L1201.86 373.547L1206.87 375.724L1198.19 371.959L1206.74 375.997C1206.81 375.86 1206.84 375.781 1206.87 375.724L1198.19 371.959L1206.74 375.997L1196.84 371.312L1206.54 376.405C1206.63 376.223 1206.7 376.099 1206.74 375.997L1196.84 371.312L1206.54 376.405L1196.09 370.916L1205.71 377.755C1206.21 377.051 1206.39 376.677 1206.54 376.405L1196.09 370.916L1205.71 377.755L1195.84 370.734L1204.52 379.184C1205.12 378.56 1205.46 378.106 1205.72 377.743L1195.85 370.723L1204.53 379.172L1195.81 370.666L1203.33 380.25C1203.84 379.841 1204.22 379.49 1204.53 379.172L1195.81 370.666L1203.33 380.25L1195.78 370.655L1201.24 381.577C1202.15 381.123 1202.81 380.658 1203.32 380.261L1195.77 370.666L1201.23 381.588C1207.27 378.571 1209.72 371.21 1206.71 365.177C1203.69 359.143 1196.34 356.659 1190.3 359.687Z" fill="#162929"/>
<path d="M1117.5 389.13C1117.53 389.13 1121.38 389.788 1126.49 390.48C1131.59 391.172 1137.92 391.898 1143.02 392.045C1145.24 392.102 1147.21 392.068 1148.92 391.807C1150.61 391.558 1151.75 390.06 1151.47 388.473C1151.2 386.885 1149.6 385.807 1147.92 386.057C1146.88 386.216 1145.17 386.284 1143.18 386.227C1138.53 386.102 1132.33 385.399 1127.35 384.719C1124.85 384.378 1122.65 384.049 1121.09 383.8C1120.31 383.675 1119.67 383.573 1119.25 383.505C1119.04 383.471 1118.87 383.437 1118.76 383.426C1118.65 383.403 1118.59 383.403 1118.59 383.403C1116.91 383.119 1115.3 384.163 1115.01 385.751C1114.7 387.327 1115.83 388.847 1117.5 389.13Z" fill="#162929"/>
<path d="M1117.04 395.379C1117.06 395.379 1120.92 396.026 1126.02 396.718C1131.13 397.398 1137.45 398.113 1142.57 398.249C1144.78 398.306 1146.75 398.26 1148.47 397.999C1150.16 397.739 1151.29 396.241 1151.02 394.665C1150.74 393.077 1149.15 392 1147.46 392.26C1146.41 392.419 1144.7 392.487 1142.72 392.431C1138.07 392.317 1131.86 391.625 1126.87 390.956C1124.38 390.627 1122.18 390.298 1120.61 390.06C1119.83 389.935 1119.19 389.833 1118.76 389.765C1118.55 389.731 1118.38 389.709 1118.28 389.686C1118.16 389.663 1118.11 389.663 1118.11 389.663C1116.43 389.38 1114.82 390.434 1114.52 392.011C1114.24 393.587 1115.36 395.096 1117.04 395.379Z" fill="#162929"/>
<path d="M1117.09 402.128C1117.11 402.128 1120.98 402.684 1126.1 403.228C1131.23 403.784 1137.57 404.34 1142.68 404.34C1144.9 404.34 1146.87 404.238 1148.58 403.943C1150.26 403.648 1151.36 402.117 1151.04 400.54C1150.73 398.964 1149.1 397.92 1147.42 398.227C1146.38 398.42 1144.68 398.522 1142.68 398.522C1138.03 398.522 1131.81 397.989 1126.82 397.444C1124.31 397.172 1122.11 396.9 1120.53 396.707C1119.75 396.605 1119.12 396.525 1118.68 396.457C1118.47 396.423 1118.3 396.401 1118.19 396.389C1118.07 396.378 1118.02 396.367 1118.02 396.367C1116.33 396.128 1114.75 397.217 1114.5 398.805C1114.24 400.404 1115.4 401.89 1117.09 402.128Z" fill="#162929"/>
<path d="M1117.06 408.626C1117.09 408.626 1120.95 409.182 1126.08 409.726C1131.21 410.282 1137.55 410.838 1142.66 410.838C1144.87 410.838 1146.85 410.736 1148.56 410.441C1150.24 410.146 1151.34 408.615 1151.02 407.038C1150.7 405.462 1149.08 404.419 1147.4 404.725C1146.36 404.918 1144.66 405.02 1142.66 405.02C1138.01 405.02 1131.78 404.487 1126.79 403.942C1124.29 403.67 1122.09 403.398 1120.51 403.205C1119.73 403.103 1119.09 403.024 1118.66 402.955C1118.45 402.921 1118.28 402.899 1118.16 402.887C1118.05 402.876 1117.99 402.865 1117.99 402.865C1116.3 402.627 1114.73 403.715 1114.48 405.303C1114.23 406.891 1115.37 408.388 1117.06 408.626Z" fill="#162929"/>
<path d="M1152.05 390.015C1152.79 388.632 1151.78 386.828 1151.01 385.683C1150.08 384.311 1148.81 383.21 1147.41 382.326C1144.7 380.602 1141.26 379.899 1138.85 377.721C1138.12 377.075 1137.6 376.224 1137.36 375.283C1137.01 373.91 1137.5 372.481 1136.4 371.381C1135.53 370.508 1134.15 370.213 1133.04 370.791C1130.97 371.88 1131.47 375.362 1132 377.188C1132.8 379.989 1134.74 382.076 1137.13 383.607C1138.28 384.345 1139.47 385.309 1139.72 386.658C1139.79 387.055 1139.78 387.463 1139.86 387.86C1140.14 389.221 1141.53 390.049 1142.84 390.492C1143.82 390.821 1144.81 391.025 1145.82 391.195C1147.56 391.49 1149.43 391.671 1151.02 390.911C1151.53 390.696 1151.86 390.378 1152.05 390.015Z" fill="#162929"/>
<path d="M1198.52 301.8C1183.77 301.8 1171.83 313.754 1171.83 328.487C1171.83 328.94 1171.84 329.383 1171.86 329.825L1165.33 332.706L1172.51 334.43C1175.22 346.304 1185.84 355.162 1198.53 355.162C1213.27 355.162 1225.22 343.208 1225.22 328.475C1225.22 313.743 1213.26 301.8 1198.52 301.8Z" fill="white" stroke="#162929" stroke-width="2" stroke-miterlimit="10"/>
<path d="M1174.9 316.045H1202.4C1202.4 316.045 1182.58 366.141 1225.22 366.674V325.084C1225.22 325.084 1224.37 310.238 1207.61 303.387C1190.86 296.537 1178.09 310.896 1174.9 316.045Z" fill="#162929" stroke="#162929" stroke-width="2" stroke-miterlimit="10"/>
<path d="M1185.54 334.463C1189.71 334.463 1193.09 331.087 1193.09 326.921C1193.09 322.756 1189.71 319.379 1185.54 319.379C1181.38 319.379 1178 322.756 1178 326.921C1178 331.087 1181.38 334.463 1185.54 334.463Z" fill="#162929"/>
<path d="M1171.83 326.921H1225.2" stroke="#162929" stroke-width="4.6908" stroke-miterlimit="10"/>
<path d="M1176.07 342.913C1176.07 342.913 1183.77 344.41 1189.09 341.212" stroke="#162929" stroke-width="2" stroke-miterlimit="10"/>
<path d="M1024.57 129.237C1024.31 131.097 1024.79 133.308 1025.58 134.715C1027.79 138.628 1031.65 138.537 1035.03 140.624C1035.35 140.828 1035.42 140.93 1035.47 140.998C1035.5 141.066 1035.58 141.168 1035.62 141.679C1035.7 143.765 1037.47 145.399 1039.55 145.308C1041.64 145.217 1043.27 143.459 1043.18 141.372C1043.09 139.047 1042.05 136.654 1040.22 135.055C1038.11 133.206 1035.3 133.24 1033.08 131.743C1031.39 130.609 1032 128.341 1030.8 126.934C1028.62 124.382 1024.98 126.401 1024.57 129.237Z" fill="white" stroke="#162929" stroke-width="2" stroke-miterlimit="10"/>
<path d="M1087.53 194.633L1037.14 260.335L991.736 223.248C991.736 223.248 1006.89 209.717 1023.45 218.7L1067.01 160.438L1087.53 194.633Z" fill="white" stroke="#162929" stroke-width="2" stroke-miterlimit="10"/>
<path d="M997.294 219.834L1041.31 255.039" stroke="#162929" stroke-width="2" stroke-miterlimit="10"/>
<path d="M1043.25 192.693L1071.72 215.728" stroke="#162929" stroke-width="2" stroke-miterlimit="10"/>
<path d="M1046.48 187.884L1075.45 210.386" stroke="#162929" stroke-width="2" stroke-miterlimit="10"/>
<path d="M1069.1 121.32C1086.36 121.32 1100.36 107.325 1100.36 90.0623C1100.36 72.7992 1086.36 58.8047 1069.1 58.8047C1051.84 58.8047 1037.84 72.7992 1037.84 90.0623C1037.84 107.325 1051.84 121.32 1069.1 121.32Z" fill="white" stroke="#162929" stroke-width="2" stroke-miterlimit="10"/>
<path d="M1069.1 58.8047V121.309" stroke="#162929" stroke-width="2" stroke-miterlimit="10"/>
<path d="M1052.87 90.0621C1052.87 90.9014 1052.92 91.684 1053.02 92.4325C1051.3 93.0223 1048.27 94.0204 1048.27 94.0204L1053.63 95.4267C1056.81 105.963 1069.11 106.655 1069.11 106.655V73.0156C1069.1 73.0156 1052.87 74.3653 1052.87 90.0621Z" stroke="#162929" stroke-width="2" stroke-miterlimit="10"/>
<path d="M1058.69 91.219C1059.33 91.219 1059.84 90.701 1059.84 90.0621C1059.84 89.4232 1059.33 88.9053 1058.69 88.9053C1058.05 88.9053 1057.53 89.4232 1057.53 90.0621C1057.53 90.701 1058.05 91.219 1058.69 91.219Z" fill="#162929"/>
<path d="M1083.8 112.065C1083.8 112.065 1118.42 108.243 1132.5 118.257C1146.57 128.272 1148.38 140.351 1147.3 165.677H1116.27L1116.01 138.877H1084.55L1083.8 112.065Z" fill="white" stroke="#162929" stroke-width="2" stroke-miterlimit="10"/>
<path d="M1116.03 141.52C1116.03 141.52 1110.04 143.504 1109.77 152.396C1109.5 161.288 1116.03 161.005 1116.03 161.005" stroke="#162929" stroke-width="2" stroke-miterlimit="10"/>
<path d="M1084.55 113.381L1142.39 240.975L1087.46 265.836C1087.46 265.836 1073.11 245.557 1098.42 231.754L1062.77 159.371L1084.55 113.381Z" fill="white" stroke="#162929" stroke-width="2" stroke-miterlimit="10"/>
<path d="M1058.07 102.266C1058.07 102.266 1061.79 101.88 1063.33 98.9883" stroke="#162929" stroke-width="2" stroke-miterlimit="10"/>
<path d="M1084.06 260.074L1139.72 235.1" stroke="#162929" stroke-width="2" stroke-miterlimit="10"/>
<path d="M1087.53 210.386L1121.67 195.88" stroke="#162929" stroke-width="2" stroke-miterlimit="10"/>
<path d="M1084.56 203.615L1118.8 188.928" stroke="#162929" stroke-width="2" stroke-miterlimit="10"/>
<path d="M1116.01 138.865L1136.71 121.683" stroke="#162929" stroke-width="2" stroke-miterlimit="10"/>
<path d="M1084.56 112.065V152.396C1084.56 152.396 1085.1 171.019 1073.74 173.73C1062.37 176.441 1016.37 173.73 1016.37 173.73V140.181H1055.6C1055.6 140.181 1052.71 124.258 1064.8 117.362C1075.07 111.487 1084.56 112.065 1084.56 112.065Z" fill="white" stroke="#162929" stroke-width="2" stroke-miterlimit="10"/>
<path d="M1016.36 148.381H1023.39" stroke="#162929" stroke-width="2" stroke-miterlimit="10"/>
<path d="M1016.36 157.023H1023.39" stroke="#162929" stroke-width="2" stroke-miterlimit="10"/>
<path d="M1016.36 165.666H1023.39" stroke="#162929" stroke-width="2" stroke-miterlimit="10"/>
<path d="M1055.6 140.17L1079.43 170.225" stroke="#162929" stroke-width="2" stroke-miterlimit="10"/>
<path d="M1123.11 165.666V147.757C1123.11 145.965 1121.55 144.514 1119.65 144.514C1117.73 144.514 1116.19 145.965 1116.19 147.757V165.666C1116.19 167.458 1117.74 168.91 1119.65 168.91C1121.55 168.921 1123.11 167.458 1123.11 165.666Z" stroke="#162929" stroke-width="2" stroke-miterlimit="10"/>
<path d="M1130.89 165.666V147.757C1130.89 145.965 1129.33 144.514 1127.43 144.514C1125.51 144.514 1123.97 145.965 1123.97 147.757V165.666C1123.97 167.458 1125.52 168.91 1127.43 168.91C1129.34 168.921 1130.89 167.458 1130.89 165.666Z" stroke="#162929" stroke-width="2" stroke-miterlimit="10"/>
<path d="M1138.68 165.666V147.757C1138.68 145.965 1137.13 144.514 1135.22 144.514C1133.3 144.514 1131.76 145.965 1131.76 147.757V165.666C1131.76 167.458 1133.31 168.91 1135.22 168.91C1137.13 168.921 1138.68 167.458 1138.68 165.666Z" stroke="#162929" stroke-width="2" stroke-miterlimit="10"/>
<path d="M1146.47 165.666V147.757C1146.47 145.965 1144.92 144.514 1143.01 144.514C1141.11 144.514 1139.55 145.965 1139.55 147.757V165.666C1139.55 167.458 1141.11 168.91 1143.01 168.91C1144.92 168.91 1146.47 167.458 1146.47 165.666Z" stroke="#162929" stroke-width="2" stroke-miterlimit="10"/>
<path d="M1053.34 85.6616H1069.1V73.0156L1064.16 74.1952L1059.64 76.4975L1057.52 79.3443L1053.34 85.6616Z" fill="#162929"/>
<path d="M775.939 36.8584V167.469H735.041V219.368C735.041 219.368 756.726 222.986 761.649 198.999C761.649 198.999 807.639 209.513 808.127 163.193H834.575V210.499H883.197C883.197 210.499 882.21 189.801 863.814 188.156C863.814 188.156 872.026 138.548 829.982 130.994V78.4369C829.982 78.4369 831.525 50.4344 805.79 46.8844C780.045 43.3458 775.939 36.8584 775.939 36.8584Z" fill="white" stroke="#162929" stroke-width="2" stroke-miterlimit="10"/>
<path d="M844.022 97.2184L856.884 57.4092L864.143 59.7909L835.641 153.337L825.048 151.035L844.022 97.2184Z" fill="#162929"/>
<path d="M823.744 34.0344L818.47 31.4144C818.606 30.4277 818.675 29.4297 818.675 28.4202C818.675 16.1599 808.739 6.22461 796.479 6.22461C784.219 6.22461 774.283 16.1599 774.283 28.4202C774.283 40.6806 784.219 50.6159 796.479 50.6159C806.074 50.6159 814.251 44.5254 817.347 35.9965L823.744 34.0344Z" fill="white" stroke="#162929" stroke-width="2" stroke-miterlimit="10"/>
<path d="M814.931 40.7373C813.513 42.1323 808.126 43.2211 801.729 40.7373" stroke="#162929" stroke-width="2" stroke-miterlimit="10"/>
<path d="M808.138 32.798C809.434 32.798 810.485 31.7469 810.485 30.4503C810.485 29.1537 809.434 28.1025 808.138 28.1025C806.841 28.1025 805.79 29.1537 805.79 30.4503C805.79 31.7469 806.841 32.798 808.138 32.798Z" fill="#162929"/>
<path d="M783.662 26.6729L798.815 50.4904" stroke="#162929" stroke-width="3.7526" stroke-miterlimit="10"/>
<path d="M780.146 84.6065C779.942 75.9188 782.687 65.8474 790.671 61.2086C798.576 56.6266 808.24 58.3846 813.048 66.2897C815.963 71.0759 816.848 76.8261 816.973 82.3382" stroke="#162929" stroke-width="2" stroke-miterlimit="10"/>
<path d="M775.938 84.6742L829.982 81.3965" stroke="#162929" stroke-width="2" stroke-miterlimit="10"/>
<path d="M786.463 77.9833L786.305 93.374C786.305 93.4874 786.305 93.5895 786.305 93.7029C786.316 100.791 788.675 107.426 792.985 112.632C795.151 115.229 797.839 117.464 800.992 119.074C804.145 120.696 807.797 121.66 811.574 121.694L851.009 121.955C852.778 121.966 854.23 120.537 854.253 118.768L854.445 100.451C854.468 98.7386 853.084 97.3322 851.361 97.3209L811.835 97.06L811.098 78.2442C811.166 71.4392 805.71 65.8704 798.905 65.8024C792.1 65.7343 786.532 71.1897 786.463 77.9833Z" fill="#162929"/>
<path d="M169.318 86.8064C169.318 86.8064 172.925 64.8716 194.123 53.0195" stroke="#162929" stroke-width="5.6289" stroke-miterlimit="10"/>
<path d="M160.449 59.3031C160.449 59.3031 175.227 37.8674 206.111 32.6162" stroke="#162929" stroke-width="7.5053" stroke-miterlimit="10"/>
<path d="M842.287 98.2964C842.435 97.8654 842.503 97.4117 842.593 96.9694C843.285 93.4989 845.656 91.1511 847.051 87.9981C847.969 85.934 848.979 82.3954 845.871 81.5107C844.306 81.0684 842.661 81.8963 842.185 83.3594C841.641 85.0607 841.13 86.2288 840.711 87.0001C840.393 87.5785 840.121 87.9414 839.883 88.2136C839.531 88.5993 839.236 88.8147 838.658 89.2004C838.091 89.5746 837.24 90.1077 836.355 90.9697C835.006 92.2853 834.359 93.7597 834.03 94.9279C833.701 96.1074 833.679 97.0148 833.679 97.389V97.5365C833.735 100.928 838.374 101.2 840.779 99.9636C841.164 99.7708 841.527 99.5326 841.799 99.2037C842.026 98.9315 842.174 98.6253 842.287 98.2964Z" fill="#162929"/>
<path d="M851.168 104.183H854.446" stroke="white" stroke-width="0.9382" stroke-miterlimit="10"/>
<path d="M851.168 109.785H854.446" stroke="white" stroke-width="0.9382" stroke-miterlimit="10"/>
<path d="M851.168 115.376H854.446" stroke="white" stroke-width="0.9382" stroke-miterlimit="10"/>
<path d="M817.302 16.0345L824.526 11.2256L827.555 20.9681L818.334 19.4823L817.302 16.0345Z" fill="#162929"/>
<path d="M566.367 368.08V452.746" stroke="#162929" stroke-width="5.6289" stroke-miterlimit="10"/>
<path d="M680.476 219.346V280.511" stroke="#162929" stroke-width="2" stroke-miterlimit="10"/>
<path d="M614.966 351.759C615.068 352.541 620.353 403.692 623.019 421.782C625.684 439.872 613.979 445.452 604.135 448.911C594.29 452.371 592.691 459.55 593.496 468.068H658.132V436.152L614.966 351.759Z" fill="white" stroke="#162929" stroke-width="2" stroke-miterlimit="10"/>
<path d="M680.476 223.338C682.092 223.338 683.402 222.028 683.402 220.412C683.402 218.795 682.092 217.485 680.476 217.485C678.86 217.485 677.55 218.795 677.55 220.412C677.55 222.028 678.86 223.338 680.476 223.338Z" fill="white" stroke="#162929" stroke-width="2" stroke-miterlimit="10"/>
<path d="M658.904 261.298V344.205C658.904 344.205 657.6 401.56 711.609 436.141L674.363 493.859C674.363 493.859 665.323 490.672 664.79 482.415C664.257 474.17 670.11 469.111 671.709 460.072C673.308 451.033 660.537 444.114 653.891 435.597C647.245 427.079 632.342 412.46 621.703 380.794C611.065 349.139 610.362 312.664 623.087 278.231L658.904 261.298Z" fill="white" stroke="#162929" stroke-width="2" stroke-miterlimit="10"/>
<path d="M659.573 353.948H697.239C697.239 353.948 715.794 269.895 658.904 267.49L659.573 353.948Z" fill="white" stroke="#162929" stroke-width="2" stroke-miterlimit="10"/>
<path d="M658.95 273.672C658.95 273.672 625.684 295.425 607.855 333.998C607.855 333.998 567.161 329.212 555.978 344.104C544.807 358.995 562.897 380.771 580.715 365.301C580.715 365.301 611.042 368.919 628.338 357.135C645.634 345.351 658.938 318.71 658.938 318.71V273.672H658.95Z" fill="#162929"/>
<path d="M572.095 359.573C573.546 358.904 575.214 358.417 576.813 358.439C581.746 358.507 582.915 365.584 579.127 368.068" stroke="white" stroke-width="0.9382" stroke-miterlimit="10"/>
<path d="M680.397 209.568C676.858 209.648 672.628 211.031 670.768 214.241C669.134 217.065 669.021 220.751 669.792 223.859" stroke="#162929" stroke-width="3.7526" stroke-miterlimit="10"/>
<path d="M659.527 218.608C658.212 214.831 659.028 210.442 661.433 207.243C663.837 204.045 667.716 202.071 671.697 201.754" stroke="#162929" stroke-width="3.7526" stroke-miterlimit="10"/>
<path d="M686.93 201.754C691.557 203.535 695.708 206.926 696.82 211.961C698.124 217.882 696.899 224.199 694.483 229.677" stroke="#162929" stroke-width="2.8145" stroke-miterlimit="10"/>
<path d="M692.714 195.97C696.355 196.378 700.698 199.622 702.502 202.945C704.305 206.268 705.235 211.36 704.691 215.092" stroke="#162929" stroke-width="2.8145" stroke-miterlimit="10"/>
<path d="M650.285 215.092C649.513 211.02 649.173 206.132 651.85 201.766C654.016 198.227 657.759 195.743 661.796 194.802" stroke="#162929" stroke-width="3.7526" stroke-miterlimit="10"/>
<path d="M713.65 401.674L735.143 370.813" stroke="#162929" stroke-width="3.7526" stroke-miterlimit="10"/>
<path d="M691.069 104.182L655.773 80.1943" stroke="#162929" stroke-width="7.034" stroke-miterlimit="10"/>
<path d="M633.714 228.282C619.288 228.282 607.594 239.975 607.594 254.402C607.594 255.842 607.719 257.237 607.935 258.61L598.011 262.704L609.33 263.793C613.106 273.569 622.588 280.522 633.703 280.522C648.13 280.522 659.823 268.829 659.823 254.402C659.823 239.975 648.141 228.282 633.714 228.282Z" fill="white" stroke="#162929" stroke-width="2" stroke-miterlimit="10"/>
<path d="M605.462 259.246V238.173H640.576V260.312C640.576 265.019 636.765 268.829 632.058 268.829H625.537C620.32 268.829 616.089 264.599 616.089 259.382V258.985L605.462 259.246Z" fill="#162929"/>
<path d="M637.922 251.941H662.658" stroke="#162929" stroke-width="3.7526" stroke-miterlimit="10"/>
<path d="M570.042 361.105C573.274 361.105 575.894 358.485 575.894 355.253C575.894 352.021 573.274 349.4 570.042 349.4C566.81 349.4 564.189 352.021 564.189 355.253C564.189 358.485 566.81 361.105 570.042 361.105Z" fill="white"/>
<path d="M1319.6 96.8105L1319.58 220.9H1306.88V212.915C1306.88 212.915 1302.49 221.898 1287.72 221.898C1272.95 221.898 1271.83 206.008 1271.83 206.008L1295.3 205.736V168.025L1246.9 212.915L1239.63 206.133L1245.62 199.748C1245.62 199.748 1233.95 202.538 1225.02 191.967C1216.1 181.397 1221.88 171.019 1223.67 168.025L1239.44 185.185C1239.44 185.185 1282.73 145.489 1281.94 145.489C1281.14 145.489 1319.6 96.8105 1319.6 96.8105Z" fill="white" stroke="#162929" stroke-width="2" stroke-miterlimit="10"/>
<path d="M1318.65 137.708C1318.65 137.708 1322.04 166.051 1350.58 167.843L1350.18 147.621C1350.18 147.621 1325.84 144.093 1319.29 105.43L1318.65 137.708Z" fill="#162929"/>
<path d="M1334.28 163.499C1334.07 164.906 1334.7 166.607 1335.25 167.719C1335.68 168.592 1336.33 169.522 1337.24 170.361C1338.15 171.2 1339.3 171.949 1340.73 172.493C1341.94 172.958 1342.85 173.389 1343.51 173.775C1345.01 174.66 1345.52 175.828 1345.82 177.484C1346.06 178.788 1347.32 179.639 1348.61 179.401C1349.92 179.162 1350.77 177.903 1350.53 176.61C1350.37 175.749 1350.18 174.887 1349.86 174.07C1349.31 172.618 1348.35 171.325 1347.26 170.248C1346.22 169.216 1344.8 168.478 1344.05 167.186C1343.42 166.085 1343.35 164.713 1342.68 163.636C1342.24 162.921 1341.55 162.388 1340.81 161.991C1339.19 161.118 1336.12 160.517 1334.81 162.229C1334.5 162.581 1334.35 163.023 1334.28 163.499Z" fill="#162929"/>
<path d="M1284.49 105.429L1278.15 99.5203L1204.73 139.103V37.1865L1277.82 86.0351H1284.49V105.429Z" fill="#162929"/>
<path d="M1204.81 139.141C1209.77 139.059 1213.41 115.901 1212.94 87.4161C1212.47 58.931 1208.07 35.9057 1203.11 35.9875C1198.15 36.0694 1194.51 59.2274 1194.98 87.7125C1195.45 116.198 1199.85 139.223 1204.81 139.141Z" fill="white" stroke="#162929" stroke-width="2" stroke-miterlimit="10"/>
<path d="M1244.39 117.429C1244.39 117.429 1252.49 128.782 1268.86 120.004C1281.75 113.085 1276.82 100.258 1276.82 100.258" stroke="#162929" stroke-width="2.8145" stroke-miterlimit="10" stroke-linecap="round"/>
<path d="M1260.05 126.197C1260.05 126.197 1270.67 148.948 1284.49 150.808C1298.3 152.668 1321.93 122.647 1319.42 95.96L1303.88 105.43L1287.79 128.329L1277.85 113.8L1260.05 126.197Z" fill="#162929"/>
<path d="M1170.9 53.8594L1201.42 61.912" stroke="#162929" stroke-width="7.5053" stroke-miterlimit="10"/>
<path d="M1283.18 123.009C1283.82 122.692 1284.4 122.216 1284.85 121.739C1286.08 120.469 1286.96 118.768 1287.09 116.987C1287.12 116.533 1287.11 116.057 1287.04 115.581C1286.95 114.957 1286.77 114.378 1286.53 113.868C1286.05 112.859 1285.28 112.065 1284.5 111.282C1283.57 110.329 1283.04 109.343 1283.23 107.982C1283.42 106.677 1282.5 105.464 1281.2 105.271C1280.37 105.158 1279.52 105.487 1279 106.133C1277.94 107.437 1278.32 109.876 1278.84 111.328C1279.23 112.36 1279.88 113.312 1280.03 114.424C1280.11 115.036 1280.02 115.683 1279.78 116.25C1279.55 116.76 1279.21 117.225 1279.03 117.758C1278.74 118.632 1278.98 119.46 1279.24 120.299C1279.49 121.138 1279.79 122.34 1280.51 122.885C1281.36 123.554 1282.31 123.44 1283.18 123.009Z" fill="#162929"/>
<path d="M1279.24 116.25L1275.52 109.661C1274.87 108.515 1273.41 108.107 1272.25 108.753C1271.1 109.4 1270.7 110.863 1271.34 112.02L1275.06 118.609C1275.71 119.755 1277.17 120.163 1278.33 119.517C1279.47 118.859 1279.88 117.396 1279.24 116.25Z" fill="#162929"/>
<path d="M1274.65 119.539L1270.93 112.95C1270.29 111.804 1268.82 111.396 1267.67 112.042C1266.51 112.689 1266.11 114.152 1266.76 115.309L1270.48 121.898C1271.13 123.044 1272.59 123.452 1273.75 122.806C1274.9 122.148 1275.31 120.685 1274.65 119.539Z" fill="#162929"/>
<path d="M1270.08 122.828L1266.36 116.239C1265.72 115.093 1264.25 114.685 1263.1 115.331C1261.95 115.978 1261.54 117.441 1262.19 118.598L1265.91 125.187C1266.56 126.333 1268.02 126.741 1269.18 126.095C1270.32 125.448 1270.73 123.985 1270.08 122.828Z" fill="#162929"/>
<path d="M1265.5 126.128L1261.78 119.539C1261.14 118.393 1259.67 117.985 1258.52 118.631C1257.37 119.278 1256.96 120.741 1257.61 121.898L1261.33 128.487C1261.97 129.633 1263.44 130.041 1264.59 129.394C1265.75 128.737 1266.16 127.274 1265.5 126.128Z" fill="#162929"/>
<path d="M1304.65 70.2256C1297.11 70.2256 1290.73 75.1025 1288.42 81.8621L1282.71 79.9567L1287.73 84.6408C1287.58 85.5368 1287.49 86.4555 1287.49 87.3855C1287.49 96.8558 1295.17 104.545 1304.65 104.545C1314.13 104.545 1321.81 96.8672 1321.81 87.3855C1321.81 77.9039 1314.12 70.2256 1304.65 70.2256Z" fill="white" stroke="#162929" stroke-width="2" stroke-miterlimit="10"/>
<path d="M1297.87 79.9561C1297.87 79.9561 1296.67 85.3434 1299.47 86.1373C1302.26 86.9312 1302.66 81.5439 1302.66 81.5439" stroke="#162929" stroke-width="2" stroke-miterlimit="10"/>
<path d="M1295.15 73.0945L1311.83 84.9465L1308.44 94.3261L1316.16 87.385V100.099C1316.16 100.099 1325.61 93.3167 1320.12 79.9562C1314.63 66.5957 1298.83 69.7827 1295.15 73.0945Z" fill="#162929"/>
<path d="M1287.2 90.3223H1298.47C1298.47 90.3223 1299.37 97.5129 1292.84 99.8039" stroke="#162929" stroke-width="2" stroke-miterlimit="10"/>
<path d="M892.599 301.199L883.764 302.39L883.753 302.401C879.795 296.118 872.82 291.944 864.858 291.944C852.518 291.944 842.515 301.948 842.515 314.287C842.515 326.627 852.518 336.63 864.858 336.63C877.197 336.63 887.201 326.627 887.201 314.287C887.201 311.906 886.815 309.615 886.123 307.46L892.599 301.199Z" fill="white" stroke="#162929" stroke-width="2" stroke-miterlimit="10"/>
<path d="M866.706 304.204C866.706 304.204 866.445 309.489 870.165 308.695C873.885 307.901 872.615 302.843 872.615 302.843" stroke="#162929" stroke-width="2" stroke-miterlimit="10"/>
<path d="M869.769 292.489C869.769 292.489 872.298 298.783 856.601 307.46V322C856.601 322 853.936 314.548 851.01 316.408C848.084 318.268 851.01 323.327 851.01 323.327H844.409C844.409 323.327 839.612 309.966 846.904 300.95C854.208 291.933 861.921 290.912 869.769 292.489Z" fill="#162929"/>
<path d="M883.14 327.114C883.14 327.114 870.54 327.171 872.57 320.139C874.26 314.287 886.951 310.986 886.951 310.986" stroke="#162929" stroke-width="2" stroke-miterlimit="10"/>
<path d="M881.621 329.042L887.224 436.108H915.397C915.397 436.108 911.143 445.68 897.307 448.164C883.47 450.648 877.085 442.13 877.085 442.13V450.648H869.917V467.32H900.845C900.845 467.32 891.976 480.442 875.667 482.575C859.357 484.707 851.191 474.771 851.191 474.771V482.575H844.409V323.326" fill="white"/>
<path d="M881.621 329.042L887.224 436.108H915.397C915.397 436.108 911.143 445.68 897.307 448.164C883.47 450.648 877.085 442.13 877.085 442.13V450.648H869.917V467.32H900.845C900.845 467.32 891.976 480.442 875.667 482.575C859.357 484.707 851.191 474.771 851.191 474.771V482.575H844.409V323.326" stroke="#162929" stroke-width="2" stroke-miterlimit="10"/>
<path d="M866.706 336.63V383.981L844.42 390.718V324.993C844.42 324.982 852.019 335.031 866.706 336.63Z" fill="#162929"/>
<path d="M891.272 308.775L895.718 311.758L970.902 282.179V367.661L897.658 327.886L888.981 329.768L891.272 308.775Z" fill="#162929"/>
<path d="M976.876 368.685C987.008 367.933 993.792 348.049 992.028 324.273C990.264 300.498 980.62 281.833 970.487 282.585C960.355 283.337 953.571 303.22 955.335 326.996C957.099 350.772 966.743 369.436 976.876 368.685Z" fill="white" stroke="#162929" stroke-width="2" stroke-miterlimit="10"/>
<path d="M902.251 346.634C895.877 344.66 893.801 339.432 897.646 327.886" stroke="#162929" stroke-width="2.8145" stroke-miterlimit="10" stroke-linecap="round"/>
<path d="M978.648 299.69L1018.73 290.605" stroke="#162929" stroke-width="5.6289" stroke-miterlimit="10"/>
<path d="M977.81 320.128L999.449 318.71" stroke="#162929" stroke-width="6.5671" stroke-miterlimit="10"/>
<path d="M997.68 360.209L1034.21 367.66" stroke="#162929" stroke-width="3.7526" stroke-miterlimit="10"/>
<path d="M899.394 325.924V313.391C899.394 313.391 903.25 313.13 903.318 316.669C903.386 320.219 900.845 320.128 900.845 320.128L905.11 329.043" stroke="white" stroke-width="2" stroke-miterlimit="10"/>
<path d="M912.732 308.23L907.945 310.204V330.052L912.108 332.536" stroke="white" stroke-width="2" stroke-miterlimit="10"/>
<path d="M907.945 319.425H911.2" stroke="white" stroke-width="2" stroke-miterlimit="10"/>
<path d="M919.207 305.509C913.99 306.019 913.604 318.007 913.82 323.474C913.945 326.559 914.013 329.576 915.011 332.638C915.703 334.759 917.007 335.632 918.47 336.426" stroke="white" stroke-width="2" stroke-miterlimit="10"/>
<path d="M922.043 338.807V304.136C922.043 304.136 928.133 303.932 927.895 314.332C927.657 324.732 922.599 324.109 922.599 324.109L929.755 342.732" stroke="white" stroke-width="2" stroke-miterlimit="10"/>
<path d="M939.022 297.139V340.146C939.022 340.146 939.022 344.706 935.744 344.864C932.466 345.035 932.557 340.906 932.557 340.906V299.588" stroke="white" stroke-width="2" stroke-miterlimit="10"/>
<path d="M951.928 352.588V294.088" stroke="white" stroke-width="2" stroke-miterlimit="10"/>
<path d="M947.164 295.199L956.827 291.615" stroke="white" stroke-width="2" stroke-miterlimit="10"/>
<path d="M843.83 389.006V406.449C843.83 407.969 845.066 409.206 846.586 409.206C848.106 409.206 849.342 407.969 849.342 406.449V389.006C849.342 387.486 848.106 386.25 846.586 386.25C845.066 386.25 843.83 387.475 843.83 389.006Z" fill="#162929"/>
<path d="M849.604 385.297V405.497C849.604 407.016 850.84 408.253 852.36 408.253C853.879 408.253 855.116 407.016 855.116 405.497V385.297C855.116 383.777 853.879 382.541 852.36 382.541C850.84 382.541 849.604 383.777 849.604 385.297Z" fill="#162929"/>
<path d="M855.388 385.569V403.932C855.388 405.451 856.624 406.688 858.144 406.688C859.663 406.688 860.9 405.451 860.9 403.932V385.569C860.9 384.05 859.663 382.813 858.144 382.813C856.613 382.825 855.388 384.05 855.388 385.569Z" fill="#162929"/>
<path d="M861.194 380.375V401.153C861.194 403.183 862.431 404.817 863.95 404.817C865.47 404.817 866.706 403.172 866.706 401.153V380.375C866.706 378.345 865.47 376.712 863.95 376.712C862.431 376.712 861.194 378.345 861.194 380.375Z" fill="#162929"/>
<path d="M883.141 358.123C883.141 358.123 889.594 386.432 911.144 380.046C916.792 378.379 920.16 372.946 921.158 367.049C922.054 361.752 920.727 356.206 918.811 351.284C917.983 349.163 917.143 347.019 915.953 345.069C914.886 343.333 913.48 341.95 911.824 340.759C908.274 338.207 903.17 336.336 898.759 337.311C897.182 337.663 895.844 338.672 895.141 340.135C894.267 341.938 894.607 343.708 894.97 345.613C895.447 348.165 896.354 350.569 897.205 353.008C899.405 359.302 901.617 362.002 901.9 365.416C901.968 366.255 899.666 364.917 900.108 365.676L882.358 328.158L883.141 358.123Z" fill="#162929"/>
<path d="M884.184 329.326L904.746 372.98" stroke="white" stroke-width="2" stroke-miterlimit="10"/>
<path d="M923.37 340.078C923.37 340.078 918.845 345.93 912.527 345.93" stroke="#162929" stroke-width="2.8145" stroke-miterlimit="10"/>
<path d="M892.895 336.062V349.298C892.895 350.455 893.938 351.385 895.231 351.385C896.524 351.385 897.567 350.444 897.567 349.298V336.062C897.567 334.906 896.524 333.976 895.231 333.976C893.938 333.976 892.895 334.917 892.895 336.062Z" fill="#162929" stroke="white" stroke-width="0.2345" stroke-miterlimit="10"/>
<path d="M897.794 334.872V350.206C897.794 351.363 898.837 352.293 900.13 352.293C901.423 352.293 902.467 351.351 902.467 350.206V334.872C902.467 333.715 901.423 332.785 900.13 332.785C898.837 332.785 897.794 333.727 897.794 334.872Z" fill="#162929" stroke="white" stroke-width="0.2345" stroke-miterlimit="10"/>
<path d="M902.683 336.097V350.036C902.683 351.193 903.726 352.123 905.019 352.123C906.312 352.123 907.355 351.181 907.355 350.036V336.097C907.355 334.94 906.312 334.01 905.019 334.01C903.737 333.999 902.683 334.94 902.683 336.097Z" fill="#162929" stroke="white" stroke-width="0.2345" stroke-miterlimit="10"/>
<path d="M907.616 333.556V349.332C907.616 350.875 908.66 352.111 909.953 352.111C911.246 352.111 912.289 350.863 912.289 349.332V333.556C912.289 332.014 911.246 330.777 909.953 330.777C908.66 330.777 907.616 332.014 907.616 333.556Z" fill="#162929" stroke="white" stroke-width="0.2345" stroke-miterlimit="10"/>
<path d="M944.057 295.392V349.457" stroke="white" stroke-width="2" stroke-miterlimit="10"/>
<path d="M199.623 111.759V259.382L221.966 283.494V271.087C221.966 271.087 225.936 283.585 239.523 292.897C253.11 302.208 271.461 297.683 271.461 297.683L242.2 262.569V225.062L261.356 244.218V229.848C261.356 229.848 267.56 244.933 283.608 254.709C300.462 264.962 316.953 258.055 316.953 258.055L275.193 216.295V168.41L235.962 114.549L199.623 111.759Z" fill="white" stroke="#162929" stroke-width="2" stroke-miterlimit="10"/>
<path d="M242.2 262.569V191.819" stroke="#162929" stroke-width="2" stroke-miterlimit="10"/>
<path d="M199.623 159.099C199.623 159.099 217.35 181.181 231.901 188.621C246.453 196.072 259.008 192.556 261.617 182.769C265.303 168.92 246.691 134.873 246.691 134.873L250.082 136.937C250.082 136.937 256.796 122.34 239.523 118.677C224.098 115.399 227.263 142.869 230.745 153.507L199.623 117.327V159.099Z" fill="#162929"/>
<path d="M249.186 132.695C249.186 132.695 259.201 163.635 281.442 172.13C298.863 178.776 299.135 142.608 279.242 121.75L252.725 117.327C252.725 117.327 244.945 115.274 241.497 120.956C237.811 127.035 249.186 132.695 249.186 132.695Z" fill="#162929"/>
<path d="M254.573 118.893L286.296 153.235" stroke="white" stroke-width="2" stroke-miterlimit="10"/>
<path d="M224.314 143.787L244.945 169.737" stroke="white" stroke-width="2" stroke-miterlimit="10"/>
<path d="M251.523 128.771C251.523 128.771 248.528 126.038 244.944 128C241.735 129.769 240.827 132.298 240.601 135.519" stroke="white" stroke-width="0.9382" stroke-miterlimit="10"/>
<path d="M247.656 122.205C247.656 122.205 239.342 119.834 235.974 131.153" stroke="white" stroke-width="0.9382" stroke-miterlimit="10"/>
<path d="M244.944 118.359C244.944 118.359 236.245 118.654 233.421 124.643C232.219 127.183 231.901 128.76 231.901 128.76" stroke="white" stroke-width="0.9382" stroke-miterlimit="10"/>
<path d="M219.766 121.229C234.211 121.229 245.92 109.519 245.92 95.0748C245.92 80.6304 234.211 68.9209 219.766 68.9209C205.322 68.9209 193.612 80.6304 193.612 95.0748C193.612 109.519 205.322 121.229 219.766 121.229Z" fill="white" stroke="#162929" stroke-width="2" stroke-miterlimit="10"/>
<path d="M233.762 98.874C233.762 98.874 226.22 107.392 223.543 111.475C220.481 116.125 232.934 117.679 232.934 117.679L240.692 110.783L233.762 98.874Z" stroke="#162929" stroke-width="2" stroke-miterlimit="10"/>
<path d="M219.766 98.4437L227.308 95.0752L223.542 101.903" stroke="#162929" stroke-width="2" stroke-miterlimit="10"/>
<path d="M210.103 107.403C210.103 107.403 206.383 103.15 209.218 100.837C212.053 98.5343 215.07 102.969 215.07 102.969" stroke="#162929" stroke-width="2" stroke-miterlimit="10"/>
<path d="M223.542 92.5008C223.542 92.5008 220.004 88.2363 223.542 85.968C226.026 84.3688 228.726 89.4045 228.726 89.4045" stroke="#162929" stroke-width="2" stroke-miterlimit="10"/>
<path d="M199.623 111.759L223.135 73.4352C223.135 73.4352 231.028 76.248 234.76 89.0754L239.535 77.9379C239.535 77.9379 231.289 67.3107 217.192 69.046C203.105 70.7813 196.164 81.0455 194.315 89.0754C192.455 97.1166 194.293 104.591 199.623 111.759Z" fill="#162929"/>
<path d="M240.601 117.679C240.601 117.679 243.073 117.611 248.381 122.998C253.609 128.306 252.713 133.943 252.713 133.943" stroke="white" stroke-width="2" stroke-miterlimit="10"/>
<path d="M254.438 116.533C254.676 121.274 255.3 126.332 254.404 131.028C253.848 133.931 249.935 137.697 247.655 133.954" stroke="#162929" stroke-width="2.8145" stroke-miterlimit="10" stroke-linecap="round"/>
<path d="M235.452 106.179L232.628 103.797C232.628 103.797 224.337 109.876 232.492 116.137L235.951 114.549C235.951 114.549 320.673 128.646 320.276 128.646C319.879 128.646 333.977 93.8049 333.977 93.8049L298.069 39.002L235.452 106.179Z" fill="#162929"/>
<path d="M328.421 128.158C346.117 123.98 355.562 99.837 349.517 74.2339C343.471 48.6309 324.224 31.263 306.528 35.4417C288.831 39.6203 279.386 63.7632 285.432 89.3662C291.477 114.969 310.724 132.337 328.421 128.158Z" fill="white" stroke="#162929" stroke-width="2" stroke-miterlimit="10"/>
<path d="M336.37 68.9215L360.845 62.5361" stroke="#162929" stroke-width="5.6289" stroke-miterlimit="10"/>
<path d="M1087.21 0.950195V30.0983H1105.68L1114.48 8.88936L1126.16 30.0983H1176.37C1176.37 30.0983 1180.26 7.73251 1155.01 0.950195H1087.21Z" fill="#162929"/>
<path d="M390.674 151.228L408.673 134.283" stroke="#162929" stroke-width="3.517" stroke-miterlimit="10"/>
<path d="M453.166 149.708L484.605 156.468" stroke="#162929" stroke-width="5.6289" stroke-miterlimit="10"/>
<path d="M60.0645 44.5703H79.2659" stroke="#162929" stroke-width="5.6289" stroke-miterlimit="10"/>
<path d="M40.2051 29.1914H60.0643" stroke="#162929" stroke-width="5.6289" stroke-miterlimit="10"/>
<path d="M15.9219 250.388L50.4459 215.875" stroke="#162929" stroke-width="10.551" stroke-miterlimit="10"/>
<path d="M1301.07 320.831L1318.75 293.327" stroke="#162929" stroke-width="5.2755" stroke-miterlimit="10"/>
<path d="M1249.63 21.3086L1266.14 37.1869" stroke="#162929" stroke-width="2.6377" stroke-miterlimit="10"/>
<path d="M912.526 26.6729L925.898 41.4737L911.199 53.4505" stroke="#162929" stroke-width="5.2755" stroke-miterlimit="10"/>
<path d="M780.135 286.193C784.043 286.193 787.212 283.025 787.212 279.116C787.212 275.208 784.043 272.039 780.135 272.039C776.226 272.039 773.058 275.208 773.058 279.116C773.058 283.025 776.226 286.193 780.135 286.193Z" stroke="#162929" stroke-width="5.2755" stroke-miterlimit="10"/>
<path d="M802.954 374.828C802.954 374.828 813.332 387.27 814.931 406.846C816.53 426.421 810.485 439.668 810.485 439.668" stroke="#162929" stroke-width="8.4434" stroke-miterlimit="10"/>
<path d="M1072.69 306.325C1068.36 310 1066.73 316.623 1069.1 321.784C1071.47 326.944 1077.77 330.041 1083.25 328.498C1098.74 324.132 1086.53 305.123 1082.37 322.067C1081.52 325.504 1081.11 329.213 1082.32 332.536C1083.55 335.87 1086.79 338.66 1090.33 338.365" stroke="#162929" stroke-width="3.517" stroke-miterlimit="10"/>
<path d="M1360 147.723C1360 147.882 1357.4 147.961 1355.99 147.961C1353.66 147.961 1351.81 147.791 1350.56 147.632C1349.94 147.553 1349.46 147.474 1349.16 147.405C1349 147.371 1348.89 147.349 1348.82 147.337L1348.75 147.326H1348.74C1347.46 147.02 1346.16 147.802 1345.86 149.095C1345.55 150.377 1346.33 151.67 1347.62 151.987C1347.76 152.022 1350.87 152.759 1355.99 152.759C1357.41 152.759 1360 152.691 1360 152.543V147.723Z" fill="#162929"/>
<path d="M1360 152.758C1360 152.917 1357.4 152.996 1355.99 152.996C1353.66 152.996 1351.81 152.826 1350.56 152.667C1349.94 152.588 1349.46 152.509 1349.16 152.441C1349 152.407 1348.89 152.384 1348.82 152.373L1348.75 152.361H1348.74C1347.46 152.055 1346.16 152.838 1345.86 154.131C1345.55 155.412 1346.33 156.705 1347.62 157.023C1347.76 157.057 1350.87 157.794 1355.99 157.794C1357.41 157.794 1360 157.726 1360 157.578V152.758Z" fill="#162929"/>
<path d="M1360 157.976C1360 158.135 1357.4 158.214 1355.99 158.214C1353.66 158.214 1351.81 158.044 1350.56 157.885C1349.94 157.806 1349.46 157.726 1349.16 157.658C1349 157.624 1348.89 157.602 1348.82 157.59L1348.75 157.579H1348.74C1347.46 157.273 1346.16 158.055 1345.86 159.348C1345.55 160.63 1346.33 161.923 1347.62 162.24C1347.76 162.274 1350.87 163.012 1355.99 163.012C1357.41 163.012 1360 162.944 1360 162.796V157.976Z" fill="#162929"/>
<path d="M1360 167.923V163.114C1360 163.272 1357.4 163.352 1355.99 163.352C1353.66 163.352 1351.81 163.182 1350.56 163.023C1349.94 162.944 1349.46 162.864 1349.16 162.796C1349 162.762 1348.89 162.739 1348.82 162.728L1348.75 162.717H1348.74C1347.46 162.41 1346.16 163.193 1345.86 164.486C1345.55 165.768 1346.33 167.061 1347.62 167.378C1347.76 167.412 1350.87 168.149 1355.99 168.149C1357.41 168.149 1360 168.07 1360 167.923Z" fill="#162929"/>
<path d="M811.336 2.45883C810.599 1.59686 809.805 0.825631 808.954 0.133789H781.212C778.626 1.94846 776.415 4.26216 774.827 7.01818C772.638 10.829 771.64 15.1275 771.277 19.4713C771.22 20.1065 770.744 28.4086 770.506 28.4086L823.04 27.2857C823.04 27.2857 819.729 22.9872 817.857 17.668C816.054 12.5643 814.954 6.68927 811.336 2.45883Z" fill="white" stroke="#162929" stroke-width="2" stroke-miterlimit="10"/>
</g>
</svg>
