<svg width="62" height="53" viewBox="0 0 62 53" fill="none" xmlns="http://www.w3.org/2000/svg">
<path d="M37.0126 10.5316C37.7137 10.7608 38.4649 10.3533 38.6903 9.6403C38.9156 8.92725 38.515 8.16327 37.8138 7.93408C37.1127 7.70489 36.3615 8.11234 36.1361 8.82539C35.9108 9.53844 36.3114 10.3024 37.0126 10.5316Z" fill="white"/>
<path d="M42.2704 12.2118C42.9715 12.441 43.7227 12.0335 43.9481 11.3205C44.1734 10.6074 43.7728 9.84345 43.0717 9.61426C42.3705 9.38506 41.6193 9.79252 41.3939 10.5056C41.1686 11.2186 41.5692 11.9826 42.2704 12.2118Z" fill="white"/>
<path d="M41.4996 14.7659C41.6248 14.5112 41.5247 14.2311 41.2742 14.1037C41.0238 13.9764 40.7484 14.0783 40.6232 14.3329C40.3978 14.8168 40.1224 15.4025 39.7718 15.9118C39.5965 16.1665 39.4213 16.3957 39.246 16.5739C39.0707 16.7522 38.8704 16.8795 38.6951 16.9559C38.5448 17.0069 38.4196 17.0323 38.2944 17.0323C38.019 17.0323 37.7185 16.905 37.4681 16.6758C37.2177 16.4466 37.0174 16.1156 36.9172 15.7845C36.817 15.4534 36.792 15.0714 36.792 14.6895C36.792 14.2311 36.8421 13.7472 36.8671 13.2379C36.8922 12.9578 36.6668 12.7286 36.4164 12.7031C36.141 12.6776 35.9156 12.9068 35.8906 13.1615C35.8655 13.6454 35.8154 14.1547 35.8154 14.664C35.8154 15.1224 35.8655 15.5808 35.9907 16.0392C36.141 16.5485 36.4414 17.0323 36.817 17.3889C37.2177 17.7454 37.7185 18 38.2944 18C38.5448 18 38.7952 17.9491 39.0206 17.8472C39.3461 17.7199 39.6466 17.5162 39.897 17.2615C40.2726 16.905 40.5731 16.4466 40.8486 15.9882C41.099 15.5808 41.3243 15.1224 41.4996 14.7659Z" fill="white"/>
<path d="M16.1389 23.7569L16.293 23.7122C16.6673 23.6002 16.9755 23.3539 17.1957 23.0628C17.4159 22.7717 17.526 22.4135 17.526 22.0328C17.526 21.7641 17.4599 21.4954 17.3498 21.2491L17.2838 21.1148C17.2177 20.9804 17.1957 20.8461 17.1957 20.7341C17.1957 20.5326 17.2618 20.3535 17.3718 20.1967C17.4819 20.04 17.6581 19.928 17.8562 19.8833C18.2525 19.7937 18.5828 19.5474 18.825 19.2563C19.0451 18.9652 19.1772 18.5846 19.1772 18.1815C19.1772 17.9352 19.1332 17.6889 19.0231 17.4426L18.869 17.1291C18.825 17.0172 18.7809 16.8828 18.7809 16.7485C18.7809 16.5694 18.825 16.3902 18.9351 16.2559C19.0231 16.0991 19.1772 15.9872 19.3534 15.92L20.9386 15.2931C21.1588 15.2035 21.2689 14.9572 21.1808 14.7333C21.0927 14.5094 20.8505 14.3974 20.6304 14.487L19.0451 15.1139C18.6929 15.2483 18.4287 15.4722 18.2305 15.7633C18.0324 16.0544 17.9443 16.3902 17.9443 16.7485C17.9443 16.9948 17.9883 17.2411 18.0984 17.4874L18.2525 17.8009C18.2966 17.9352 18.3406 18.0472 18.3406 18.1815C18.3406 18.383 18.2745 18.5622 18.1645 18.7189C18.0544 18.8757 17.8782 18.9876 17.6801 19.0324C17.2838 19.122 16.9535 19.3683 16.7113 19.6593C16.4912 19.9728 16.3591 20.3311 16.3591 20.7341C16.3591 21.0028 16.4251 21.2715 16.5352 21.5178L16.6012 21.6522C16.6673 21.7865 16.6893 21.9209 16.6893 22.0328C16.6893 22.2119 16.6233 22.3911 16.5132 22.5478C16.4031 22.7045 16.249 22.8165 16.0728 22.8613L15.9187 22.9061C15.5444 23.018 15.2362 23.2419 15.016 23.5554C14.7958 23.8689 14.6637 24.2272 14.6637 24.6078C14.6637 24.7869 14.6858 24.9661 14.7518 25.1452L14.8399 25.4587C14.8619 25.5482 14.8839 25.6378 14.8839 25.7274C14.8839 25.9289 14.8179 26.1304 14.6858 26.2871C14.5537 26.4439 14.3775 26.5558 14.1794 26.6006H14.1574L13.0785 26.8021C12.8363 26.8469 12.6822 27.0708 12.7262 27.3171C12.7703 27.5634 12.9905 27.7202 13.2326 27.6754L14.3115 27.4739C14.7298 27.3843 15.0821 27.1604 15.3243 26.8693C15.5664 26.5558 15.7206 26.1752 15.7206 25.7721C15.7206 25.593 15.6985 25.4139 15.6325 25.2348L15.5444 24.9213C15.5224 24.8317 15.5004 24.7422 15.5004 24.6526C15.5004 24.4735 15.5664 24.2943 15.6765 24.1376C15.7866 23.9361 15.9407 23.8241 16.1389 23.7569Z" fill="white"/>
<path d="M36.3063 23.6227C34.5669 23.0853 32.7175 24.0705 32.1891 25.8394C31.6607 27.6083 32.6294 29.4892 34.3688 30.0266C36.1081 30.5639 37.9575 29.5787 38.4859 27.8098C39.0364 26.0409 38.0456 24.1601 36.3063 23.6227Z" fill="white"/>
<path d="M33.026 33.5421C31.2866 33.0047 29.4372 33.9899 28.9088 35.7588C28.3804 37.5277 29.3491 39.4086 31.0885 39.9684C32.8278 40.5058 34.6773 39.5206 35.2057 37.7516C35.7341 35.9827 34.7653 34.0795 33.026 33.5421Z" fill="white"/>
<path d="M22.3035 51.7235C22.2815 51.4772 22.0834 51.2981 21.8412 51.3205H21.7971C21.621 51.3205 21.4669 51.2533 21.3348 51.119C21.2247 51.007 21.1586 50.8279 21.1586 50.6711C21.1586 50.604 21.1586 50.5368 21.1807 50.4696L21.2687 50.1561C21.3128 49.9994 21.3348 49.8427 21.3348 49.7083C21.3348 49.3053 21.1586 48.9246 20.8944 48.6335C20.6302 48.3424 20.2559 48.1857 19.8376 48.1857C19.7936 48.1857 19.7275 48.1857 19.6835 48.1857L18.979 48.2529C18.9569 48.2529 18.9349 48.2529 18.9129 48.2529C18.7368 48.2529 18.5827 48.1857 18.4505 48.0514C18.3405 47.9394 18.2744 47.7603 18.2744 47.6035C18.2744 47.5364 18.2744 47.4692 18.2964 47.402L18.3184 47.3124C18.3625 47.1557 18.3845 46.999 18.3845 46.8646C18.3845 46.4616 18.2084 46.0809 17.9442 45.7898C17.68 45.5211 17.3057 45.342 16.8873 45.342C16.7993 45.342 16.7112 45.342 16.6452 45.3644L16.2709 45.4316C16.2268 45.4316 16.2048 45.4316 16.1608 45.4316C15.9846 45.4316 15.8305 45.3644 15.7204 45.2301C15.6104 45.0957 15.5443 44.939 15.5443 44.7822C15.5443 44.7151 15.5443 44.6479 15.5663 44.5807L15.6104 44.4464C15.6544 44.2896 15.6764 44.1329 15.6764 43.9985C15.6764 43.5955 15.5223 43.2149 15.2361 42.9238C14.9719 42.6551 14.5976 42.4759 14.1792 42.4759C14.1352 42.4759 14.1132 42.4759 14.0692 42.4759L13.3646 42.5207H13.3206C13.1444 42.5207 12.9903 42.4536 12.8802 42.3192C12.7702 42.2072 12.7041 42.0281 12.7041 41.8714C12.7041 41.8042 12.7041 41.737 12.7261 41.6699L12.7922 41.4236C12.8362 41.2668 12.8582 41.1101 12.8582 40.9757C12.8582 40.5727 12.7041 40.192 12.4179 39.901C12.1317 39.6099 11.7794 39.4531 11.3611 39.4531C11.317 39.4531 11.295 39.4531 11.251 39.4531H11.1189H11.0748C10.8987 39.4531 10.7446 39.386 10.6125 39.2516C10.5024 39.1397 10.4363 38.9605 10.4363 38.8038C10.4363 38.7142 10.4584 38.647 10.4804 38.5575L10.5244 38.4231C10.5905 38.244 10.6345 38.0425 10.6345 37.8634C10.6345 37.4603 10.4804 37.0797 10.2162 36.811C9.95197 36.5423 9.57768 36.3408 9.15936 36.3408L7.33194 36.3184C7.08975 36.3184 6.8916 36.4975 6.8916 36.7438C6.8916 36.9901 7.06774 37.1916 7.30992 37.1916L9.13734 37.214C9.31348 37.214 9.4676 37.3036 9.57768 37.4155C9.68777 37.5275 9.75382 37.7066 9.75382 37.8634C9.75382 37.9529 9.7318 38.0201 9.70978 38.1097L9.66575 38.244C9.5997 38.4231 9.55566 38.6247 9.55566 38.8038C9.55566 39.2068 9.70978 39.5875 9.97399 39.8562C10.2382 40.1249 10.6125 40.3264 11.0308 40.304C11.0748 40.304 11.0969 40.304 11.1409 40.304H11.273H11.317C11.4932 40.304 11.6473 40.3712 11.7574 40.5055C11.8675 40.6175 11.9335 40.7966 11.9335 40.9533C11.9335 41.0205 11.9335 41.0877 11.9115 41.1549L11.8454 41.4012C11.8014 41.5579 11.7794 41.7146 11.7794 41.849C11.7794 42.252 11.9335 42.6327 12.2197 42.9238C12.4839 43.1925 12.8582 43.3716 13.2765 43.3716C13.3206 43.3716 13.3426 43.3716 13.3866 43.3716L14.0912 43.3268H14.1352C14.3113 43.3268 14.4655 43.394 14.5976 43.5283C14.7077 43.6403 14.7737 43.8194 14.7737 43.9762C14.7737 44.0433 14.7737 44.1105 14.7517 44.1777L14.7077 44.312C14.6636 44.4688 14.6416 44.6255 14.6416 44.7598C14.6416 45.1629 14.8177 45.5435 15.0819 45.8346C15.3461 46.1033 15.7204 46.2824 16.1388 46.2824C16.2268 46.2824 16.3149 46.2824 16.3809 46.2601L16.7552 46.1929C16.7993 46.1929 16.8213 46.1929 16.8653 46.1929C17.0415 46.1929 17.1956 46.2601 17.3057 46.3944C17.4157 46.5288 17.4818 46.6855 17.4818 46.8422C17.4818 46.9094 17.4818 46.9766 17.4598 47.0437L17.4378 47.1333C17.3937 47.2901 17.3717 47.4468 17.3717 47.5811C17.3717 47.9842 17.5479 48.3648 17.8121 48.6559C18.0763 48.9246 18.4506 49.1037 18.8689 49.1037C18.9129 49.1037 18.979 49.1037 19.023 49.1037L19.7275 49.0366C19.7496 49.0366 19.7716 49.0366 19.7936 49.0366C19.9697 49.0366 20.1238 49.1037 20.2559 49.2381C20.366 49.35 20.4321 49.5292 20.4321 49.6859C20.4321 49.7531 20.4321 49.8203 20.4101 49.8874L20.322 50.2009C20.278 50.3576 20.2559 50.5144 20.2559 50.6487C20.2559 51.0518 20.4101 51.4324 20.6963 51.7235C20.9605 51.9922 21.3348 52.1713 21.7531 52.1713C21.7971 52.1713 21.8192 52.1713 21.8632 52.1713C22.1494 52.1713 22.3256 51.9474 22.3035 51.7235Z" fill="white"/>
<path d="M59.4237 26.5112C59.9301 26.5112 60.3485 26.0858 60.3485 25.5708C60.3485 25.0558 59.9301 24.6304 59.4237 24.6304C58.9173 24.6304 58.499 25.0558 58.499 25.5708C58.499 26.0858 58.9173 26.5112 59.4237 26.5112ZM59.4237 25.2125C59.6219 25.2125 59.776 25.3693 59.776 25.5708C59.776 25.7723 59.6219 25.9291 59.4237 25.9291C59.2256 25.9291 59.0715 25.7723 59.0715 25.5708C59.0715 25.3693 59.2256 25.2125 59.4237 25.2125Z" fill="white"/>
<path d="M61.0748 27.5186C61.2451 27.5186 61.3831 27.3782 61.3831 27.2051C61.3831 27.032 61.2451 26.8916 61.0748 26.8916C60.9046 26.8916 60.7666 27.032 60.7666 27.2051C60.7666 27.3782 60.9046 27.5186 61.0748 27.5186Z" fill="white"/>
<path d="M61.4496 33.4749C61.2955 33.4973 61.1634 33.5196 61.0313 33.5196C60.2607 33.5196 59.5341 33.2062 58.9837 32.6464C58.4332 32.0866 58.125 31.3477 58.125 30.564C58.125 30.2057 58.191 29.8475 58.3232 29.4892L58.4993 29.0414L58.0369 28.9294C56.2315 28.5264 54.9105 26.8471 54.9105 24.9662C54.9105 24.6975 54.9325 24.4064 54.9986 24.1377L55.0867 23.7347L54.6903 23.6675C54.294 23.6003 53.8977 23.5332 53.5234 23.5332L50.6832 23.3764C51.9382 21.9658 52.8629 20.3536 53.4134 18.5623C53.7876 17.3532 53.9638 16.0769 53.9638 14.8006C53.9638 8.55344 49.4723 2.77651 43.0433 0.761301C41.4581 0.268695 39.8068 0 38.1776 0C35.0952 0 32.1889 0.873257 29.745 2.5526C27.2131 4.29911 25.4297 6.69497 24.571 9.51627C24.1967 10.7254 24.0206 11.9793 24.0206 13.2556C24.0206 13.8602 24.0646 14.4647 24.1527 15.0469L21.8849 13.6362C20.4318 12.7406 18.7805 12.2704 17.0632 12.2704C13.9808 12.2704 11.1847 13.793 9.53338 16.368C8.58665 17.8458 8.08025 19.5699 8.08025 21.3164C8.08025 24.5184 9.6875 27.4516 12.3736 29.1086L15.9403 31.3253C16.2266 31.5044 16.4027 31.8179 16.4027 32.1538C16.4027 32.3553 16.3366 32.5568 16.2266 32.7136L14.7294 34.8407C14.4212 35.2662 13.9368 35.5349 13.4084 35.5349C13.1882 35.5349 12.968 35.4901 12.7479 35.4005C11.5589 34.8631 10.304 34.5944 9.00497 34.5944C5.63636 34.5944 2.59801 36.4305 1.05682 39.3861C0.37429 40.7072 0 42.185 0 43.6629C0 47.2678 2.09162 50.5594 5.35014 52.0148L7.52983 53H9.51136L5.65838 51.2759C2.68608 49.9548 0.770597 46.9544 0.770597 43.6629C0.770597 42.297 1.10085 40.9983 1.73935 39.7668C3.12642 37.0798 5.92258 35.4005 8.98295 35.4005C10.1719 35.4005 11.3168 35.6468 12.3956 36.1394C12.7038 36.2738 13.0341 36.3409 13.3643 36.3409C14.1349 36.3409 14.8835 35.9603 15.3239 35.3109L16.821 33.1838C17.0412 32.8927 17.1513 32.5344 17.1513 32.1538C17.1513 31.5268 16.843 30.967 16.3146 30.6312L12.7479 28.4144C10.304 26.8918 8.82883 24.2273 8.82883 21.3164C8.82883 19.7267 9.29119 18.1593 10.1499 16.7934C11.647 14.4647 14.201 13.0541 17.0192 13.0541C18.5604 13.0541 20.1016 13.4795 21.4226 14.308L25.2315 16.6591L25.0554 15.741C24.8793 14.9125 24.7912 14.0617 24.7912 13.2332C24.7912 12.0465 24.9673 10.8597 25.3196 9.74018C26.1342 7.09801 27.7855 4.8365 30.1413 3.22433C32.4531 1.63456 35.2053 0.806084 38.1335 0.806084C39.6967 0.806084 41.2599 1.05239 42.7571 1.5226C48.8558 3.44825 53.1271 8.88931 53.1271 14.8006C53.1271 15.9873 52.951 17.1741 52.5987 18.316C52.0043 20.264 50.9474 21.9882 49.4723 23.4436L48.8118 24.0929L53.4354 24.3392C53.6555 24.3392 53.8757 24.3616 54.1179 24.4064C54.0959 24.6079 54.0739 24.7871 54.0739 24.9886C54.0739 25.1901 54.0959 25.414 54.1179 25.6379L54.0518 25.7051L54.0739 25.7723C54.0959 25.8619 54.1179 25.9738 54.1179 26.0634V26.0858L54.1399 26.1082C54.228 26.2649 54.294 26.4216 54.3161 26.6232L54.3821 26.8695L54.4482 26.8247C54.9766 28.1458 56.0774 29.1981 57.4205 29.6236C57.3324 29.9371 57.3104 30.2505 57.3104 30.564C57.3104 32.6464 58.9617 34.3257 61.0092 34.3257C60.6349 36.0946 59.6882 37.7292 58.3011 38.9159C56.782 40.2146 54.8445 40.9311 52.8629 40.9311C52.7088 40.9311 52.5767 40.9311 52.4226 40.9311L49.076 40.752C49.032 40.752 48.9879 40.752 48.9439 40.752C47.6669 40.752 46.6101 41.8268 46.6101 43.1255L46.6541 44.9616C46.6761 46.2155 47.5788 47.3126 48.8118 47.5365C51.652 48.0739 54.0298 50.1339 55.0206 52.9104L55.0426 53H55.8793L55.8352 52.8209C54.8004 49.6637 52.1804 47.335 48.9659 46.7305C48.1072 46.5737 47.4908 45.8124 47.4688 44.9392L47.4247 43.1479V43.1255C47.4247 42.7 47.5788 42.3194 47.8871 42.0059C48.1733 41.7148 48.5696 41.5357 48.9659 41.5357C48.9879 41.5357 49.0099 41.5357 49.054 41.5357L52.4006 41.7148C52.5547 41.7148 52.7308 41.7372 52.8849 41.7372C55.0646 41.7372 57.1783 40.9535 58.8516 39.5205C60.5249 38.0875 61.6257 36.0946 61.934 33.9227L62 33.3853L61.4496 33.4749Z" fill="white"/>
<path d="M54.3375 31.0787C54.8218 30.7428 55.064 30.183 55.064 29.6457C55.064 29.1978 54.8879 28.7276 54.5136 28.3694L54.2714 28.123C54.0953 27.9439 54.0072 27.72 54.0072 27.4737C54.0072 27.2274 54.0953 27.0035 54.2934 26.8244L54.5356 26.6004C54.5356 26.6228 54.5576 26.6452 54.5576 26.6676C54.6237 26.5109 54.6897 26.3765 54.7778 26.2422C54.7118 26.1078 54.6677 25.9511 54.6677 25.772C54.6677 25.7496 54.6677 25.7272 54.6677 25.7048C54.6457 25.6824 54.6017 25.6824 54.5797 25.66C54.5576 25.6376 54.5356 25.6376 54.5136 25.6152C54.4255 25.6152 54.3595 25.6152 54.2714 25.6152C54.2714 25.6376 54.2714 25.66 54.2714 25.66L54.0292 25.8615L53.6769 26.1974C53.3027 26.5333 53.1265 27.0259 53.1265 27.4961C53.1265 27.9663 53.3027 28.4141 53.6769 28.7724L53.9191 29.0187C54.0953 29.1978 54.1833 29.4217 54.1833 29.668C54.1833 29.9367 54.0512 30.2054 53.8091 30.3846C53.3247 30.7204 53.0825 31.2802 53.0825 31.8176C53.0825 32.2878 53.2806 32.7804 53.6549 33.1163L53.765 33.2282C53.9632 33.4074 54.0512 33.6313 54.0512 33.8776C54.0512 34.1463 53.9412 34.3926 53.721 34.5717L53.6109 34.6613C53.1926 34.9971 52.9724 35.5121 52.9724 36.0271C52.9724 36.4302 53.1045 36.8108 53.3687 37.1467L53.5669 37.393C53.699 37.5497 53.765 37.7513 53.765 37.9528C53.765 38.2439 53.6329 38.535 53.3687 38.6917L52.444 39.2963C52.2458 39.4306 52.1798 39.6993 52.3119 39.9008C52.444 40.1023 52.7082 40.1695 52.9064 40.0352L53.8311 39.4306C54.3595 39.0947 54.6237 38.535 54.6237 37.9528C54.6237 37.5721 54.4916 37.1691 54.2274 36.8332L54.0292 36.5869C53.8971 36.4302 53.8311 36.2287 53.8311 36.0271C53.8311 35.7584 53.9412 35.5121 54.1613 35.333L54.2714 35.2435C54.6897 34.9076 54.9099 34.3702 54.9099 33.8776C54.9099 33.4074 54.7118 32.9148 54.3375 32.5789L54.2274 32.4669C54.0292 32.2878 53.9412 32.0415 53.9412 31.8176C53.9632 31.5265 54.0953 31.2578 54.3375 31.0787Z" fill="white"/>
<path d="M30.2956 49.7086C30.2736 49.0368 30.0094 48.4994 29.5911 48.1188C29.1728 47.7381 28.6444 47.5366 28.0939 47.5366C27.4554 47.5366 26.7949 47.8277 26.3326 48.4771L25.7381 49.3279C24.7033 50.7833 23.4043 52.1044 21.9512 53H23.008C24.2189 52.1491 25.3198 50.9401 26.2225 49.6638L26.8169 48.8129C27.1472 48.3427 27.6316 48.1188 28.1159 48.1188C28.5123 48.1188 28.9306 48.2755 29.2388 48.5442C29.5471 48.8129 29.7452 49.216 29.7452 49.7086L29.7672 50.7386C29.7892 51.4551 29.8553 52.3059 29.9654 53H30.5378C30.4057 52.3059 30.3397 51.4327 30.3177 50.7162L30.2956 49.7086Z" fill="white"/>
<path d="M39.1243 52.5103C38.8161 52.5103 38.5078 52.5998 38.2656 52.779C38.1776 52.8461 38.0895 52.9133 38.0234 53.0029H40.2472L40.1591 52.9133C39.8509 52.6446 39.4766 52.5103 39.1243 52.5103Z" fill="white"/>
<path d="M52.796 50.8764L51.2768 49.8464C51.0126 49.6673 50.7264 49.6001 50.4622 49.6001C50.1319 49.6001 49.8017 49.7121 49.5375 49.9136C49.2733 50.1151 49.0751 50.4286 48.987 50.7868L48.965 50.9212C48.921 51.0779 48.8549 51.2123 48.7228 51.2794C48.6127 51.369 48.4806 51.4138 48.3265 51.4138C48.1944 51.4138 48.0623 51.369 47.9302 51.2794L47.8421 51.1899C47.5779 50.966 47.2477 50.854 46.9174 50.854C46.6092 50.854 46.301 50.9436 46.0368 51.1451C45.7725 51.3466 45.5744 51.5929 45.4643 51.9288L45.3983 52.1527C45.3542 52.3094 45.2662 52.399 45.1561 52.4886C45.046 52.5781 44.9139 52.6005 44.7818 52.6005C44.6497 52.6005 44.5176 52.5557 44.3855 52.4662L43.835 52.0183C43.5708 51.7944 43.2186 51.6825 42.9103 51.6825C42.6021 51.6825 42.2939 51.772 42.0297 51.9736C41.7654 52.1751 41.5673 52.4214 41.4572 52.7573L41.4132 52.8916C41.3912 52.9364 41.3912 52.9588 41.3691 53.0036H42.2718C42.3159 52.8692 42.4039 52.7797 42.492 52.6901C42.6021 52.6005 42.7342 52.5781 42.8663 52.5781C42.9984 52.5781 43.1305 52.6229 43.2626 52.7125L43.6149 53.0036H45.9267C46.0588 52.8468 46.1909 52.6453 46.2569 52.4214L46.323 52.1975C46.367 52.0407 46.4551 51.9512 46.5652 51.8616C46.6752 51.772 46.8074 51.7497 46.9395 51.7497C47.0716 51.7497 47.2037 51.7944 47.3358 51.884L47.4238 51.9736C47.688 52.1975 48.0183 52.3094 48.3485 52.3094C48.6788 52.3094 49.0091 52.1975 49.2733 51.996C49.5375 51.7944 49.7356 51.481 49.8237 51.1227L49.8457 50.9884C49.8897 50.8316 49.9558 50.7197 50.0879 50.6301C50.198 50.5405 50.3301 50.4957 50.4842 50.4957C50.5943 50.4957 50.7264 50.5181 50.8365 50.6077L52.3556 51.6377C52.5538 51.772 52.818 51.7273 52.9501 51.5257C53.0822 51.3242 52.9941 51.0107 52.796 50.8764Z" fill="white"/>
</svg>
