<svg width="94" height="99" viewBox="0 0 94 99" fill="none" xmlns="http://www.w3.org/2000/svg">
<path d="M68.9631 10.5861L73.2033 11.1577L73.2087 11.1631C75.1084 8.14761 78.4559 6.14453 82.277 6.14453C88.1992 6.14453 93 10.9454 93 16.8675C93 22.7896 88.1992 27.5905 82.277 27.5905C76.3549 27.5905 71.554 22.7896 71.554 16.8675C71.554 15.7244 71.7391 14.6249 72.0711 13.5907L68.9631 10.5861Z" fill="white"/>
<path fill-rule="evenodd" clip-rule="evenodd" d="M93.832 16.8675C93.832 10.4858 88.6587 5.3125 82.2771 5.3125C78.3528 5.3125 74.8935 7.27315 72.8066 10.2646L66.563 9.42308L71.1301 13.8381C70.8668 14.8028 70.7221 15.8176 70.7221 16.8675C70.7221 23.2491 75.8954 28.4225 82.2771 28.4225C88.6587 28.4225 93.832 23.2491 93.832 16.8675ZM72.8123 11.9444L73.3556 12.491L73.9127 11.6065C75.6671 8.82165 78.7548 6.9765 82.2771 6.9765C87.7397 6.9765 92.168 11.4048 92.168 16.8675C92.168 22.3301 87.7397 26.7585 82.2771 26.7585C76.8144 26.7585 72.3861 22.3301 72.3861 16.8675C72.3861 15.8149 72.5564 14.8011 72.8634 13.845L73.0216 13.3523L71.3633 11.7491L72.8123 11.9444Z" fill="#162929"/>
<path d="M81.3887 12.0282C81.3887 12.0282 81.5139 14.5647 79.7286 14.1837C77.9432 13.8027 78.5528 11.375 78.5528 11.375" stroke="#162929" stroke-width="1.664" stroke-miterlimit="10"/>
<path d="M79.9198 6.40514C79.9198 6.40514 78.706 9.42609 86.2393 13.5901V20.5682C86.2393 20.5682 87.5185 16.9921 88.9228 17.8847C90.3272 18.7774 88.9228 21.205 88.9228 21.205H92.0907C92.0907 21.205 94.3932 14.793 90.8932 10.4657C87.3879 6.13844 83.6865 5.64855 79.9198 6.40514Z" fill="#162929"/>
<path d="M73.5024 23.0233C73.5024 23.0233 79.5497 23.0506 78.5754 19.6758C77.7644 16.8672 71.6735 15.2832 71.6735 15.2832" stroke="#162929" stroke-width="1.664" stroke-miterlimit="10"/>
<path d="M74.2309 23.9487L71.542 75.3319H58.0213C58.0213 75.3319 60.0624 79.9259 66.7031 81.118C73.3437 82.31 76.4082 78.2222 76.4082 78.2222V82.31H79.8482V90.3114H65.0048C65.0048 90.3114 69.2613 96.6091 77.0886 97.6325C84.9158 98.6558 88.8349 93.8876 88.8349 93.8876V97.6325H92.0898V21.2053" fill="white"/>
<path d="M74.2309 23.9487L71.542 75.3319H58.0213C58.0213 75.3319 60.0624 79.9259 66.7031 81.118C73.3437 82.31 76.4082 78.2222 76.4082 78.2222V82.31H79.8482V90.3114H65.0048C65.0048 90.3114 69.2613 96.6091 77.0886 97.6325C84.9158 98.6558 88.8349 93.8876 88.8349 93.8876V97.6325H92.0898V21.2053" stroke="#162929" stroke-width="1.664" stroke-miterlimit="10"/>
<path d="M79.8477 90.3114V63.7598" stroke="#162929" stroke-width="1.664" stroke-miterlimit="10"/>
<path d="M81.3901 27.591V50.3161L92.0859 53.5493V22.0064C92.0859 22.0009 88.439 26.8235 81.3901 27.591Z" fill="#162929"/>
<path d="M69.6017 14.2217L67.4679 15.6532L31.3854 1.45752V42.4825L66.5372 23.3934L70.7012 24.2969L69.6017 14.2217Z" fill="#162929"/>
<path d="M28.5176 42.9746C23.6548 42.6138 20.3991 33.0712 21.2457 21.6606C22.0924 10.2501 26.7209 1.29249 31.5837 1.65331C36.4465 2.01413 39.7023 11.5567 38.8556 22.9673C38.009 34.3779 33.3805 43.3354 28.5176 42.9746Z" fill="white" stroke="#162929" stroke-width="1.664" stroke-miterlimit="10"/>
<path d="M64.3315 32.3906C67.3905 31.4435 68.3866 28.9342 66.5414 23.3931" stroke="#162929" stroke-width="2.34167" stroke-miterlimit="10" stroke-linecap="round"/>
<path d="M27.666 9.86217L8.43 5.5022" stroke="#162929" stroke-width="4.68326" stroke-miterlimit="10"/>
<path d="M28.0703 19.6694L17.6848 18.989" stroke="#162929" stroke-width="5.46384" stroke-miterlimit="10"/>
<path d="M18.5332 38.906L1.00083 42.4821" stroke="#162929" stroke-width="3.12217" stroke-miterlimit="10"/>
<path d="M92.3672 52.7275V61.099C92.3672 61.8284 91.7739 62.4217 91.0445 62.4217C90.3151 62.4217 89.7218 61.8284 89.7218 61.099V52.7275C89.7218 51.9981 90.3151 51.4048 91.0445 51.4048C91.7739 51.4048 92.3672 51.9926 92.3672 52.7275Z" fill="#162929"/>
<path d="M89.5996 50.9469V60.6412C89.5996 61.3706 89.0063 61.9639 88.2769 61.9639C87.5476 61.9639 86.9542 61.3706 86.9542 60.6412V50.9469C86.9542 50.2176 87.5476 49.6243 88.2769 49.6243C89.0063 49.6243 89.5996 50.2176 89.5996 50.9469Z" fill="#162929"/>
<path d="M86.8203 51.0773V59.8898C86.8203 60.6191 86.227 61.2124 85.4976 61.2124C84.7683 61.2124 84.175 60.6191 84.175 59.8898V51.0773C84.175 50.3479 84.7683 49.7546 85.4976 49.7546C86.2325 49.7601 86.8203 50.3479 86.8203 51.0773Z" fill="#162929"/>
<path d="M84.0352 48.5838V58.5556C84.0352 59.53 83.4419 60.3138 82.7125 60.3138C81.9831 60.3138 81.3898 59.5245 81.3898 58.5556V48.5838C81.3898 47.6095 81.9831 46.8257 82.7125 46.8257C83.4419 46.8257 84.0352 47.6095 84.0352 48.5838Z" fill="#162929"/>
<path d="M73.5033 37.904C73.5033 37.904 70.4062 51.4901 60.0642 48.4256C57.3535 47.6254 55.7368 45.0182 55.2578 42.1877C54.8278 39.6458 55.4647 36.9841 56.3846 34.6217C56.7819 33.6039 57.1847 32.5751 57.7563 31.6389C58.2679 30.8061 58.9428 30.142 59.7375 29.5705C61.4413 28.3458 63.8907 27.4477 66.0081 27.9158C66.7647 28.0845 67.407 28.569 67.7445 29.2711C68.1636 30.1366 68.0003 30.9857 67.8261 31.9002C67.5975 33.1249 67.162 34.2788 66.7538 35.4491C65.6978 38.4701 64.6364 39.7655 64.5003 41.4039C64.4677 41.8067 65.5726 41.1644 65.3603 41.5291L73.8789 23.5232L73.5033 37.904Z" fill="#162929"/>
<path d="M73.002 24.0847L63.1335 45.0354" stroke="white" stroke-width="1.664" stroke-miterlimit="10"/>
<path d="M54.1948 29.2449C54.1948 29.2449 56.3666 32.0535 59.3984 32.0535" stroke="#162929" stroke-width="2.34167" stroke-miterlimit="10"/>
<path d="M68.8223 27.3182V33.6703C68.8223 34.2255 68.3215 34.6719 67.701 34.6719C67.0805 34.6719 66.5797 34.2201 66.5797 33.6703V27.3182C66.5797 26.763 67.0805 26.3167 67.701 26.3167C68.3215 26.3167 68.8223 26.7684 68.8223 27.3182Z" fill="#162929" stroke="white" stroke-width="0.195105" stroke-miterlimit="10"/>
<path d="M66.4707 26.7476V34.1068C66.4707 34.662 65.9699 35.1083 65.3494 35.1083C64.7289 35.1083 64.2281 34.6565 64.2281 34.1068V26.7476C64.2281 26.1924 64.7289 25.7461 65.3494 25.7461C65.9699 25.7461 66.4707 26.1979 66.4707 26.7476Z" fill="#162929" stroke="white" stroke-width="0.195105" stroke-miterlimit="10"/>
<path d="M64.125 27.3346V34.0242C64.125 34.5794 63.6242 35.0258 63.0037 35.0258C62.3832 35.0258 61.8824 34.574 61.8824 34.0242V27.3346C61.8824 26.7794 62.3832 26.3331 63.0037 26.3331C63.6188 26.3276 64.125 26.7794 64.125 27.3346Z" fill="#162929" stroke="white" stroke-width="0.195105" stroke-miterlimit="10"/>
<path d="M61.7598 26.1153V33.6867C61.7598 34.427 61.259 35.0203 60.6385 35.0203C60.018 35.0203 59.5172 34.4216 59.5172 33.6867V26.1153C59.5172 25.375 60.018 24.7817 60.6385 24.7817C61.259 24.7817 61.7598 25.375 61.7598 26.1153Z" fill="#162929" stroke="white" stroke-width="0.195105" stroke-miterlimit="10"/>
</svg>
