<svg width="9" height="9" viewBox="0 0 9 9" fill="none" xmlns="http://www.w3.org/2000/svg">
<path fill-rule="evenodd" clip-rule="evenodd" d="M8.78033 0.21967C9.07322 0.512563 9.07322 0.987437 8.78033 1.28033L1.28033 8.78033C0.987437 9.07322 0.512563 9.07322 0.21967 8.78033C-0.0732233 8.48744 -0.0732233 8.01256 0.21967 7.71967L7.71967 0.21967C8.01256 -0.0732233 8.48744 -0.0732233 8.78033 0.21967Z" fill="currentColor"/>
<path fill-rule="evenodd" clip-rule="evenodd" d="M0 0.75C0 0.335786 0.335786 0 0.75 0L8.25 0C8.66421 0 9 0.335786 9 0.75V8.25C9 8.66421 8.66421 9 8.25 9C7.83579 9 7.5 8.66421 7.5 8.25L7.5 1.5L0.75 1.5C0.335786 1.5 0 1.16421 0 0.75Z" fill="currentColor"/>
</svg>
