<svg width="12" height="12" viewBox="0 0 12 12" fill="none" xmlns="http://www.w3.org/2000/svg">
<rect width="12" height="12" fill="white"/>
<path fill-rule="evenodd" clip-rule="evenodd" d="M12 6C12 6.41057 11.6672 6.7434 11.2566 6.7434H0.743396C0.332829 6.7434 -3.13318e-07 6.41057 0 6C-2.19322e-07 5.58943 0.33283 5.2566 0.743396 5.2566H11.2566C11.6672 5.2566 12 5.58943 12 6Z" fill="currentColor"/>
<path fill-rule="evenodd" clip-rule="evenodd" d="M5.47434 0.217736C5.76465 -0.0725786 6.23535 -0.0725786 6.52566 0.217736L11.7823 5.47434C12.0726 5.76465 12.0726 6.23535 11.7823 6.52566L6.52566 11.7823C6.23535 12.0726 5.76465 12.0726 5.47434 11.7823C5.18402 11.4919 5.18402 11.0213 5.47434 10.7309L10.2053 6L5.47434 1.26906C5.18403 0.978742 5.18403 0.50805 5.47434 0.217736Z" fill="currentColor"/>
</svg>
