<svg width="24" height="24" viewBox="0 0 24 24" fill="none" xmlns="http://www.w3.org/2000/svg">
<rect width="24" height="24" fill="#F2F2F8"/>
<path fill-rule="evenodd" clip-rule="evenodd" d="M18.1745 5.23852C16.9053 3.96932 14.8475 3.96932 13.5783 5.23852L12.4865 6.3303C12.1936 6.6232 12.1936 7.09807 12.4865 7.39096C12.7794 7.68386 13.2543 7.68386 13.5472 7.39096L14.6389 6.29918C15.3224 5.61577 16.4304 5.61577 17.1138 6.29918L17.7011 6.8865C18.3846 7.56992 18.3846 8.67796 17.7011 9.36138L14.0217 13.0408C13.3383 13.7242 12.2302 13.7242 11.5468 13.0408L11.2531 12.7472C10.9603 12.4543 10.4854 12.4543 10.1925 12.7472C9.89959 13.0401 9.89959 13.5149 10.1925 13.8078L10.4861 14.1015C11.7554 15.3707 13.8131 15.3707 15.0823 14.1015L18.7618 10.422C20.031 9.15283 20.031 7.09505 18.7618 5.82584L18.1745 5.23852ZM5.82438 18.7463C7.09358 20.0155 9.15137 20.0155 10.4206 18.7463L11.5123 17.6546C11.8052 17.3617 11.8052 16.8868 11.5123 16.5939C11.2195 16.301 10.7446 16.301 10.4517 16.5939L9.35991 17.6857C8.67649 18.3691 7.56845 18.3691 6.88504 17.6857L6.29772 17.0984C5.6143 16.4149 5.6143 15.3069 6.29772 14.6235L9.97717 10.944C10.6606 10.2606 11.7686 10.2606 12.452 10.944L12.7457 11.2377C13.0386 11.5306 13.5135 11.5306 13.8064 11.2377C14.0993 10.9448 14.0993 10.4699 13.8064 10.177L13.5127 9.88337C12.2435 8.61416 10.1857 8.61417 8.91651 9.88337L5.23706 13.5628C3.96786 14.832 3.96785 16.8898 5.23706 18.159L5.82438 18.7463Z" fill="#0254D8"/>
</svg>
