<svg width="24" height="24" viewBox="0 0 24 24" fill="none" xmlns="http://www.w3.org/2000/svg">
<rect width="24" height="24" fill="#F2F2F8"/>
<path fill-rule="evenodd" clip-rule="evenodd" d="M4 8C4 6.89543 4.89543 6 6 6H18C19.1046 6 20 6.89543 20 8V16C20 17.1046 19.1046 18 18 18H6C4.89543 18 4 17.1046 4 16V8ZM6 7.5H18C18.2761 7.5 18.5 7.72386 18.5 8V8.42118L11.9991 12.136L5.5 8.42225V8C5.5 7.72386 5.72386 7.5 6 7.5ZM5.5 10.1499V16C5.5 16.2761 5.72386 16.5 6 16.5H18C18.2761 16.5 18.5 16.2761 18.5 16V10.1488L11.9991 13.8636L5.5 10.1499Z" fill="#0254D8"/>
</svg>
