<svg width="24" height="24" viewBox="0 0 24 24" fill="none" xmlns="http://www.w3.org/2000/svg">
<path d="M0 0V24H24V0H0Z" fill="#F2F2F8"/>
<path d="M18.0668 9.02176C18.0723 9.15319 18.0751 9.28534 18.0751 9.418C18.0751 13.4659 15.1861 18.1333 9.9029 18.1333C8.28085 18.1333 6.77107 17.6263 5.5 16.757C5.72471 16.7855 5.95329 16.8 6.1852 16.8C7.5309 16.8 8.76934 16.3104 9.75241 15.4886C8.49552 15.464 7.43472 14.5784 7.06916 13.3614C7.24463 13.3973 7.42458 13.4165 7.60965 13.4165C7.87161 13.4165 8.12539 13.3789 8.36641 13.309C7.05249 13.0275 6.06236 11.7896 6.06236 10.3055C6.06236 10.2926 6.06236 10.2797 6.06262 10.2669C6.44983 10.4964 6.89267 10.6342 7.36356 10.6501C6.5928 10.1008 6.08587 9.16319 6.08587 8.10058C6.08587 7.53915 6.22751 7.01303 6.4748 6.56053C7.89139 8.41383 10.0078 9.63324 12.395 9.76112C12.3459 9.53683 12.3204 9.30302 12.3204 9.06299C12.3204 7.37146 13.6066 6 15.1927 6C16.0189 6 16.7654 6.37193 17.2893 6.9672C17.9435 6.82998 18.5582 6.57494 19.1132 6.22395C18.8988 6.93928 18.4434 7.53944 17.8503 7.91862C18.4314 7.84454 18.9849 7.67983 19.5 7.4362C19.115 8.05043 18.6281 8.58996 18.0668 9.02176Z" fill="#0254D8"/>
</svg>
