<svg width="25" height="24" viewBox="0 0 25 24" fill="none" xmlns="http://www.w3.org/2000/svg">
<rect x="0.00195312" width="24" height="24" fill="#F2F2F8"/>
<path fill-rule="evenodd" clip-rule="evenodd" d="M4.00195 8C4.00195 6.89543 4.89738 6 6.00195 6H18.002C19.1065 6 20.002 6.89543 20.002 8V16C20.002 17.1046 19.1065 18 18.002 18H6.00195C4.89738 18 4.00195 17.1046 4.00195 16V8ZM6.00195 7.5H18.002C18.2781 7.5 18.502 7.72386 18.502 8V8.42118L12.001 12.136L5.50195 8.42225V8C5.50195 7.72386 5.72581 7.5 6.00195 7.5ZM5.50195 10.1499V16C5.50195 16.2761 5.72581 16.5 6.00195 16.5H18.002C18.2781 16.5 18.502 16.2761 18.502 16V10.1488L12.001 13.8636L5.50195 10.1499Z" fill="currentColor"/>
</svg>
