<svg width="25" height="24" viewBox="0 0 25 24" fill="none" xmlns="http://www.w3.org/2000/svg">
<path d="M0.00195312 0V24H24.002V0H0.00195312Z" fill="#F2F2F8"/>
<path d="M18.0687 9.02176C18.0742 9.15319 18.077 9.28534 18.077 9.418C18.077 13.4659 15.188 18.1333 9.90486 18.1333C8.28281 18.1333 6.77302 17.6263 5.50195 16.757C5.72666 16.7855 5.95524 16.8 6.18716 16.8C7.53285 16.8 8.7713 16.3104 9.75437 15.4886C8.49747 15.464 7.43667 14.5784 7.07111 13.3614C7.24658 13.3973 7.42654 13.4165 7.6116 13.4165C7.87356 13.4165 8.12734 13.3789 8.36836 13.309C7.05445 13.0275 6.06431 11.7896 6.06431 10.3055C6.06431 10.2926 6.06431 10.2797 6.06458 10.2669C6.45178 10.4964 6.89462 10.6342 7.36551 10.6501C6.59476 10.1008 6.08782 9.16319 6.08782 8.10058C6.08782 7.53915 6.22947 7.01303 6.47676 6.56053C7.89334 8.41383 10.0098 9.63324 12.3969 9.76112C12.3479 9.53683 12.3224 9.30302 12.3224 9.06299C12.3224 7.37146 13.6085 6 15.1947 6C16.0208 6 16.7673 6.37193 17.2912 6.9672C17.9454 6.82998 18.5602 6.57494 19.1152 6.22395C18.9008 6.93928 18.4453 7.53944 17.8523 7.91862C18.4333 7.84454 18.9868 7.67983 19.502 7.4362C19.117 8.05043 18.63 8.58996 18.0687 9.02176Z" fill="#18191B"/>
</svg>
