<svg width="24" height="24" viewBox="0 0 24 24" fill="none" xmlns="http://www.w3.org/2000/svg">
<rect width="24" height="24" fill="#F2F2F8"/>
<path d="M17.4094 13.0982C17.9068 13.5834 18.4327 14.0403 18.8791 14.5767C19.0764 14.8137 19.2629 15.0583 19.4051 15.3329C19.607 15.7265 19.424 16.1576 19.0725 16.1814L16.888 16.1804C16.3241 16.2267 15.8748 15.9994 15.4959 15.6136C15.1945 15.3065 14.9129 14.9777 14.622 14.6602C14.5036 14.5294 14.3784 14.4071 14.2296 14.3096C13.9312 14.1162 13.6723 14.1749 13.5018 14.4857C13.3283 14.8024 13.2875 15.1539 13.2715 15.5065C13.2478 16.0211 13.0925 16.1557 12.576 16.1805C11.4708 16.2316 10.4227 16.0637 9.44935 15.5074C8.58973 15.0166 7.92449 14.3227 7.34535 13.5381C6.21669 12.0084 5.35226 10.329 4.57612 8.60128C4.40069 8.2119 4.52883 8.00324 4.95702 7.99571C5.67083 7.98162 6.38435 7.98333 7.09716 7.99476C7.38711 7.99962 7.57949 8.16533 7.6904 8.43924C8.07616 9.38714 8.54801 10.2892 9.1403 11.1262C9.29873 11.3489 9.45982 11.5707 9.68811 11.7279C9.94115 11.9024 10.1345 11.8454 10.2539 11.562C10.3298 11.382 10.3631 11.1906 10.3791 10.9981C10.4358 10.3394 10.4426 9.67999 10.3449 9.02323C10.2842 8.61271 10.0521 8.34728 9.64273 8.26966C9.43406 8.22985 9.46534 8.15319 9.56582 8.03357C9.7422 7.82809 9.90815 7.69995 10.2369 7.69995H12.7058C13.0952 7.7759 13.1825 7.95128 13.2354 8.34266L13.2374 11.0864C13.2328 11.238 13.3133 11.6871 13.5853 11.7866C13.8031 11.8587 13.9482 11.6832 14.079 11.5449C14.6703 10.9175 15.0922 10.1756 15.4692 9.40795C15.6361 9.07047 15.7802 8.7199 15.9205 8.36904C16.0238 8.10943 16.1849 7.98157 16.4778 7.98619L18.8547 7.98909C18.9248 7.98909 18.9969 7.98909 19.066 8.00047C19.4658 8.06962 19.5758 8.24214 19.4516 8.63347C19.2575 9.24657 18.8773 9.75847 18.5068 10.2711C18.1096 10.8199 17.687 11.3496 17.2928 11.9013C16.9327 12.4065 16.961 12.6605 17.4094 13.0982Z" fill="black"/>
</svg>
