<svg xmlns="http://www.w3.org/2000/svg" width="896" height="400" viewBox="0 0 896 400">
    <g fill="none" fill-rule="evenodd">
        <path fill="transparent" fill-rule="nonzero" d="M0 0h896v400H0z"/>
        <path fill="#345EFF" d="M231.98 68.892l-3.204-33.645H89.924l-14.42 138.585c9.792-8.901 20.562-15.755 32.31-20.561 11.75-4.806 27.682-7.477 47.798-8.01 33.11-.535 59.813 10.591 80.107 33.377 20.293 22.786 30.44 53.405 30.44 91.856 0 39.342-9.88 70.76-29.64 94.259C216.76 388.251 187.122 400 147.602 400c-32.043 0-58.7-8.945-79.973-26.836-21.273-17.89-31.464-44.37-30.574-79.439l.534-1.602h28.571c0 26.168 7.388 46.195 22.163 60.08 14.775 13.885 34.535 20.828 59.279 20.828 29.017 0 50.69-8.723 65.02-26.169 14.33-17.445 21.495-42.723 21.495-75.834 0-29.017-7.165-52.292-21.495-69.826-14.33-17.535-34.401-26.302-60.214-26.302-24.922 0-43.925 3.96-57.009 11.882-13.084 7.922-22.563 19.893-28.438 35.915l-25.901-4.272L62.421 5.607h195.46v63.285h-25.9zm338.852 174.633c0 50.2-10.636 88.83-31.91 115.888C517.65 386.47 488.056 400 450.139 400c-37.74 0-67.334-13.574-88.785-40.721-21.451-27.147-32.177-65.732-32.177-115.754v-86.783c0-50.022 10.637-88.651 31.91-115.888C382.359 13.618 411.864 0 449.604 0c37.917 0 67.6 13.618 89.052 40.854 21.45 27.237 32.176 65.866 32.176 115.888v86.783zm-32.043-92.123c0-39.876-7.61-70.539-22.83-91.99-15.22-21.45-37.339-32.176-66.355-32.176-28.839 0-50.824 10.77-65.955 32.31-15.131 21.54-22.697 52.158-22.697 91.856v96.93c0 39.519 7.7 70.181 23.098 91.988 15.398 21.807 37.427 32.71 66.088 32.71 28.838 0 50.823-10.858 65.954-32.576 15.132-21.718 22.697-52.425 22.697-92.123v-96.93zm341.255 92.123c0 50.2-10.636 88.83-31.909 115.888C826.862 386.47 797.267 400 759.35 400c-37.74 0-67.334-13.574-88.785-40.721-21.451-27.147-32.176-65.732-32.176-115.754v-86.783c0-50.022 10.636-88.651 31.909-115.888C691.57 13.618 721.077 0 758.816 0c37.917 0 67.601 13.618 89.052 40.854 21.451 27.237 32.176 65.866 32.176 115.888v86.783zm-32.042-92.123c0-39.876-7.61-70.539-22.83-91.99-15.221-21.45-37.34-32.176-66.356-32.176-28.839 0-50.823 10.77-65.955 32.31-15.131 21.54-22.697 52.158-22.697 91.856v96.93c0 39.519 7.7 70.181 23.098 91.988 15.398 21.807 37.427 32.71 66.088 32.71 28.839 0 50.823-10.858 65.955-32.576 15.131-21.718 22.697-52.425 22.697-92.123v-96.93z"/>
    </g>
</svg>
