<svg width="24" height="24" viewBox="0 0 24 24" fill="none" xmlns="http://www.w3.org/2000/svg">
<path d="M21.8316 19.1888C20.5988 20.3385 19.1671 21.1773 17.6514 21.6896C16.1392 22.2021 14.546 22.3954 12.9747 22.2707C11.6012 22.1616 10.2435 21.8113 8.96917 21.218C7.69485 20.6248 6.51103 19.7892 5.49156 18.7207C4.32793 17.5001 3.47853 16.083 2.95913 14.5832C2.43972 13.0834 2.24268 11.5073 2.36723 9.95319C2.47611 8.59466 2.8289 7.25199 3.42734 5.99208C4.02579 4.73217 4.86934 3.56203 5.94857 2.55469L9.71181 6.49815C9.13924 7.0361 8.69962 7.64436 8.38729 8.30491C8.07523 8.96196 7.88693 9.67101 7.82955 10.3869C7.76378 11.2077 7.86748 12.0418 8.13865 12.826C8.41335 13.6105 8.8517 14.3482 9.47118 14.9984C10.0156 15.5653 10.631 16.0008 11.2991 16.3104C11.9636 16.6197 12.6807 16.8067 13.4045 16.8642C14.2343 16.9301 15.0775 16.8283 15.87 16.5609C16.6628 16.29 17.4081 15.8571 18.0648 15.245L21.8316 19.1888Z" stroke="white" stroke-width="3"/>
</svg>
