<svg width="6" height="12" viewBox="0 0 6 12" fill="none" xmlns="http://www.w3.org/2000/svg">
<g id="ic-back">
<path id="Path" d="M5.63445 12C5.77655 11.9936 5.90228 11.9043 5.95736 11.7707C6.01243 11.6371 5.987 11.4831 5.89204 11.3752L0.807862 6.19558C0.761042 6.1486 0.734678 6.08445 0.734678 6.01751C0.734678 5.95056 0.761042 5.88641 0.807862 5.83944L5.89204 0.641074C6.03599 0.494419 6.03599 0.256645 5.89204 0.109991C5.74808 -0.0366636 5.51469 -0.0366636 5.37074 0.109991L0.286566 5.28961C-0.0955219 5.67982 -0.0955219 6.31146 0.286566 6.70167L5.37687 11.8875C5.44481 11.9582 5.53739 11.9986 5.63445 12Z" fill="#7E8FA4"/>
</g>
</svg>
