<svg width="196" height="160" viewBox="0 0 196 160" fill="none" xmlns="http://www.w3.org/2000/svg">
<mask id="mask0" mask-type="alpha" maskUnits="userSpaceOnUse" x="0" y="0" width="196" height="160">
<rect width="196" height="160" fill="#C4C4C4"/>
</mask>
<g mask="url(#mask0)">
<rect width="33.9344" height="7.21833" transform="matrix(-0.753774 0.657134 0.655798 0.754936 74.8555 0)" fill="#F8545A"/>
<rect width="33.3676" height="5.61756" transform="matrix(-0.764037 0.645173 0.645048 0.764142 68.8379 20.5146)" fill="#F8545A"/>
<path d="M124.816 24.1858L117.841 33.2996L152.005 55.9804L125.982 65.2512L186.802 117.197L194.676 108.549L148.567 69.2119L177.101 59.1264L124.816 24.1858Z" fill="#D2D2FF"/>
<path fill-rule="evenodd" clip-rule="evenodd" d="M26.7041 75.4546C32.6414 80.8484 41.3536 83.5436 52.8822 83.2441L52.7322 77.4694C42.1217 77.745 35.0639 75.2452 30.5875 71.1785C26.122 67.1218 23.7735 61.0946 23.438 53.3548L17.6677 53.605C18.0468 62.352 20.7559 70.0508 26.7041 75.4546Z" fill="#FFD976"/>
<path fill-rule="evenodd" clip-rule="evenodd" d="M0 70.4668H112.818V152.618H0V70.4668ZM3.66012 74.1275V148.957H109.158V74.1275H3.66012Z" fill="#6364D1"/>
<rect x="6.0293" y="76.0664" width="100.223" height="70.7382" fill="#D2D2FF"/>
<ellipse cx="41.3938" cy="111.004" rx="24.9211" ry="24.9253" fill="#F9555A"/>
<ellipse cx="91.1699" cy="139.59" rx="3.66012" ry="3.66073" fill="#F9555A"/>
<rect width="52.1029" height="4.52208" transform="matrix(0.998818 -0.0486134 0.0485973 0.998818 14.5625 98.9766)" fill="#162929"/>
<rect width="52.1029" height="4.52208" transform="matrix(0.999354 0.0359337 -0.0359218 0.999355 14.9121 118.164)" fill="#162929"/>
<path fill-rule="evenodd" clip-rule="evenodd" d="M12.6507 76.0645L12.6507 146.803H13.6195L13.6195 76.0645H12.6507ZM5.97656 146.911L5.97657 76.1724L6.94542 76.1724L6.94542 146.911H5.97656ZM25.9989 146.911L25.9989 76.1724L26.9677 76.1724L26.9677 146.911H25.9989ZM46.0226 76.1724L46.0226 146.911H46.9915L46.9915 76.1724L46.0226 76.1724ZM66.0449 146.911L66.0449 76.1724L67.0138 76.1724L67.0138 146.911H66.0449ZM15.9863 76.1724L15.9863 146.911H16.9552L16.9552 76.1724L15.9863 76.1724ZM36.01 146.911L36.01 76.1724L36.9789 76.1724L36.9789 146.911H36.01ZM56.0338 76.1724L56.0338 146.911H57.0026L57.0026 76.1724L56.0338 76.1724ZM76.0575 146.911V76.1724L77.0263 76.1724V146.911H76.0575ZM99.0932 76.1724V146.911H100.062V76.1724L99.0932 76.1724ZM9.31222 146.911L9.31222 76.1724L10.2811 76.1724L10.2811 146.911H9.31222ZM29.3359 76.1724L29.3359 146.911H30.3048L30.3048 76.1724L29.3359 76.1724ZM49.3583 146.911L49.3583 76.1724L50.3271 76.1724L50.3271 146.911H49.3583ZM69.382 76.1724L69.382 146.911H70.3508V76.1724L69.382 76.1724ZM19.3234 146.911L19.3234 76.1724L20.2922 76.1724L20.2922 146.911H19.3234ZM39.3471 76.1724L39.3471 146.911H40.316L40.316 76.1724L39.3471 76.1724ZM59.3708 146.911L59.3708 76.1724L60.3397 76.1724L60.3397 146.911H59.3708ZM79.3903 76.1724V146.911H80.3592V76.1724L79.3903 76.1724ZM102.43 146.911V76.1724L103.399 76.1724V146.911H102.43ZM32.673 146.803L32.673 76.0645H33.6418L33.6418 146.803H32.673ZM52.6967 76.0645L52.6967 146.803H53.6656L53.6656 76.0645H52.6967ZM72.719 146.803V76.0645H73.6879V146.803H72.719ZM22.6604 76.0645L22.6604 146.803H23.6293L23.6293 76.0645H22.6604ZM42.6842 146.803L42.6842 76.0645H43.653L43.653 146.803H42.6842ZM62.7079 76.0645L62.7079 146.803H63.6767L63.6767 76.0645H62.7079ZM82.7288 146.803V76.0645H83.6977V146.803H82.7288ZM105.767 76.0645V146.803H106.736V76.0645H105.767Z" fill="#3133FF"/>
<path d="M16.4151 150.465L21.8515 151.434L18.0837 160.263L14.5312 159.401L16.4151 150.465Z" fill="#FFD476"/>
<path d="M90.748 151.434L95.377 150.465L98.1221 159.078L94.1929 160.263L90.748 151.434Z" fill="#FFD476"/>
</g>
</svg>
