<svg width="95" height="129" viewBox="0 0 95 129" fill="none" xmlns="http://www.w3.org/2000/svg">
<mask id="mask0" mask-type="alpha" maskUnits="userSpaceOnUse" x="0" y="0" width="95" height="129">
<rect x="0.475098" width="94" height="129" fill="#C4C4C4"/>
</mask>
<g mask="url(#mask0)">
<rect width="27.4387" height="5.83251" transform="matrix(-0.75542 0.655241 0.65769 0.753289 61.1338 0)" fill="#F8545A"/>
<rect width="26.9825" height="4.53874" transform="matrix(-0.765645 0.643264 0.646955 0.762528 56.2573 16.54)" fill="#F8545A"/>
<path fill-rule="evenodd" clip-rule="evenodd" d="M22.1148 60.8352C26.926 65.184 33.9858 67.357 43.328 67.1155L43.2064 62.4597C34.6082 62.6819 28.8891 60.6664 25.2616 57.3877C21.643 54.1169 19.7399 49.2575 19.468 43.0173L14.7921 43.219C15.0993 50.2713 17.2946 56.4784 22.1148 60.8352Z" fill="#FFD976"/>
<path fill-rule="evenodd" clip-rule="evenodd" d="M0.475098 56.8135H91.8965V123.048H0.475098V56.8135ZM3.44106 59.7649V120.096H88.9305V59.7649H3.44106Z" fill="#6364D1"/>
<rect x="5.36084" y="61.3281" width="81.215" height="57.0327" fill="#D2D2FF"/>
<ellipse cx="34.0179" cy="89.4974" rx="20.1947" ry="20.096" fill="#F9555A"/>
<ellipse cx="74.3541" cy="112.545" rx="2.96596" ry="2.95146" fill="#F9555A"/>
<rect width="42.2208" height="3.64597" transform="matrix(0.99883 -0.0483684 0.0488436 0.998806 12.2754 79.7998)" fill="#162929"/>
<rect width="42.2211" height="3.64595" transform="matrix(0.999361 0.0357523 -0.036104 0.999348 12.5591 95.2695)" fill="#162929"/>
<path fill-rule="evenodd" clip-rule="evenodd" d="M10.7261 61.3271L10.7261 118.36H11.5112L11.5112 61.3271H10.7261ZM5.31787 118.447L5.31787 61.4141L6.10298 61.4141L6.10298 118.447H5.31787ZM21.5429 118.447L21.5429 61.4141L22.328 61.4141L22.328 118.447H21.5429ZM37.769 61.4141L37.769 118.447H38.5541L38.5541 61.4141L37.769 61.4141ZM53.994 118.447L53.994 61.4141L54.7791 61.4141L54.7791 118.447H53.994ZM13.4292 61.4141L13.4292 118.447H14.2143L14.2143 61.4141L13.4292 61.4141ZM29.6552 118.447L29.6552 61.4141L30.4403 61.4141L30.4403 118.447H29.6552ZM45.8812 61.4141L45.8812 118.447H46.6664L46.6664 61.4141L45.8812 61.4141ZM62.1078 118.447L62.1078 61.4141L62.8929 61.4141L62.8929 118.447H62.1078ZM80.7744 61.4141V118.447H81.5595V61.4141L80.7744 61.4141ZM8.02098 118.447L8.02099 61.4141L8.80609 61.4141L8.80609 118.447H8.02098ZM24.247 61.4141L24.247 118.447H25.0321L25.0321 61.4141L24.247 61.4141ZM40.4721 118.447L40.4721 61.4141L41.2572 61.4141L41.2572 118.447H40.4721ZM56.6981 61.4141L56.6981 118.447H57.4832L57.4832 61.4141L56.6981 61.4141ZM16.1338 118.447L16.1338 61.4141L16.9189 61.4141L16.9189 118.447H16.1338ZM32.3593 61.4141L32.3593 118.447H33.1444L33.1444 61.4141L32.3593 61.4141ZM48.5858 118.447L48.5858 61.4141L49.3709 61.4141L49.3709 118.447H48.5858ZM64.8084 61.4141L64.8084 118.447H65.5935L65.5935 61.4141L64.8084 61.4141ZM83.4785 118.447V61.4141L84.2636 61.4141V118.447H83.4785ZM26.9511 118.36L26.9511 61.3271H27.7362L27.7362 118.36H26.9511ZM43.1772 61.3271L43.1772 118.36H43.9623L43.9623 61.3271H43.1772ZM59.4022 118.36L59.4022 61.3271H60.1873L60.1873 118.36H59.4022ZM18.8379 61.3271L18.8378 118.36H19.623L19.623 61.3271H18.8379ZM35.0634 118.36L35.0634 61.3271H35.8485L35.8485 118.36H35.0634ZM51.2899 61.3271L51.2899 118.36H52.075L52.075 61.3271H51.2899ZM67.5135 118.36L67.5135 61.3271H68.2986L68.2986 118.36H67.5135ZM86.183 61.3271V118.36H86.9681V61.3271H86.183Z" fill="#3133FF"/>
<path d="M13.7771 121.312L18.1824 122.094L15.1292 129.212L12.2505 128.518L13.7771 121.312Z" fill="#FFD476"/>
<path d="M74.0122 122.094L77.7633 121.312L79.9877 128.257L76.8037 129.212L74.0122 122.094Z" fill="#FFD476"/>
</g>
</svg>
