<svg width="172" height="91" viewBox="0 0 172 91" fill="none" xmlns="http://www.w3.org/2000/svg">
<g clip-path="url(#clip0)">
<path d="M125.295 18.4858L133.292 19.5637L133.303 19.574C136.886 13.8864 143.199 10.1084 150.406 10.1084C161.576 10.1084 170.631 19.1633 170.631 30.3331C170.631 41.5029 161.576 50.5579 150.406 50.5579C139.237 50.5579 130.182 41.5029 130.182 30.3331C130.182 28.1772 130.531 26.1034 131.157 24.1528L125.295 18.4858Z" fill="white"/>
<path fill-rule="evenodd" clip-rule="evenodd" d="M150.405 11.3115C143.631 11.3115 137.692 14.8611 134.32 20.2152L133.514 21.4942L132.726 20.7014L128.764 20.1675L132.53 23.8079L132.301 24.5205C131.711 26.3581 131.384 28.308 131.384 30.3331C131.384 40.8384 139.9 49.3547 150.405 49.3547C160.911 49.3547 169.427 40.8384 169.427 30.3331C169.427 19.8277 160.911 11.3115 150.405 11.3115ZM132.717 18.2723C136.573 12.6205 143.049 8.90527 150.405 8.90527C162.24 8.90527 171.833 18.4988 171.833 30.3331C171.833 42.1673 162.24 51.7609 150.405 51.7609C138.571 51.7609 128.978 42.1673 128.978 30.3331C128.978 28.3112 129.267 26.359 129.792 24.5076L121.823 16.804L132.717 18.2723Z" fill="#162929"/>
<path d="M148.732 21.2046C148.732 21.2046 148.968 25.9888 145.601 25.2701C142.233 24.5515 143.383 19.9727 143.383 19.9727" stroke="#162929" stroke-width="1.664" stroke-miterlimit="10"/>
<path d="M146.139 10.5641C146.139 10.5641 143.802 16.3684 158.305 24.3689V37.7764C158.305 37.7764 160.767 30.9053 163.471 32.6205C166.174 34.3356 163.471 39 163.471 39H169.569C169.569 39 174.002 26.6802 167.264 18.3659C160.516 10.0516 153.39 9.11036 146.139 10.5641Z" fill="#162929"/>
<path d="M133.855 41.9425C133.855 41.9425 145.261 41.9938 143.424 35.6287C141.894 30.3313 130.406 27.3438 130.406 27.3438" stroke="#162929" stroke-width="1.664" stroke-miterlimit="10"/>
<path d="M135.228 43.6889L130.157 140.603H104.655C104.655 140.603 108.505 149.268 121.03 151.516C133.555 153.765 139.335 146.055 139.335 146.055V153.765H145.823V168.856H117.827C117.827 168.856 125.855 180.735 140.618 182.665C155.381 184.595 162.773 175.601 162.773 175.601V182.665H168.912V38.5146" fill="white"/>
<path fill-rule="evenodd" clip-rule="evenodd" d="M167.709 181.462V38.5146H170.115V183.868H161.57V178.398C160.629 179.166 159.375 180.061 157.806 180.914C154.653 182.627 150.246 184.093 144.602 184.05C143.289 184.04 141.909 183.948 140.462 183.759C132.789 182.756 126.885 179.268 122.916 175.961C120.93 174.305 119.418 172.711 118.4 171.527C117.89 170.934 117.503 170.443 117.241 170.096C117.11 169.923 117.01 169.785 116.941 169.689C116.907 169.641 116.88 169.603 116.862 169.577L116.84 169.545L116.834 169.535L116.831 169.532C116.831 169.532 116.83 169.53 117.827 168.856L116.83 169.53L115.562 167.653H144.62V154.968H138.132V148.904C137.421 149.474 136.531 150.097 135.456 150.684C132.225 152.451 127.372 153.877 120.817 152.701C114.295 151.53 109.99 148.676 107.309 146.081C105.972 144.788 105.045 143.563 104.447 142.653C104.148 142.197 103.93 141.82 103.785 141.55C103.713 141.415 103.658 141.307 103.62 141.229C103.601 141.19 103.587 141.159 103.576 141.136L103.563 141.108L103.558 141.098L103.556 141.093C103.556 141.093 103.556 141.092 104.655 140.603L103.556 141.093L102.804 139.4H129.015L134.027 43.626L136.5 43.4998L131.298 141.806H106.782C107.295 142.528 108.016 143.417 108.982 144.352C111.358 146.652 115.24 149.255 121.242 150.332C127.213 151.404 131.512 150.099 134.302 148.573C135.705 147.806 136.739 146.975 137.416 146.344C137.754 146.029 138.001 145.765 138.161 145.585C138.24 145.495 138.297 145.426 138.333 145.383C138.342 145.371 138.35 145.361 138.357 145.353C138.362 145.346 138.366 145.341 138.369 145.337L138.372 145.333L138.374 145.33L140.538 142.444V152.562H147.026V170.059H120.312C121.259 171.152 122.647 172.604 124.457 174.113C128.193 177.227 133.684 180.545 140.774 181.472C147.872 182.4 153.157 180.702 156.657 178.8C158.413 177.846 159.725 176.837 160.592 176.073C161.026 175.692 161.347 175.373 161.556 175.154C161.66 175.044 161.736 174.96 161.784 174.906C161.808 174.878 161.825 174.859 161.835 174.847L161.843 174.837L161.845 174.836L163.976 172.243V181.462H167.709Z" fill="#162929"/>
<path d="M148.733 50.5587V93.4207L168.906 99.519V40.0254C168.906 40.0151 162.028 49.1111 148.733 50.5587Z" fill="#162929"/>
<path d="M126.499 25.3432L122.475 28.0433L57.5 1.0498L55 78.9998L120.72 42.642L128.573 44.3462L126.499 25.3432Z" fill="#162929"/>
<path d="M49.0084 79.5734C39.8365 78.8929 33.6958 60.8945 35.2928 39.3729C36.8897 17.8513 45.6194 0.956334 54.7913 1.63689C63.9631 2.31744 70.1039 20.3158 68.507 41.8374C66.9101 63.359 58.1802 80.254 49.0084 79.5734Z" fill="white"/>
<path fill-rule="evenodd" clip-rule="evenodd" d="M64.55 14.3097C66.9682 21.3974 68.0978 31.1089 67.3084 41.7478C66.519 52.3868 63.9684 61.8252 60.5307 68.4784C58.8107 71.8071 56.8964 74.3848 54.9191 76.0759C52.9471 77.7625 50.9834 78.5129 49.0986 78.3731C47.2138 78.2332 45.3824 77.2012 43.6809 75.242C41.9749 73.2776 40.462 70.4457 39.2521 66.8995C36.834 59.8118 35.7044 50.1003 36.4938 39.4614C37.2832 28.8224 39.8337 19.384 43.2715 12.7308C44.9915 9.40207 46.9058 6.82444 48.8831 5.13329C50.855 3.4467 52.8187 2.69626 54.7035 2.83612C56.5883 2.97597 58.4197 4.00801 60.1212 5.96716C61.8272 7.93161 63.3401 10.7635 64.55 14.3097ZM61.9379 4.38943C59.9583 2.10993 57.5827 0.636957 54.8815 0.436535C52.1804 0.236112 49.6135 1.34234 47.3191 3.30471C45.03 5.26251 42.9424 8.12613 41.1338 11.6263C37.5145 18.6308 34.9017 28.4007 34.0942 39.2833C33.2867 50.1659 34.429 60.2144 36.9749 67.6765C38.247 71.4052 39.8892 74.5456 41.8642 76.8198C43.8439 79.0993 46.2195 80.5722 48.9206 80.7727C51.6217 80.9731 54.1887 79.8669 56.483 77.9045C58.7721 75.9467 60.8598 73.0831 62.6683 69.5829C66.2877 62.5784 68.9005 52.8085 69.708 41.9259C70.5155 31.0432 69.3732 20.9948 66.8273 13.5327C65.5551 9.804 63.9129 6.66362 61.9379 4.38943Z" fill="#162929"/>
<path d="M116.559 59.6109C122.329 57.8246 124.208 53.0918 120.727 42.6406" stroke="#162929" stroke-width="2.34167" stroke-miterlimit="10" stroke-linecap="round"/>
<path d="M47.4033 17.1189L11.1221 8.89551" stroke="#162929" stroke-width="4.68326" stroke-miterlimit="10"/>
<path d="M48.1641 35.6173L28.5759 34.334" stroke="#162929" stroke-width="5.46384" stroke-miterlimit="10"/>
<path fill-rule="evenodd" clip-rule="evenodd" d="M0 76.4335L33.068 69.6885L33.9703 74.1121L0.902304 80.8571L0 76.4335Z" fill="#162929"/>
<path d="M153.722 90.1539V108.962C153.722 110.8 152.603 112.278 151.227 112.278C149.851 112.278 148.732 110.789 148.732 108.962V90.1539C148.732 88.3163 149.851 86.8379 151.227 86.8379C152.603 86.8379 153.722 88.3163 153.722 90.1539Z" fill="#162929"/>
<path d="M133.855 70.0114C133.855 70.0114 128.014 95.6363 108.507 89.8563C103.395 88.3472 100.346 83.4296 99.4421 78.0911C98.631 73.2967 99.8322 68.2764 101.567 63.8208C102.317 61.901 103.076 59.9607 104.154 58.1948C105.119 56.6241 106.392 55.3716 107.891 54.2936C111.105 51.9837 115.725 50.2898 119.718 51.1727C121.145 51.4909 122.357 52.4046 122.993 53.729C123.784 55.3613 123.476 56.9629 123.147 58.6876C122.716 60.9975 121.895 63.174 121.125 65.3813C119.133 71.0791 115 80 115 80L116.5 81L134.563 42.8877L133.855 70.0114Z" fill="#162929"/>
<path d="M97.4402 53.6777C97.4402 53.6777 101.537 58.9752 107.255 58.9752" stroke="#162929" stroke-width="2.34167" stroke-miterlimit="10"/>
<path d="M124 49.889V61.8698C124 62.917 122.883 63.7589 121.5 63.7589C120.117 63.7589 119 62.9067 119 61.8698V49.889C119 48.8418 120.117 48 121.5 48C122.883 48 124 48.8521 124 49.889Z" fill="#162929" stroke="white" stroke-miterlimit="10"/>
<path d="M119 48.889V62.7691C119 63.8163 117.883 64.6581 116.5 64.6581C115.116 64.6581 114 63.806 114 62.7691V48.889C114 47.8419 115.116 47 116.5 47C117.883 47 119 47.8521 119 48.889Z" fill="#162929" stroke="white" stroke-miterlimit="10"/>
<path d="M114 49.8891V62.5065C114 63.5537 112.883 64.3955 111.5 64.3955C110.117 64.3955 109 63.5434 109 62.5065V49.8891C109 48.8419 110.117 48.0001 111.5 48.0001C112.871 47.9898 114 48.8419 114 49.8891Z" fill="#162929" stroke="white" stroke-miterlimit="10"/>
<path d="M109 47.5153V61.7958C109 63.192 107.883 64.311 106.5 64.311C105.117 64.311 104 63.1817 104 61.7958V47.5153C104 46.119 105.117 45 106.5 45C107.883 45 109 46.119 109 47.5153Z" fill="#162929" stroke="white" stroke-miterlimit="10"/>
</g>
<defs>
<clipPath id="clip0">
<rect width="172" height="91" fill="white" transform="matrix(-1 0 0 1 172 0)"/>
</clipPath>
</defs>
</svg>
