<svg version="1" xmlns="http://www.w3.org/2000/svg" width="682.667" height="682.667" viewBox="0 0 512.000000 512.000000"><path d="M170 116.7c-16.4 1.7-33 6.7-48.6 14.6-15 7.6-24.1 14.2-36.4 26.6-20.5 20.6-32.9 43.9-38.7 72.7-2.6 13.5-2.4 39.5.6 53.4 6.1 28.4 20.3 53.7 41.3 73.5 19.2 18.1 41 29.5 68.3 35.8 8.9 2.1 10.9 2.1 155.1 2.4l146.2.4 2.1-7.8c3.6-13.7 5.2-22.5 5.8-33 1.2-20.5-4.3-34.7-20-51.8-3.4-3.8-41.3-37.3-84.2-74.6-44.2-38.4-79-69.3-80.3-71.4-3.8-6-2.7-15.3 2.1-19.3 1.1-.9 20.3-1.1 78.7-1l77.3.3-19.6 13-19.5 13 19.6.5 19.7.5-.2 8.1c-.3 15.3-3.1 18.5-31.6 36.4l-21.5 13.5 17.1.5c15.4.4 17.7.7 21.9 2.8 10 4.9 13.9 12.7 14.6 29.2.5 13.2-.3 11.8 13.5 24.3l7.9 7-.4-26.4c-.4-31.7-1-34.2-10.7-43.1l-5.8-5.4 4.4-4.9c2.5-2.7 5.5-7 6.9-9.7 4.9-9.8 5.4-13.8 5.4-48.5V116l-143.7.2c-79.1 0-145.4.3-147.3.5zm32.3 20.9c.3.3 0 2.2-.7 4.2-4.9 13.9-1.9 28.9 8.5 42.9 2.3 3 39.4 36.7 87.2 79.2 58.2 51.8 84.2 75.5 86.7 79.2 3.3 4.9 3.5 5.7 3.5 13.3 0 6.4-.5 9.2-2.4 13.3l-2.3 5.3h-35l.7-2.3c.4-1.2 1-5.9 1.2-10.4.4-7.2.2-8.8-2-13.6-1.3-2.9-5.1-8.2-8.3-11.6-3.3-3.4-40.8-36.9-83.4-74.4-82.8-73-84-74.2-87.6-86.5-3-10.3-2-22.1 2.8-33.4 1.9-4.4 2.3-4.7 6.2-5.1 7.2-.6 24.2-.7 24.9-.1zm56.2 1.1c-4.4 11.5-1.9 24 6.8 34 2.3 2.6 39.8 35.9 83.3 73.9 43.6 38.1 81.5 72 84.3 75.4 2.8 3.4 6.4 8.5 7.9 11.3 2.5 4.9 2.7 6 2.6 17.7 0 9.7-.4 13.7-2 18l-1.9 5.5-16.4.3-16.3.3.6-2.3c3.2-10.6 3.8-13.9 3.4-20.4-.7-10.7-4.7-18.3-15-28.8-4.6-4.7-42.9-39.1-85.3-76.6-42.3-37.4-78.9-70.4-81.3-73.3-5.6-7-7.5-12.9-7-22 .3-4 1.2-8.9 2.2-11l1.6-3.7h16.6c15.4 0 16.6.1 15.9 1.7zm-112.2 10.8c-2.2 8.4-2.2 25.3.1 33 2.9 9.8 7.6 17.5 15.6 25.6 4.1 4.1 42 37.7 84.1 74.7 42.1 36.9 77.4 68.3 78.4 69.9 2.9 4.4 3.2 13 .6 18.2l-2.2 4.2-76.2-.4c-74.3-.4-76.4-.4-86.2-2.6-29.2-6.5-53.4-21.9-70.8-45C73.6 305.8 66 282.9 66 256c0-40.5 19-76 52.8-98.4 8.3-5.5 27.9-15.2 28.9-14.2.1.1-.5 2.9-1.4 6.1z"/><path d="M309 154.5c0 .2 5.2 4.8 11.5 10.1 9.2 7.7 12 9.5 13.8 9 6.7-1.7 13.2-9 14.4-16l.6-3.6h-20.2c-11 0-20.1.2-20.1.5z"/></svg>