<svg xmlns="http://www.w3.org/2000/svg" width="96" height="24" viewBox="0 0 96 24">
    <path fill="currentColor" fill-rule="evenodd" d="M34.183 6.476s-1.89-1.495-4.198-1.495c-1.522 0-2.306.86-2.306 1.812 0 3.124 9.918 2.128 9.918 9.736 0 4.075-3.46 7.471-8.995 7.471-5.537 0-8.304-2.717-8.304-2.717l2.767-4.483s2.538 2.219 5.537 2.219c1.753 0 2.768-.905 2.768-2.038 0-3.396-9.919-2.49-9.919-9.736C21.451 3.17 24.681 0 29.755 0c4.474 0 7.104 2.264 7.104 2.264l-2.676 4.212zm18.684 0S50.975 4.98 48.669 4.98c-1.522 0-2.306.86-2.306 1.812 0 3.124 9.917 2.128 9.917 9.736 0 4.075-3.46 7.471-8.995 7.471-5.535 0-8.303-2.717-8.303-2.717L41.75 16.8s2.537 2.219 5.535 2.219c1.753 0 2.768-.905 2.768-2.038 0-3.396-9.918-2.49-9.918-9.736C40.135 3.17 43.364 0 48.438 0c4.475 0 7.105 2.264 7.105 2.264l-2.676 4.212zm18.683 0S69.66 4.98 67.352 4.98c-1.522 0-2.307.86-2.307 1.812 0 3.124 9.92 2.128 9.92 9.736 0 4.075-3.461 7.471-8.997 7.471s-8.304-2.717-8.304-2.717l2.768-4.483s2.538 2.219 5.536 2.219c1.753 0 2.768-.905 2.768-2.038 0-3.396-9.918-2.49-9.918-9.736C58.818 3.17 62.048 0 67.122 0c4.474 0 7.104 2.264 7.104 2.264L71.55 6.476zM11.764 24c4.382 0 6.227-1.585 6.227-1.585v-5.886s-1.614 1.81-5.305 1.81c-3.69 0-6.458-2.716-6.458-6.339 0-3.622 2.768-6.34 6.458-6.34 3.691 0 5.305 1.811 5.305 1.811V1.585S16.146 0 11.764 0C5.306 0 0 5.208 0 12s5.306 12 11.764 12zm72.334-13.177h2.307c2.076 0 3.229-1.132 3.229-2.808 0-1.675-1.153-2.807-3.23-2.807h-2.306v5.615zM96 23.32h-6.735l-4.198-8.377h-.97v8.377h-5.996V.68h9.365C92.4.68 95.63 3.85 95.63 7.7c0 5.388-4.75 6.565-4.75 6.565L96 23.321z"/>
</svg>
