<svg xmlns="http://www.w3.org/2000/svg" width="896" height="400" viewBox="0 0 896 400">
    <path fill="#345EFF" fill-rule="evenodd" d="M213.283 269.159h60.71v26.97h-60.71v71.294l43.402 3.472v23.498h-118.49v-23.498l43.401-3.472v-71.295H0v-18.157L178.401 5.607h34.882V269.16zm-175.473 0h143.786V47.53L180 46.996l-13.58 29.105L37.81 269.16zm532.275-25.634c0 50.2-10.606 88.83-31.82 115.888C517.054 386.47 487.542 400 449.732 400c-37.633 0-67.145-13.574-88.535-40.721s-32.086-65.732-32.086-115.754v-86.783c0-50.022 10.607-88.651 31.82-115.888C382.143 13.618 411.565 0 449.198 0c37.81 0 67.41 13.618 88.801 40.854 21.39 27.237 32.086 65.866 32.086 115.888v86.783zm-31.952-92.123c0-39.876-7.59-70.539-22.767-91.99-15.177-21.45-37.233-32.176-66.168-32.176-28.757 0-50.68 10.77-65.769 32.31-15.088 21.54-22.633 52.158-22.633 91.856v96.93c0 39.519 7.678 70.181 23.033 91.988 15.355 21.807 37.322 32.71 65.902 32.71 28.757 0 50.68-10.858 65.769-32.576 15.088-21.718 22.633-52.425 22.633-92.123v-96.93zM835.29 269.159H896v26.97h-60.71v71.294l43.402 3.472v23.498h-118.49v-23.498l43.402-3.472v-71.295H622.008v-18.157l178.4-272.364h34.882V269.16zm-175.472 0h143.786V47.53l-1.597-.534-13.58 29.105L659.818 269.16z"/>
</svg>
